<mxfile host="app.diagrams.net" modified="2023-06-12T03:26:33.833Z" agent="5.0 (Macintosh; Intel Mac OS X 10_15_7) AppleWebKit/537.36 (KHTML, like Gecko) Chrome/112.0.0.0 Safari/537.36" etag="6NBkCMLBlnYhG1r0Kg7S" version="20.2.8" type="github">
  <diagram name="Page-1" id="74b105a0-9070-1c63-61bc-23e55f88626e">
    <mxGraphModel dx="1581" dy="667" grid="1" gridSize="10" guides="1" tooltips="1" connect="1" arrows="1" fold="1" page="1" pageScale="1.5" pageWidth="1169" pageHeight="826" background="none" math="0" shadow="0">
      <root>
        <mxCell id="0" style=";html=1;" />
        <mxCell id="1" style=";html=1;" parent="0" />
        <mxCell id="HUmmBEnXE_2QKr82iRTp-37" value="" style="rounded=0;whiteSpace=wrap;html=1;fillColor=none;dashed=1;" vertex="1" parent="1">
          <mxGeometry x="499" y="100" width="360" height="250" as="geometry" />
        </mxCell>
        <mxCell id="HUmmBEnXE_2QKr82iRTp-47" value="" style="rounded=0;whiteSpace=wrap;html=1;fillColor=none;" vertex="1" parent="1">
          <mxGeometry x="439" y="571" width="160" height="80" as="geometry" />
        </mxCell>
        <mxCell id="HUmmBEnXE_2QKr82iRTp-46" value="" style="rounded=0;whiteSpace=wrap;html=1;fillColor=default;" vertex="1" parent="1">
          <mxGeometry x="429" y="582" width="160" height="80" as="geometry" />
        </mxCell>
        <mxCell id="HUmmBEnXE_2QKr82iRTp-26" value="" style="rounded=0;whiteSpace=wrap;html=1;fillColor=none;dashed=1;" vertex="1" parent="1">
          <mxGeometry x="20" y="100" width="400" height="300" as="geometry" />
        </mxCell>
        <mxCell id="HUmmBEnXE_2QKr82iRTp-1" value="告警binlog" style="shape=cylinder3;whiteSpace=wrap;html=1;boundedLbl=1;backgroundOutline=1;size=15;" vertex="1" parent="1">
          <mxGeometry x="40" y="122" width="100" height="80" as="geometry" />
        </mxCell>
        <mxCell id="HUmmBEnXE_2QKr82iRTp-5" value="告警统计&amp;状态数据" style="swimlane;" vertex="1" parent="1">
          <mxGeometry x="251" y="180" width="139" height="140" as="geometry" />
        </mxCell>
        <mxCell id="HUmmBEnXE_2QKr82iRTp-7" value="15分钟各故障累计" style="text;html=1;align=center;verticalAlign=middle;resizable=0;points=[];autosize=1;strokeColor=none;fillColor=none;" vertex="1" parent="HUmmBEnXE_2QKr82iRTp-5">
          <mxGeometry y="55" width="120" height="30" as="geometry" />
        </mxCell>
        <mxCell id="HUmmBEnXE_2QKr82iRTp-8" value="30分钟各故障累计" style="text;html=1;align=center;verticalAlign=middle;resizable=0;points=[];autosize=1;strokeColor=none;fillColor=none;" vertex="1" parent="HUmmBEnXE_2QKr82iRTp-5">
          <mxGeometry y="83" width="120" height="30" as="geometry" />
        </mxCell>
        <mxCell id="HUmmBEnXE_2QKr82iRTp-15" value="10分钟各故障累计" style="text;html=1;align=center;verticalAlign=middle;resizable=0;points=[];autosize=1;strokeColor=none;fillColor=none;" vertex="1" parent="HUmmBEnXE_2QKr82iRTp-5">
          <mxGeometry x="-1" y="27" width="120" height="30" as="geometry" />
        </mxCell>
        <mxCell id="HUmmBEnXE_2QKr82iRTp-78" value="机器人状态" style="text;html=1;strokeColor=none;fillColor=none;align=center;verticalAlign=middle;whiteSpace=wrap;rounded=0;dashed=1;" vertex="1" parent="HUmmBEnXE_2QKr82iRTp-5">
          <mxGeometry x="9" y="110" width="91" height="30" as="geometry" />
        </mxCell>
        <mxCell id="HUmmBEnXE_2QKr82iRTp-3" value="云端机器人状态" style="shape=cylinder3;whiteSpace=wrap;html=1;boundedLbl=1;backgroundOutline=1;size=15;" vertex="1" parent="1">
          <mxGeometry x="40" y="212" width="100" height="80" as="geometry" />
        </mxCell>
        <mxCell id="HUmmBEnXE_2QKr82iRTp-4" value="......" style="shape=cylinder3;whiteSpace=wrap;html=1;boundedLbl=1;backgroundOutline=1;size=15;" vertex="1" parent="1">
          <mxGeometry x="40" y="300" width="100" height="80" as="geometry" />
        </mxCell>
        <mxCell id="HUmmBEnXE_2QKr82iRTp-19" value="" style="endArrow=classic;html=1;rounded=0;exitX=1;exitY=0.5;exitDx=0;exitDy=0;exitPerimeter=0;entryX=-0.009;entryY=0.731;entryDx=0;entryDy=0;entryPerimeter=0;" edge="1" parent="1" target="HUmmBEnXE_2QKr82iRTp-7">
          <mxGeometry width="50" height="50" relative="1" as="geometry">
            <mxPoint x="140" y="257" as="sourcePoint" />
            <mxPoint x="247.96000000000004" y="244.01" as="targetPoint" />
          </mxGeometry>
        </mxCell>
        <mxCell id="HUmmBEnXE_2QKr82iRTp-22" value="" style="endArrow=none;html=1;rounded=0;exitX=1.02;exitY=0.588;exitDx=0;exitDy=0;exitPerimeter=0;" edge="1" parent="1">
          <mxGeometry width="50" height="50" relative="1" as="geometry">
            <mxPoint x="140" y="167.03999999999996" as="sourcePoint" />
            <mxPoint x="210" y="167" as="targetPoint" />
          </mxGeometry>
        </mxCell>
        <mxCell id="HUmmBEnXE_2QKr82iRTp-23" value="" style="endArrow=none;html=1;rounded=0;" edge="1" parent="1">
          <mxGeometry width="50" height="50" relative="1" as="geometry">
            <mxPoint x="209" y="253" as="sourcePoint" />
            <mxPoint x="209" y="170" as="targetPoint" />
          </mxGeometry>
        </mxCell>
        <mxCell id="HUmmBEnXE_2QKr82iRTp-24" value="" style="endArrow=none;html=1;rounded=0;exitX=1;exitY=0.5;exitDx=0;exitDy=0;exitPerimeter=0;" edge="1" parent="1" source="HUmmBEnXE_2QKr82iRTp-4">
          <mxGeometry width="50" height="50" relative="1" as="geometry">
            <mxPoint x="330" y="310" as="sourcePoint" />
            <mxPoint x="210" y="340" as="targetPoint" />
          </mxGeometry>
        </mxCell>
        <mxCell id="HUmmBEnXE_2QKr82iRTp-25" value="" style="endArrow=none;html=1;rounded=0;" edge="1" parent="1">
          <mxGeometry width="50" height="50" relative="1" as="geometry">
            <mxPoint x="209" y="338" as="sourcePoint" />
            <mxPoint x="209" y="255" as="targetPoint" />
          </mxGeometry>
        </mxCell>
        <mxCell id="HUmmBEnXE_2QKr82iRTp-27" value="实时数仓" style="text;html=1;strokeColor=none;fillColor=none;align=center;verticalAlign=middle;whiteSpace=wrap;rounded=0;dashed=1;" vertex="1" parent="1">
          <mxGeometry x="168" y="50" width="105" height="40" as="geometry" />
        </mxCell>
        <mxCell id="HUmmBEnXE_2QKr82iRTp-31" value="" style="shape=image;verticalLabelPosition=bottom;labelBackgroundColor=default;verticalAlign=top;aspect=fixed;imageAspect=0;image=data:image/png,iVBORw0KGgoAAAANSUhEUgAAAggAAAD/CAYAAACU9C7rAAAAAXNSR0IArs4c6QAAIABJREFUeF7snQWYVVX3xt87RXd3p7QKCIqgqCBgYnd/BnZ3fLZ+/u3GVsQCuxCkpJGW7u4hJpiZ+39+63qGAUEGuBMwaz/PcGfu3Wefvd9V71p730NoY+KWsLw5Ao6AI+AIOAKOgCOQBYFQOBx2guAq4Qg4Ao6AI+AIOAI7IOAEwRXCEXAEHAFHwBFwBP6BgBMEVwpHwBFwBBwBR8ARcILgOuAIOAKOgCPgCDgCe0bAKwiS0tLSlJqaqlAotGfEvEeuIBAcjSlatGiu3M9v4gg4Ao6AI7AjAk4QJG3atElJSUnyYJR/zCM9PV3btm1T+fLl88+kfCaOgCPgCBQgBJwgSNqwYYNVETwY5R/NRx5bt25VyZIl88+kfCaOgCPgCBQgBJwgOEHIl+ruBCFfisUn5Qg4AgUIAScIThDypbo7QciXYvFJOQKOQAFCIF8RBA6mbd68WatWrVKZMmVUtmzZXYrinnvuUcWKFXX99ddb3zlz5ig+Pl4DBgyw/sWLF1fv3r3t/bZt29rWwWOPPabk5GR16NBB3bp122Hcf9tiWLhwoapVq6bZs2eLffHY2FgVKVLExuQ6fk9MTFSFChVUqFAhxcXFad26dVYaX7x4sfWnlSpVSqVLly5AqrV/S3WCsH/4+dWOgCPgCOwvAvmKIBCEv/zyS82dO9cCfuHChdWlSxf7ufPOO1WsWDELuD///LOaNm1qwf/yyy/Xli1bbL967NixmjdvnqZOnaqTTz5ZgwYNUtWqVa3PI488YgcRW7VqpWuvvTbbBAFSQeBnTH7nICPkgB+++QCpYVyIAj+8BzHh/Vq1amnWrFnKyMhQ69atjTx4k5YvX26yDM4XIPe6detmkikwcoLgmuIIOAKOQN4ikK8IwqhRo0TG3qhRIyUkJFiVIAi8vXr10osvvmhBpWfPnho4cKBWr15tX03ktVOnTho6dKgF6DZt2lggnzBhgtasWaPRo0drxowZFrQJ9v37988WQYAQEMyoIKxYscKuj4mJMfJCCw7RLVq0yEgABKBOnTr2rQgqBvPnzzeCQr/169erZcuWeSvtfHJ3cKVShCzBCtz4PevXTJ0g5BNh+TQcAUegwCKQrwgCwRyS8Oeff1o2yVYB2wH16tVTjx491K9fP3399dcaP368ZZx9+vTRxo0btWTJEgvklPy7d++ulJQUuxYS8ccff+i2227TVVddZZk+lYiuXbtmiyDQCWIAUeGeVB/YZiDgMz5kBCLCe8ydigc/kBGqBwsWLLA+kIoqVaqoZs2aBVbRdl44uIIhxKly5cqZpCvo5wTBVcURcAQcgbxFIF8RhAAKqghk+gSOoN1888164IEHjEDUr19f06dPN/LA9gLkoGHDhkYe+PzCCy9U48aN7dzAm2++aVsMd999txGEO+64w7YssrZ/O4OwcuVKy2wJ9hAEKgWMQ3CDiHD+gGBGxWPZsmVWQeBztiCYG7+zFkgC5yq8bUdg5syZqlGjxi6fP+EEwTXFEXAEHIG8RSBfEQSybYIugZaAGzyXgCx98uTJdqbgvPPO05NPPmkBmzMIbDe89NJLRhrYWujcubMhSgWCwE4FgS2AMWPGGGGoXbu2XnjhhWwTBO7DFsO0adOMIPDwHioIbDMwLuVxKgzciy0IKgiQCt6DGNDXH8C090ruBGHvMfMrHAFHwBGIJgL5iiDsbmEE3mB/eunSpRawg0yew240yAXfHiBr5zNK+mT5fJMgawmb6gTl/+xWEKIJto+VfQScIGQfK+/pCDgCjkBOIHBAEIScWLgThJxGdf/Gd4Kwf/j51Y6AI+AI7C8CThD8QUn7q0M5cr0ThByB1Qd1BBwBRyDbCDhBkOygIVsUfDXRW/5AAILAAc/dPSwrf8zSZ+EIOAKOwMGLgBMEyQ5GcvgweL7BwSvuA2dlnCNBJv6fNR04MvOZOgKOwMGFgBOEg0uevhpHwBFwBBwBRyAqCDhBiAqMPogj4Ag4Ao6AI3BwIeAE4eCSp6/GEXAEHAFHwBGICgJOEKICow/iCDgCjoAj4AgcXAg4QTi45OmrcQQcAUfAEXAEooKAE4SowOiDOAKOgCPgCDgCBxcCThAOLnn6ahwBR8ARKNAIBF+R5jW3Gv8VAF+T5/8A2l37c5kUzq0JZfM+VUpIlUvsvrMThGwC6d0cAUfAEXAE8j8CPGCN/78nN/+TvOTkZKWnpyv4v4F2Rund8dKdI/Ifdp2rS/d0kJpv/4+Td5ikE4T8JzOfkSPgCDgCjsA+IkCwhiAUKVJkH0fY+8u4JxWL3ZGSt8dJ94zc+3Fz+oqjq0n3dJRaOEHIaah9fEfAEXAEHIG8RsAJQvYl4AQh+1h5T0fAEXAEHIEDHIHsEAQe407Gz7bAli1bbMUVKlTIXDn/FwyfZW0JCQnirMGuWjQqCAkxUskEaUualJS2eyHYDMIZilW6YmPipHC60sIhpSskZdi/1uy8A/Olz26aE4QDXNl9+o6AI+AIOALZR2BPBAFysHDhQm3dulXz58+3/4uHwN+zZ8/MbQneX7p0qcqUKWP/mR+fH3bYYYqL23Ww3V+CULW4VKGQVDpB4hYTVknrU/655hiFVSKcomJxaapaJE1LkoqoUkKKNmTEacUWKSE9SfGhsJGEbWEpIxSnzQmlnSBkX328pyPgCDgCjsDBisCeCAIVg48++sgIwtChQ9W9e3erHnTs2NFe161bpwEDBmjcuHGqXbu2EQW+nXDppZeqWbNmOVJBOL2hFA5LA2ZLvRtJa7dKI5f/s5IQp3RVyEhUiypx6linkJ4ckaZTGsRobVq8NmxNV6mYdJWIz9DGlBilpEnVSoX1ycKiThAOVmX3dTkCjoAj4AhkH4E9EQRG6tWrl33jYPHixUYCWrdurVtvvdVuwnt9+/bV3Llz7bAjWwtr167VDTfcoC5duuQIQTilvpQelr6ZK8WHpNPqSb8tlVYn7Xi7UDhD5WKSdWz9BNUslq7f5qWpRcUYzd6SoPi4GB1XUyoVu01b0uP07fStalyjqN6YHOMEIfvq4z0dAUfAEXAEDlYEskMQ2rRpY9sH69evV9myZdWuXTs9+uijmZB88MEHdgahVq1a9t6XX36pJ554YrdfY9zfLQa+bti2ijR9rVSxqJS2Tfp6vrQhdUcpxStDdQsnqU2NQmpVQUpKDatcsZC+Xxij3xeF9FSXsBI3b1OxhFhNXZmsT2fGKjG0+29z+BmEg9UKfF2OgCPgCDgC/0AgOwShc+fOVh3gfEHp0qXtfMHdd99tpIEGQWCroUqVKvb3kCFD9PTTT+cYQeDsQYuKErl+iUJSrWLSuBXS+DXStizPe4oLSWXjwwrFSec3ztBxtaUZ66S3psRo3uoUXdsqrAlr4pScGtIZTcJ64LdEJcaX8wqC24kj4Ag4Ao6AI7AngjBhwgTde++9RhBSU1NVqFAhqyKcddZZtvUwadIkIwhLlizJPJTIeQU+u+SSS3Jki2HnQRuWlrrWkD6cKSVmqSJUKCqd2ySsH+aFdFK9sBZskMoXlSatkVJS0lUkTjqqdqw+myEVjs1Qk1Jp+nxBIScIbhaOgCPgCDgCjsCeCMKqVavsnEHWxrcUOKBYo0YNrVmzRsuWLRPfdsjaOLPQuHHjXCEI3KROSWnJ5h0rCBCAhmWlhYlSpaLSvPVSpeKR8wtp6dLWNKl+GWnOemnLNql+KWnOxt3rhG8xuL04Ao6AI+AIFBgE9kQQcgKI/T2DkBNzys6YThCyg5L3cQQcAUfAETgoEHCCkH0xOkHIPlbe0xFwBBwBR+AARyA//mdN/n8xHOBK5dN3BBwBR8AROPARoILANxB4za3GsxI46Li7/6yJw5DdP4qzpxvml8Y3Ji5skaGLWod2+99U+//mmF+k5fNwBBwBR8AR2G8E+HYC/88Cr7nVOOQYExOz2/+rgXlQ2chvjUdHx8fH73ZaThDym8R8Po6AI+AIOAKOQD5AwAlCPhCCT8ERcAQcAUfAEchvCDhByG8S8fk4Ao6AI+AIOAL5AAEnCPlACD4FR8ARcAQcAUcgvyHgBCG/ScTn4wg4Ao6AI+AI5AMEnCDkAyH4FBwBR8ARcAQcgfyGgBOE/CYRn48j4Ag4Ao6AI5APEHCCkA+E4FNwBBwBR8ARcATyGwJOEPKbRHw+joAj4Ag4Ao5APkAgagQhIywlp+WDFUVhCoVipVieQ+nNEXAEHAFHwBEooAhEhSBsTJb6TpD6zzk4UOxVR7q8tVSx+MGxHl+FI+AIOAKOgCOwtwhEhSCs3So9NVJ6b/re3j5/9j+zgXRHR6layfw5P5+VI+AIOAKOgCOQ0whEjyCMkN6bkdPTzZ3xnSDkDs5+F0fAEXAEHIH8i0C+JAhxobD4f7jSMwAurLiYkNLDIcWEpPS//4OukOgTUsh6yD7j93QOQ9g7kkIxkv2PXtv/pk9CrJSSvnuhOEHIvwrrM3MEHAFHwBHIHQTyHUEoFE5Vt+qpSkyVJq8Ka/PWrWpeIV7Tkkvr0LIZGr4mTnVKhlUsI1nJilWaErQiWWpdLkNxIWnc4k3atmWTShWJ0eaE8iqdsUHrNqcoJhRSSsnqqpKQqkubSY9OSNgtwk4Qckf5/C6OgCPgCDgC+ReBfEcQWpVOVZuy6QqFwqpRJk4fzwpp1rqwFBuvqw7J0B9rYtXvJGljSgTUqaul1yeGdWc7ae46aeBfYa3YnKI+bWP1yax4XX9oWC+M2KRNacU0Y3OcbmmZoZplwrphSKwThPyrlz4zR8ARcAQcgTxGINcIQutKUslCO66Wr0WOXrbje7UKJatZ8c22lXBIteL6ZlaytiSlalVMOX1xWoySM0LK2BbWyMWRbYOYuBi9OzVD3WpkKD42pHHLpNaVYtT7kLCeGBMygrAtVXphTFgTN8Y6QchjhfPbOwKOgCPgCBwYCOQaQbjzCKlO6R1BWZck3TVkx/dCyZt0W9sMLd+UrkJxCRqxtpiOqBzSV3OlI8qn6YcF2zT5qsJ2/oBzB5NWhfXg8JBuOjRsz2H4bEqGSsWn65QmMXp9WqxuOTysuHCGnhoZ0oQNThAODLX0WToCjoAj4AjkNQK5RhCyu9BGJVN0R7uw1iWFVbpwjF6fmqDmZSME4ZZDM/TkkET1Pa2EtqbFqkhcWBtSw7pjSFjH1sxQ8UKx2pqcrmpF0rQhNU7fL4lXj1qpOq5OSD/ODuu92QnqUTOs4+tm+BZDdgXi/RwBR8ARcAQKJAL5jiC0ryLd1jasVUkhLdsk9ftLOqqKjCBc1EJ6Z6L0dvewElNDKhovJW7L0DOjpFrFM1SiaKyOqi5lZEiJqWH1nRpSm/LblBAXr1B6msavjtepTcI6vFJYZ32z+0cl+iHFAmkLvmhHwBFwBByBLAjkO4JQKEZqU0lalyItSZRS06WGZaW5G6Tkv7+a2KuelJYhxcVISenS2GVSiXipbNHIyrZukw6tIg1fIjWvIA1fLCVtk2oUl46tJ21Klfr/yzMbnCC4jTgCjoAj4AgUdATyHUHIDwJxgpAfpOBzcAQcAUfAEchLBJwg7AJ9Jwh5qZJ+b0fAEXAEHIH8gIATBCcI+UEPfQ6OgCPgCDgC+QyBqBCEtPSwfpmbrit/itO2v59qnM/Wme3p8DTGZzqn67QmMUrgD2+OgCPgCDgCjkABRCAqBAHcklLTtCoxNfhfDw5YKKEE5YsnqFjhuAN2DT5xR8ARcAQcAUdgfxGIGkHY34n49Y6AI+AIOAKOgCOQfxBwgpB/ZOEzcQQcAUfAEXAE8g0CThDyjSh8Io6AI+AIOAKOQP5BIGoEIRw+wE8n5h+Z+EwcAUfAEXAE9hEBYlHWn9jYWIVCfuB8X+CMCkFAGBkZGfbjzRFwBBwBR8ARyG0EAlJAHEpLS1NqaqqSk5NVqlQpFSq0038lnNuTO0Dv5wThABWcT9sRcAQcAUdgRwSCZHXbtm1OEKKgHE4QogCiD+EIOAKOgCOQ9wg4QYiuDJwgRBdPH80RcAQcAUcgjxBwghBd4J0gRBdPH80RcAQcAUcgjxBwghBd4J0gRBdPH80RcAQcAUcgjxBwghBd4J0gRBfPPBmNU7t8jce/ypMn8Nu3d2JiYvLm5gX8rsHXq133C7gi/L18JwjR1QMnCNHFM09G46s8cXFx9uMt9xHg61QJCQm5f2O/o9LT0w0FvuvuzRFwghBdHXCCEF0882S0rVu3WoBygpAn8CslJcW/Z5030Nv33Wmu+3kkgHx2WycI0RVIrhKE559/XpdffrlOOeUUY/6VKlXSI488oiuuuMJW1aNHD11wwQXq37+/mjZtqmOPPTa6qz1IR8sOQZg0aZI+//xzdezYUU899ZQhccMNN2jJkiX69ttv7YEiyKFo0aLasmWLzjvvPOszd+5cPfzwwyYLSEjz5s01ffp0ffzxx6pTp449sezGG29UrVq1DlJ097ys7BCEwYMH66233tLjjz8u5FW+fHktXbrUsF+2bJmuv/56PfTQQ/bd7dNPP101atTQgAEDVLt2bZ1xxhlmKxdeeKFeeOEFlS5d2uzoscce08UXX2wTRK733HPPnid7kPXIDkFISkoS+B9zzDH6448/9OGHH6pDhw6qXLmyhg8fbnK45ZZbNHXqVHXr1k3lypXTqFGjTF41a9bU/fffbzr/3Xff6bbbbrN+GzdutD6DBg0yRLGXU0891ezH244IrF+/XosXLzac27Zta/ju3BYsWKA+ffpYDLjkkkv0yy+/mB9atWqVvvzyS+sOtq+99pqeffZZPfPMM/YZuJcoUUJnnnmmzj//fPNHbPll9zkI9F2zZo2Y4+TJk/X666/r8MMP12WXXab69evr9ttvt3vMnj1bvXr1KnCJQK4RhIEDB+rTTz/VzTffbAIZNmyYxowZoxdffNEUAsNEyOvWrdM777xjxkYfyMTLL7+sq666ygJc2bJlzWC9bUdgTwQBTAks06ZNMyeJs1yxYoU5xb/++kuFCxfW2WefLUgEZABDu/LKKzV06FC9+uqrJo9NmzaZYyRw1atXz2QCWcBpQhQY76677iqQDnJPBAFs0OV27doZCQAvAvzKlSuNKJxzzjkW4EePHm0440TB+dBDDzXCgFPEufL78ccfr7p165p8KKsTIDds2GD4t2zZssCZRXYIwurVq3XcccepWLFiatasmQWoatWqmU8hoDz66KOGKfLABo488khVrVpVnTt3tqCATOhHUnPCCSfo2muvtbEITMHZB8gC8ipevHiBk8GeFvzBBx/o7bffNj0NzuqQnOBn2rdvb3YBGcAXocPYwllnnWWYjxw50vwQMpwxY4aRYojwf/7zH7Vo0cJsBznwGshzbwgCgZ+klDm0atXKiMdRRx1lSQ+xBrkStyDxvXv3NoIAeSgoZ15yjSB88cUX+uyzz3TRRRdZJvrTTz9p4sSJRhDIgiAI5557rrFCAtJpp52m3377zbIpKg9PP/20sXkMnEDlLfsEYe3atXruueeMIWN8KP3y5cstoGOURYoUMSMZN26ckS9khAGSeZEpvffee5o/f74ZLcaDjF555RUddthh5ngheGS6BD/GKmhtTwSBLBMdplqDc8EZUg3gb0gveIIhjo/PcJzgCZEjyyVQtWnTxmyB7Jcfqj333XefunbtqjfffFMPPvig2UZBa3siCHyOXn7zzTe2DVGxYkVhD2XKlNF1111nj+GFBM+aNcsI89ixYw1LgtKQIUOsgvbGG28YQcOH3XHHHXb9+++/b4GJ9wkckLfWrVs7QdhJAfEhVIQhxWDUpEkTI8Xx8fFGFsAMAkESAxGGAOCbIMsEaKpnvI/vJ7MPqj4zZ860GAJxQK7oPknL3lYQ0A+CP2Nhi/yNbpDIfv311+bP0BF8JlUn5n311VcXGDPLNYIA8AR+jGn8+PHG1AlIGCMBqUuXLuY8yYT+jSDA8v78888CI6DsLHRPFQTGAG+2BciIMEgMC8bN+xgV2PP7vffea/Lgb/rDnpFdyZIlzcBPPPFEM3JkhNHz2a+//mrZFa/0K2htTwQBPCiZ4uTQb4IQJADHRIChEkBVjfImePJZlSpVzDGBOc6JigOO6aOPPjKCcOmll6pTp05W/aGvE4TdH9BdtGiRTjrpJKsaQLZIMKgCkIFS+kZnK1SoYPiSpVLtHDFihI4++mhLWiAOZL/4rawEAdKB3kP+sCEnCLu2fCqXffv2Nb9NBo6+s03QoEEDq5Z9//33FtwXLlxolRyI8pw5c+xv7AO5UbFhm43KDtU4KpcQZCpqvI+MIMt7SxDQjbvvvtvGoJqBL4VwHHHEEVZpgsTj5yAMyJ55QDILSss1gsBeH2UZDA1nSJCCoeEwYfJkTBgtzhZloqJABhVUEPiMPpSmvvrqq4Iin2ytc08Egf04GDcywED5G3aO0yQTwhlCFqjsUGnAOHCWyCrYVkB2sOzExEQjc++++66VVKko3HrrrbYVRIWBgFXQWnYIwo8//mhki2oZ+61UXqgckEWh05y5wRYoj4IvmQsZKp/jRHFK2AKkDYLAFgNOlqD0ww8/GIEg4BW0tqcKAnhAhtnbRq/BksSEShrEAIw500FWS8UgIMHYBOdq2HLDVyE/rrvzzjutgkCAIpDgyxgbu3CC8E/tI2BTFeOME+c/GjZsmHkGAQJMIvK///3P8AVPsIXEQbywB7YxqTxjF2yD8srZkN9//90CO7ZDIMcHkfzsLUHgPtghWxk///yznUWABEDAuTcEJSAI9KMFZyIKgq3lGkHA0HBqsMkpU6YI5kZZm71WjI3AgqNlLwniAKMnOJElUdqbN2+eOUCYXEHZ/8muAu6JILC3ShChekMmy4Grnj17mmHB0vmbfVbOJ1AdIJBRAkcelFr5oUEYcLDBQVLKfZCEJ554wsgd+68FcQ82OwQB3Bs1amRlTII5jpDgxhYP+OI4KWHiJMEQG6HUicPDQfE7mRVbQBxsxE6CZwBQniUTprpW0Fp2CAJOn3MGTz75pG2zseVDdYBstF+/fnamBhniVyhvsx9N4CBAcHYH3PFbBCW2gth2y6rr2B972ci3IG6x/ZvOkYxQmYQU44cgBUESARFg65LG51QYyNghb1QXCMS8du/e3WQFyYDUUeYnJlBZQ7ZUJDg3gl/aW4LA/JjXhAkTbJuDMyYcDkYn2NLgPSoYnE0g9hS0Q6i5RhAQLtkrxgVjxwAxLNgarD1QGt5DaLzvX13KnrvfE0EAa/YCqRCANc6Nv8lOecWpIRvYeYB/EJyC4IfzJBNANsiPjInx+ByDZYyCStyyQxDAFezBCr2GbFHWBE/ew7ER7PjB4dEn68OXcIQ4J+TE78gnaIyLHHG+Ba1lhyAE2ShVAvzPrkrEYBhgTp+sWHIP3sMnofOMh4wC+SAPbAo5ett7BPA7JChgHgT44LkW2Af2FTzvIqiqYT/4IRqfEV+Qz94SBGTLvQN74m/GQJaMy9/8DonAXgvaA9FyjSDsvdr4FdlFYE8EIbvjeL99QyA7BGHfRvar9oRAdgjCnsbwzw8eBPaWIBw8K8+ZlThByBlcc3VUWHbWjCZXb+43syzDq115owhkn7SCltnlDdr5/65OEKIrIycI0cXTR3MEHAFHwBHIIwScIEQXeCcI0cXTR3MEHAFHwBHIIwScIEQXeCcI0cXTR3MEHAFHwBHIIwScIEQXeCcI0cXTR3MEHAFHwBHIIwScIEQXeCcI0cXTR3MEHAFHwBHIIwScIEQXeCcI0cXTR3MEHAFHwBHIIwScIEQXeCcI0cXTR3MEHAFHwBHIAwQgB1kJAl//5gFKPICJB4x523sEokIQ9v62foUj4Ag4Ao6AI5B9BIJHi//bFbuqIPDERScI2cc5a08nCPuGm1/lCDgCjoAjkM8QgCAEj0jm8dleQdg/ATlB2D/8/GpHwBFwBByBfIKAn0GIriCcIEQXTx/NEXAEHAFHII8QcIIQXeCdIEQXTx/NEXAEHAFHII8QcIIQXeCdIEQXTx/NEXAEHAFHII8QcIIQXeCdIEQXTx/NEXAEHAFHII8QcIIQXeCdIEQXTx/NEXAEHAFHII8QcIIQXeCdIEQXTx/NEXAEHAFHII8QcIIQXeCdIEQXz3w5WmA0sbGxmfNLSUlRKBRSXFycvfJD+/3331W2bFk1b948X67FJ+UIOAIHDwI8p6Bw4cLKyMjQ5s2bxbMLypcvbwvEbwV+6d9WvHXrVs2fP1+HHHLIDk9S3JvnIIQlbU2V0tKlUkW23238UqlBOalkYWnxBqlG6V3PZH2SlJouFYuXYmOkIvH/7Ldmi1S+2J5ll5gcuT5+u7vOvCgjLG1MlpK3SVVK7nms/e2RawQBBXjkkUe0fPly3X333apYsaK90ghcbdq0UZ06ddS/f3/VqFFDJ510kurVq6cXX3xRs2fP1v3332+K8/bbb2vs2LHq06ePmjZtqunTp+uVV15Rly5d1Lt3bw0fPlwDBgzQ0UcfrWOPPVZFixa191C2o446SklJSXr88cdN8a6//nqVK1dufzHM99fzyNFly5YpJibGcFi9erWKFCmiqlWr2mNIX3/9dXXv3l21atXSrbfeqssuu0xNmjQR102ePFlr1qzRCSecoFmzZunTTz9V9erVdcopp9gYYI9M77zzzgKB5b4Ku2/fvpo0aZLuuusuVa5c2XQY3MH1jDPO0Ny5c/Xyyy/rsMMO07nnnqu//vpLn332mUqUKKGzzjpLVapU2eHW9913n+nyQw89pPj4eNPxr776Sr169dLxxx+/Q99PPvnEiN+1115rxA/5Y0/YD3YUNGz0m2++Mds84ogjNG3aNL377rtq2LChLrroIiUkJFhX9OGxxx4ze2XMlStX6osvvtDatWttro0bN84cc8OGDWbDzJeG054wYYIWLVqkM888c1/h3KvrCDz/+9//zM/ccMMNto4ff/xRQ4YMsfm2a9dOH330kf744w/V8Tr1AAAgAElEQVTTf+xg4cKFtkbwyooRN546dar5KfwTfoon9T355JNmB48++qiKFy+eOb9NmzZp4MCBmjFjhvmn1q1b69tvv9XPP/+siy++2Pxe1nb77bfrqaeesoAJ/q+++qqOOeYYuzZowfXoTfv27cU9HnzwQZvHww8/vMN4EydONN0KrmdcZNqpUyfVr19/r3Dc187jxo0zPwMu6CwN3wMxePrpp00mU6ZMMbmgp1deeaXpB74H/4z+lSxZUnPmzLHfGa9FixYmgwsuuMD0rl+/frrlllv2iSAs2yRNWynVLSMlpkitq0ZW+so4aeAsqWxh6fkTpJmrpBqlpFplpL/zqUxIZq2RNqVISzZJSzZIq5Oks5tLSanS5hQpIU4atkBqWTkS/I+svSOaE5dJo5ZIixKllVukhmWlkgnSBa2kInFhrUsKKcEIQ1hF4kNKz5CKRswxR1uuEQQcY48ePUzgn3/+ue655x4L/OvWrdOYMWNMgVF0mGCxYsVUrVo1M2KcUN26dc35XXLJJaZIEAUUCeN87bXX7P2lS5faU7Nq165tT9IaPHiwBT2cIWPhkHFIKBPv4QBwqpCWg70lJiaaU27UqJHhzfohTjg4sII81KxZ097DyHByGOTixYut7+jRoy0QLFiwwOSD04FAQLIw+uBZ54yXtUpxsOOa3fWNHz/esAJfgtKFF16ol156yfST4EqgHjlyZGbwxnFiA+vXrzesIbpZgy4BAkdJoMYuLr/8ciPFPXv2NFlAQKgM0VasWGE//P3ee+9Z8CEwQehokIsgUCBfAilEmuDz4Ycfmv1t2bLFAhE6kZaWJtZDMGJc7AlnjT3xO/Nq1apVJjQzZ8403fn111/tPeaMzZUpU8aCWk43CDEYM1f0HDxZH2vo1q2bNm7caBigxwTPN954w+YFqTryyCNN58E1aBAcbADZ4L9Y63fffadDDz3UEhtkjC0FDUx++eUX+wyCzuerVq2yv5lLhw4djJDQ0AneIwmiD8Ee7CDqBE90gADLZ8iEuUJehg4davcH28MPP9xIJY11v/nmm7a+O+64w97j7/fff9/kTN/caPgf1sA88Sk0Hn1MIkIswJdT0WQtH3zwgZ555hnz5cQDSBeEtVKlShoxYoQRLMaByBJLSDLxUawLv7W3Wwxbt0nTV0YqBOu2ShtTpMOrRYLvzDXS1m1h9Zsita0aUreG0jPDpcd35N+av16au05qVVlavUX6coZUv1xYJzaIVGXTMqQxi6XXxkkv95QGTJeuab8j8gvXS59MlmqWkcoWkWavkeJC0gWtIxWJpDTp/t/CeqxrSHExkfcK7aLCEG155hpBeO6553T++eebY8BoEDgGidGSLXXt2tWcDGyfvylzQxDIVMlmIBewfX4IQgQtiMI777yjJ554wjIYnCRKhuKjRDirIHjxOQQBRcVp4Vhxglkdb7TBzS/jsWaMCNxwIuBPECKggw8EDeNbsmSJOROyIfpyHQZKBgSuBAcM8Ouvvzb5tG3b1nCHfBFwIGLe/okAzo4AjV4TJMCJjJKgS4CCvKGzOMR58+YZUaA688MPP1iAOvXUUy2gBA07InhD9nCMkGsqFGTrLVu21BVXXJFZmkXPyZDJ2Miyzj77bMvMCBC8RzAMKgPIG+eMXmArDzzwgFUO0A36EniYJ8Hx+++/t0BJFY6gN2zYMNMD7BTSyXzREQIqRGjQoEFm29yXqgkkJ7fIOfNBb/EvVBxZC36HasvHH39sAZ1ADX4QNXwRAYvKB+3ee+/NxB55gDs4k9GCCVU0gjaB8PnnnzffZoEhLc3uSR/8HiQFPCCJ4IecqA4E+IMrlRaIArYItlQ2wJZgD6GhL+uhkoceQR65D3rA3P7v//7PbB3Cgw5xH9aMfaJ/6CKVKu6N/eZ0Y25UQlg/+oAugXPnzp0t8DM31sR6qBqgU+gc9kKVBfKJ/iMjEjoIGa/gTLWNxHN/CMKKTdIPs6QLW0szVksbkqQjakoxIem9iVL7GpGth8+mSrcdJX06Wbp6p+C+dmvkOq4h0G9OlTIkdagpvT9JWpkota0uLU2U/tNO+n2udFzDHZGnIvDmeGnqSqlckcgWwhWHS/XKRvq9MVZqVF6qWkJGEMoVk0oVzmnpSblGEDAy2DBZCIwbB4RR4aBeeOEFUwhKYRguxoyRUR3A+XXs2NHKppSeTjvtNDMQWDnZDcQDJg05wBi4B8bL782aNctk85SjgpIm11MmxPjIqApCY58OB4ITw0kFBAEWDoNv0KCBkSqc+KWXXmqBjEZl5ssvv8wss0IIcDIQNWQW7PNB5k4++WT/T1F2o0w4eLJDyC4B46effrLACSnAcVORwVliHwFpJWBTCeMzyt8EGGyBrQl0HrL37LPPWkUC/LEPMjScLPejaoGuEwgrVKhg11111VXmnLFBHOuff/5pJDxoEAScMbZCwGJctuu4N84amWOfzA2STmWAbY4gELA2yEFwtoVxCWIQBIgpwZFgwfr/+9//GiHNjUbApSpw0003GSEmGEGW0GfWi88g2UCHqcDQyNYhyBACMOWVpAR58IM8+Zt1UMVhDxzSQ2YMuaMKdOKJJwrbY4sImSBP3odIQZaoTmTdZrjuuuuMIJA8MWfK6QRSZJVVTtgdwfHqq68228UmsW3IH6QjOFeEn6RaAkHAjiH+ZN/Il35BpSknZYCeUjEg4FPpICmBFIAD/pyGf2f+yIZtFvSV3+kD2aGKjA6CMX6KygOY7i9BYE+fswEzV0sLN0pbUiPbAARmqgqPD5POPCSsOmVCOu/LsPr1Dkr92xFjDAI8ZxAGz5P4u0pxqWEF6dkR0hWHSZWLszkg3fOz9PgJkSC/c3thtPTdTKl4POcvpGe7S3XKSDd9J7ENcuLfpILPKpbY/ndOyi7XCAL7eTgalPm4444zh0dWGuyZwXZxlpTORo0aZQpCZoLDRNn5jJIfhIHsCQUna8LR4TSDUi0OiGsx0NNPP92yJxr7ucFeL3vp7KOTIeBoD/YGEcMhY1w4apwTjgFGH5zrQCYYHuVunCXyAW8IAlkojgsSRjZAiZoSMyU9gg/GTiZM6Ta3HP6BJDN0GucMYcWp4fDJxMmmyOQoKUMOCFpkdThEnDiBlGoX+8WUVoOGLXAN+k0mxZkF9JstNwIJ8s261UMAhxicc845+u2330xOQeAg0HN+J2gQDgImtsLcCKic2WEvnGBF1YOsG4eObrAGbJr74vgh9tybbQvskIZucb+gsSbGYF650SAmBB18DcSYsyBsDzBHAhc+IthaodyPjJAPfoiSN4EZWwkaFTUqDFQQyGiDyk1QpcNugsN1+BrGBntsCjKA/CBNb731luEI8QoaPhG/BDGhmgD+zJc5YGMQAaoSVHnAjy1B+pAAgTH2i/5A1LBR3qNCFWwxcJ8bb7zRdCY3Kgjcj8QE3CGbNIgJpAoihB+CCKFHEONg+wN7gZDh79Fx+pCUoLvoF7KBpKFzfIY9MObebjEwHwI6bfoqaUNyJPO3MwZh6dHfpbFLpVd6Sc8Ok65uKzWIqHVm43qCNgTh86lhVSspjVwcUo9G0lczpCOqSe9MkN46Rbrj50jg3/n8ANc/N0q2nRGQh3dOiVQNaBd/IaWkRX4vUUjq1Tjyk9Mt1wgCC4FJo+Q7H7j6t0UGh1pQsMDoUAgCPI3MBaOBYAROkcyH/ry3q8Y1zKMgHFBk/VRlKD3iCCFTZJVUDSi1kk3C3DFGSpYEeAyYQJKdhrMDaycG2UFrxz5k+1m3DnYeIdgKIovaue2sw9gAQSsg1Dv3J/uCmAQHVdF/nOueTokTqAj0WTNNnDAZLK/InsZ4jMX9s3v6fO8Ri94V+CKydLDdHQasfXe+ivXib4IDifgp1o3P2Xm8YD89IEzIjh9s5t/O7NAH+yLQZx2T+3B/Eqhge4IkgPH3JM/oIZi9kfA16B6EjESDagJrDiogVI0hSRBG/DaNc2SQLNbNNZAhEkEqVhwipbLA2QPO1FCBIFGhMkFFaG8Jwtz10jXf/s0QsizpurYhrdokdagVObz4wUTp/NbSoDlSp9pSiSzl/YAgQCreGh8J8GccEgnkQ+ZKbWtIP82KVCQ4nMgZBM4zZN0i+Giy9OaEf2L6aW+pUnGpz7dS8t8EoXiC1K2BdEKD7Mlgf3rlKkHYn4n6tY6AI+AIOAKOwL8hsLcEwdH8dwScILiGOAKOgCPgCBwUCDhBiK4YnSBEF08fzRFwBBwBRyCPEHCCEF3gnSBEF08fzRFwBBwBRyCPEHCCEF3gnSBEF08fzRFwBBwBRyCPEHCCEF3gnSBEF08fzRFwBBwBRyCPEHCCEF3gnSBEF08fzRFwBBwBRyCPEHCCEF3gnSBEF08fzRFwBBwBRyCPEHCCEF3gnSBEF08fzRFwBBwBRyCPEIAg8HAmHjK1N//dcx5NN9/fNioEAaHwFDeE4s0RcAQcAUfAEcgJBIg1/9aCCoIThOigHxWCwFQQzJ6EF50p+yiOgCPgCDgCjsCOCAQxiEdo83+MUEEgcQ3+R1/Ha+8RiBpB2Ptb+xWOgCPgCDgCjkD0EPAzCNHDkpGcIEQXTx/NEXAEHAFHII8QcIIQXeCdIEQXTx/NEXAEHAFHII8QcIIQXeCdIEQXTx/NEXAEHAFHII8QcIIQXeCdIEQXTx/NEXAEHAFHII8QcIIQXeCdIEQXTx/NEXAEHAFHII8QcIIQXeCdIEQXTx/NEXAEHAFHII8QcIIQXeCdIEQXTx/NEXAEHAFHII8QcIIQXeAPSILAU7Li4uIykUApQqFQ5t88KIO/s763M2z0iYmJiS6a+XS0DRs2aNy4cWrUqJH+/PNP1a5dW7Vq1VJ8fLy2bNlisy5TpoxiY2P19ddfa/PmzTr33HN3uZrExER7IBYPH/G2fwjwMBdksLvGI2PR4d3paVYdDh4Ss7u+jIV8c6oxF9qebCpw4Dk5l92tcWe86JfVR+zsR/4Ns53Xu/O1WeeQE2ve2cft7v7Bw+uCdWbHN0ZbR2bPnq0SJUpozZo1Wrt2rQ3funVrlSxZUnPmzFG9evXsKbz4lhUrVuiQQw7JnAK+a/z48Vq1apWaNWumxo0b65tvvlFSUpLFgDPPPFMbN27UxIkT1aVLF/NNWR+UlJycvMcHJa3YLM1YIzWrICWnSTWyuLZf5kqtq0jli0rz1kl1y+4anb/WSJtSpNKFpJQ0qXQRqUIxafkmKXmbVLmEtHij1Lzyrq/nvvSjbUiWisZLCbFSycLSxmRp6kppS6q0MUUqFCe1rCTV2c1coim/XCMIo0aNMoFWqlRJn3/+uW644QZTDtrWrVvt+dlVqlTR0qVLTUlq1qyp0qVLWwBDGcqXL68aNWroxRdf1IUXXqj+/fvrvPPO0/Tp01WsWDG7vmHDhhYACxUqpMWLF5sSVq5cWR9++KGaNGmi9u3b25O1fvrpJzVv3lwLFiwwpTrYG4aHAVWtWlWjR482MgBJABscB1hBICAGGB8G9ttvv+0SFoychjy8ZQ+BTZs2adGiRZnBCD39v//7P11xxRWmxxdddJGWLFlidkDgxA6mTZumhIQEs4cWLVqobt26mTfDmULkDj/8cNN/PkfvsQ/soGXLljtM7IsvvlCHDh00cOBA/ec//zG7CxxpkSJFzNZo3BO5H3nkkWY73Bvbwx65F3bFdStXrtSyZctUtGhRFS9eXOvXrzfHz3wrVKigBg0a2Hj0wXljc+hLuXLl9PHHH+vYY4/V2LFjdcYZZ2QPwP3sxRoGDRpkPoA1Va9e3ebGfAlSzBf9Z44LFy5Ux44d9frrr5tcfvjhB5199tk7zGDChAkmK+SKHQXJCPdh/dWqVcvsD1a//PKLyYR7gy1YQQ7nzZtnssMOadgmP9dff719zlwCOUHIg35gB+7oVNu2bTVlyhSbB/3btGlj/pDrCKpz5861NUJE+RuZYcPcFz3LjcY6Az1BV2iQAEjDHXfcod69e5sez5o1y+Ry1llnGWmYPHmyXRcEfGzj6KOP1htvvGHyRG+xo+XLl+vNN9/Uo48+uk8EYcJy6X8jIwRha5pUt7R0RE2pYTlp2EKpaYWwisaH9OQwKTZBuqdjWLEx2xNSnv48bZW0YL00d51UvZS0LV1qX0OKi4kQhrVbpXf+DKtz7ZA2p0mXtd4RefpAAOaslVZskqqWlOqUkcoUlX6fJ308RdqcGukDQTiunnTl4TkvvVwjCP/973914oknWuY6YsQI9erVyxwNwv3qq690ySWXGIvEGWFoEInBgwebYaH8GCwOhWs6deqk1157TaeddpreeustXXvttcYyV69ebYqFM/3555911FFHWVDkM4wTQsE9UDyUDWf15JNP5jzKeXwHcMHRdevWzTDCQRUuXNiwGjlypGDpOG8wgUxRPTjmmGP0yCOPGH4QDBoVCIwag8URTp061fBEllzHmAScc845x2R6wgknGNYVK1Y0UobsDz30UAtkBamRxeCUCSS//vqr6fGzzz6r22+/PTNw4dQJpDhxAhfBmNf333/fcGzXrl0mZO+++645WHDFLrAdiN0RRxxh5I8sK2jIiDEPO+wwPfbYY3r88cftb2QOcbjqqqtM9jRIyjPPPGNkgswMZ87jah966CE99dRTJkvmQWDkeoI/9krwwrljp3Xq1LHx+Z1qArbMGBAY7P+PP/6w+7EuxsyNxv0JQOgqJAk8IUn4Ed5v2rSpBRZ0m/Xfc889FqghCiQkd955Z+Y0WfeMGTNsDVzLerEtEg6uZ6yAPDMmfofkiMBNoOQV+wFLyBwBPqjGMacHHnhAH330kX2GzsyfP18QEoIo72Ff69atM1tDhyB8+EJ0imQK2XEdgRX8kQWygdBACrhu6NChtraspDOn5ADRoYLAvEnIWAt6i27jY9Bd/Dikh4A/ZswY3XrrrUayggQSXYfMDBs2TK1atdLw4cNNLmB51113mU/bV4KwcovUf2pYjcuHtHKztDlFalpRalAuEuzrlZXGLJFmr5WaVZY+miS9d5qUhR9o6iqJCkL7atL3M6XVWyPE4IxDpColpdS0sEYuCunOwdLL3SOk465OOyI+YrG0OVmqUlzamCSVLRqpahxfP6w7f5VmrpFSMkIqFBP5vyjaVg/p8a45JbXt4+YaQXj++ect8DzxxBPmWAjsKDSZEAqA8sK033nnHVMgWPuXX36pU0891RwfRs17sHoMDMZPhaFv377maKhK0P/GG280o0OZyAwwZCoXn332mTk9GvcngBGsMOyDveEcyCQgXTiMwMFAEAgCZI44CwyZ33GQXAOhuP/++y2Ide3a1XDEyeFoIQs4LIJMnz599NdffxkBeOmll+zn4YcftkwIYgAhoN/ll19uVR4caUFsL7zwglWxCOA4bYI2NoBz7Ny5swUNggl6im7z/ttvv63LLrvMsIeoIafbbrtN/fr1MzliR8cff7zpN5U1SAbXQrwhJMize/fuln3SJ8jauRZ7I1vL2giQOOrAVnDSBDkCCuQcwhhUnbA5yOCkSZOsCoUdY2/IlzkQFGgQIXQEPYBcYLPoIRlfbjXWC4kCczAiU+3Zs6cFY4I8gRWSyxz5nYybz/AjZKnoN7Ii4JGRU2EBGwIxQf3SSy81bHgPnwJ5QGa8F+ABmaJRwUAW9evXt3GCBqEAJ+yHxt9UBbj3cccdJ4gmY0IeSYCwQ0gOfhGiCHlhfth1QDIhMyRI6Bf3RadYF9WrrKX8nJIDvhrdgJjgd9EhSADkAB+Cv7755putcoU/Zm7oIDJiLfRHFvgWbCPaBIGsfNRiaWuKtHRTJENvXimyFQBhqFIiEtwhBARv+h9bf0e0Vm+R1idL1UpEAvmPs6X6ZaRuDaUvpks9Gkb6/75Q6tkwrIUbQmpcYccxliZK45dKdctEKhAxobBWbA6pdmlp4grpvK+l1uWk2FCkgnBMHeminaoQOSHDXCMI11xzje6++25TYgzg1VdfNSNFgQk+NJzZzJkzzXmy3wRTPOWUU8ypwjQxnrJlyxqbJAPBaeF0YdBUG1A8CAXZyyeffGLEgoBEo5SL0yObgJRgmBhSQWg4EhwkWwg4HBwMjob149B///13c1ZDhgwxZ0ZFAEd+8sknG86ffvqpLr74YhsDh8l44AfhCLIYiAbEDPzB+r777jPjHzBggC644AKTO9scGDuOuaA1AjmBiBIz2PM3ThpSRpAh+EBaqXLhyMEfQkD5mIBDhQHceUXnCboEWQjc1VdfbZkxxAFnTHAgQNMIWIyHrOhLVYisHgIHEdyZrO1MECgB33TTTZnlbcYkQyVjIzCxJggkVSnskXVwP0rZNGyeDJHATLAgSKIr2D5BLzca6yXLJ7hAsJgvhBn80X3IEz6HqhhZKfZBAsL7rAvcsQ8IMYELOyKJoQ8E4LnnntN1111nWxgkQMiBPhAprkEG+CGCHTYHeYCAMx9kn7UxTkAQ2ELA9vCdyD1o+DmCJ9VVrmfLBt1Br4LgT1+uJ6hCIlgLugEWEA9kEOhVTsuAe2H36AzzoIpENQliSxJBhQp/zXzBBr8BriQX+BmIBZUUiC5ywNcjT/Tsyiuv3K8KAvl4yrbIvv+stVJiMtl5ZO+fTYQP/oycQSCg3/qT9Gy3yPmArC0jDJmTUtKl1ZulDyZJ1UtKpzWVnhkh9WkvFU/gvIt04TfSxydHKgw7t8HzpLJFpBZVJI70cESOObw7Xho4S+pS6+8rQpHth17bC4U5JsJcIwhkng8++KA5tfPPP9+cBoEI4yPTwLmQAWFYOBnKYygT7B3jxaHBeCn3YbQEGX5g0mRZ7E3B4inhkilg6GQ3GHJWgoCiUcnAMQZl1xxDN58MjOFRmcEowRNCxg+4Uw4lcEC8cCaU98CGLAmcdkcQYPtgGxAEtiq4HkdGGRsniUPEqDHyV155xcqGyITMoSA1HCJbWQT8YFuA7BtCRjWBQAWOBC4cIBgRpCCyQVZJ6TpokC221QgIZF84SkgZ4/Xo0cOuDw4/QogZm60GPkOmzIO+J5100j/EkJUgBFtxBDfGI/On4vDee+8ZwUGeOHn0isBEIITIY5+cWYDgQ2YooRPMsH+II/dHfyA2Od3AD/8BwUWvqQ5wXyowyAU8CJQQJ8gz6yRYEYC+++47I1pPP/10JuFhPLCjD9UGCB1bc+g8lRbsK2vigb9D97EFcMLnIVe2gtgC3bkFBCE460HAJNsGM3wXmThbo2wTQARffvll85fMHzLC/jylfIgDlR3wx5Yhc1RpIRwQhVtuucXsck+HSqMhH/SFdZBwQKIgWWDGHD/44ANLOvDfzAUbwB/hs8COpAPs6MM6iB2Mhx4SC/D99N3XLQaCe1JqZJVsE3AgsF11KSFOmrxCStoWOReQmiYdWUd6abT0Sq9dEwSqDNsypL7jZZn/MXWlm38MKzktpGe7hfXE0JAuaB05U3D19h3DzMG2btteIch6B84v3Paj9NjfWwrrkqS56w8ygoDCo+QoMUEE5Q4OrAAGfxOwglO3vIcSQRggETgZFIjMikyEvlwDk6YPDpWshTIcChiU2AID4D36cH8YKQ1nUBDK3QQJnAIBBYcXHH4DD5xckO0EGSoZIoEMeWGUYIpjQjbgTWMssCUTQhbshbL9g+OBKOC0GI/rkCP9uIa+ueGUouHYojUG+JO5oXusHV1GH8EVHQSToHzN52BG9kkfGnqd9Vs7vAdJoA/6G/RlPGQalPaD+QdjMw6yR47IZlffoAgOSjIOfZhPIC/WwNx45V7cN7Bb3gvIPvbJ2KybftyPvwkI6BqfB9dFC+N/Gyc4IR/4GfxP4CfACmwDfaUPNhLMnbVjA1lbIE+uA4/ALyFfrt35G1WB7MGUH+TKNbvCH3yCqgI48cN9ApkFsg50A13iveDbRRAPbJT3WDfypLFO7hfMhXvsrFM5JYtAN1hDcGiV3yFSYMmaqSiROPA3c2XuwTd4ggOXwben8CfIEBugL+caqDhjC/vyLQayf1p6WIIwxJO5h/hWQeQwYlqGRJfCcdKmVKlUoR2R4no+hyDwTQZIQokEKT42siWRniFtTZWKF4pUEpLS/lmF2BP2/SdLZ/y9G86YizdITSvt6ar9/zzXKgj7P1UfIT8jEHx9CgMtaAQgP8vF5+YIHOwIZP2K574QhAMBHwjI9u9N5N6MnSDkHtZ+J0fAEXAEHIEcROBgJQg5CNm/Du0EIa+Q9/s6Ao6AI+AIRBUBJwhRhVNOEKKLp4/mCDgCjoAjkEcIOEGILvBOEKKLp4/mCDgCjoAjkEcIOEGILvBOEKKLp4/mCDgCjoAjkEcIOEGILvBOEKKLp4/mCDgCjoAjkEcIOEGILvBOEKKLp4/mCDgCjoAjkEcIOEGILvBOEKKLp4/mCDgCjoAjkAcIQA4CgsCDloKHXfEwKR5Q5W3vEXCCsPeY+RWOgCPgCDgCeYBA1ift7ur2O1cQeOKkE4R9F5QThH3Hzq90BBwBR8ARyCcIZK0g8LhpKghOEPZPOE4Q9g8/v9oRcAQcAUcgnyDgZxCiKwgnCNHF00dzBBwBR8ARyCMEnCBEF3gnCNHF00dzBBwBR8ARyCMEnCBEF3gnCNHF00dzBBwBR8ARyCMEnCBEF3gnCNHF00dzBBwBR8ARyCMEnCBEF3gnCNHF00dzBBwBR8ARyCMEnCBEF3gnCNHF00dzBBwBR8ARyCMEnCBEF3gnCNHF00dzBBwBR8ARyCYCBPRQKGS9MzIy7EmIsbGx2bw60o1reHJifHx85pMUg+cgJCcnZ+tBSWEbKDLe39Ox31PTpbgYKSYkpWVEfv+3Ft7FGFn783l6eM/j7BUAOdg5VwnCuHHjtHnzZnXs2FExMTEaO3bs3wIJqXz58ipRooTmzZunihUrqnr16kpISNDkyZO1adMmHXrooSpcuLBWrlypqVOn6sgjj7THZ65bt87+rlmzpmrXrgXB6gcAACAASURBVK0NGzZo1qxZqlatmqpWrWrKt2XLFrtvpUqV7H4ozdy5c3XIIYfkILQ+tCOwHYE5c+aY7rZu3VpFixZVUlKShg8frjZt2qhcuXKm49OnT7ff69evb5//9ddf1rdOnTpmC1kbOr9+/XqzJXR8xYoVptMNGjTI1POgP/dl7Hbt2tl4OFPuXbZsWbVo0WKHcRctWmR2hg3OmDFDGzdutM+Zd/C4Wuznzz//tH41atQwB4zd8mAa5s77QcPmt27dqk6dOgmnPX78ePuodOnSaty4ca6oCOudPXu2+QD8CHgtXLjQ5NGwYUOVKVNGixcvtvdatWql4sWLG0a///67YV+3bt0d5sl68DElS5ZUrVq1LKCxLh7Kc/jhh1ugChpBb9myZfbTrFkz8z1gzCt4Ii/uFzTGYY60xMRETZw40fwa98namDsNfWE9yBMfmtWn4fdmzpypYsWK2ToJpNOmTbNX7lukSJFcwX/BggWmd9wX7Gj4ZtaPHqGD6DKfIwdkEAR4dCouLs5+kB86u2TJEntF58CUMVnXEUccsU8EYVOKtGqLVKWElJYulfxbfaeukqavkkoUkjrXljYkSRWKSXE78ZfVW6Rpq6VtGVJymhQfKyXESK0rSyULRa6D83BZkYSwtqWHVGS7iuSKDPb1JrlGEH799VdzeDg+HMMJJ5ygd99914yKIH/UUUeZwQ0aNMiUGWeG0xs9erTS09PVpEkTIwWDBw+291CGtm3b6uuvv9batWtVr149UzSUCMNG+Xr16mXjY6RTpkyxv1G8AQMGmOE99thj+4rbAXcdDg8sMFQahgcu4MT7YEzDmeBYaBhlVmd/wC06n0yY4ECgxPnhwAnqP/30k7139NFHm65Dlgk6OPwOHTpYYP7ll19MRqeddpoR5qARyLgWe4JgEFAGDhxocsOOWrZsabKjEYjoO3ToUAt255xzjr744gsjE4x57LHHZhKKpUuX6s0337Qg16NHD3333XfivTFjxuiZZ56xoI4Tx0H/8MMPRuixQQLUzz//bDrVvXt3Cz407ssPNt+0aVOz2RtuuMFeIRb0zY1G0gDe4M98uTfzJ7CzVpIJAumECRPs95NOOkk//vij+QzWctZZZ2VOk/XPnz9f+DPWzRoYF4zA/Pjjj89cfxDkwZGADtbYF/4L+SJbfBLzoTFHZPPGG2+YLD/77DPzbQRBgmaQ4HAdPg7Z4hNHjhxp/gxSd/755xuZxN4JzHxGAEXPsHP8Z4UKFew67ru32fq+yGvEiBEW0PHNq1atsiHw1ejfE088YXitXr3a9L5fv3569NFHbW1ggO2AGSSOZPGwww7T999/b2NBYB966CG7Fr3lur3dYticKo1cJBWOkxqWk5K2SbXLStQ0PpsmjV8uLd0o3dheKl80Qhi6NdyxyjBjtfTCqLA2pIZUvpi0aINUtXhYt3YIqVqJyN9jl0qd60hVSkYQpCJxILRcIwg333yzbrnlFmOOH330kSkyDeFiMN26dTNnhOAxaJxP//79zYBwoJdddpkuv/xyUzQY9XvvvWdZySuvvKIXXnjBiAXj9OzZ07IYrkXhMKbKlSub8WHoGMlbb71lRo7TKwgNAoZDwShxTAGbx4ngdPgb4oQhH3fccebQcUwQNpyJt/1DgEwHvcUZo6cECmzgyiuvtMwep0ZwJYjSFwcfVMdw6ASdrJkhxPb22283Yv3II4/ommuu0TvvvGPEGxIAAQkqDmSkBHYy0AceeED//e9/zdbOPfdcuwfBOshOqXJgE8ccc4zOPPPMzEU/9dRTuv76643AQNTRk+XLl9uaWAuBiCBEkCLAEniwOeb48MMPm45hq99++635AHSMeRKcc6PhUyDA+BfmwH3B+eKLL7aAif5DqsDjySeftLV+9dVXRiYI7sw5aGBO0KpSpYqtF3+GLyI4E8Qga9gZ5AHfwz2pGDRq1MiIBIkMdgWGEAr6Bpk840A0Xn75ZUuOkNfrr79uWTYZMkkVhJ37BmV17kfApMLD2tAFqlFUMbg/1Z0//vjDqhHICLlAKnkPHNCNnGz4GPSKNRPoCerghO5AhsGBNaNb6AREGRLJOlkz17Vv3970atiwYUaUqJY8//zzRhbuuuuu/SII65OkMUuko2tL/J6SJlUuEakCDFso1SotLdsoDV8k9WkvPTJYevyEHRFLz5C+nCENXiAdUkEat1Q6q5nUtV6ECCxYH9bQBSGd1Tyy/xAbIyXEHhgMIdcIAkzxkksuMSWh3IdCo7Q4ShwSBoQiYXwYM4oMKzz99NPN4eEkzzvvPF144YXGjmHG9IEgoCyff/65GfVNN91kivPbb7+Zw8SAaRCGwOnh3J599tkCQxAgQzidO+64wzJHmDkGiZMkOyVIfPrpp1bqxHnjuCBUZB1BxSEnnUhBGBsChmODvBJMcIRkcThtsmx0nECyZs0ac4I4eLJOql2dO3e2DJfsC6dOwMZuIHHo/9lnn62PP/7YSuFBoELmBClKt6eccooF6Q8//NCIOcEackIAwSlTdQgaBIHtusBWyKQJItwXMgOJ4ZUfAhEE8uSTT7YgBhkJxsI2sVXmhw1CcAhsjMecWB8kJbcagf2bb74xXYckUwU59dRTDTcwIAgRYJlrUIEB8yFDhujEE0+09ZG44L/AGRmBAdggD0gRAY/PwYoKA0EOGUPWKP8T9LEtZEEFg3HAM2u77rrr9NJLL5ms8VEQFgIjyQ/+kzmwvQRRow/VBeaAvKniYL/YMXbLK/ZOUIbs8Epgbt68uRFKqh/IKScbvpr5gg1+h8oAc4BggcVrr71mZIcf8KFKcO2119pnkAfIK1hDrNAffgePvn37WszYX4KQEY6cM0hMloYvlIolRDJ9zhqMWiKt2CQdVk2atkpauVlqU0VqWeWfiH06TXp0mFQ4ljMR0uNdpa51pXFLpO9mSee3jIydkSEt2SS13V4QzEn493vsXCMIZBNXX321OZSrrrrKthcIShgOBIEzCThIlB5lhzGiWBg0JagXX3zRghlsE9Jw3333mSLBuhkb50Q1AgeJsUIYIBXBHmtBJggQAaoskCfK0mAMSQIvSskYJ44ncC44PJw+Buht/xEgEFM5IEOFGOO4sQUCATbQtWtXI8WUtAmkBCmyJwIMes01BFUCG9tvfIbjxJaoIFBdQ98JLjhZroNoQBDIIJE1BAR7we4uuOACc7Bk/oxFoNwdQXj11VeNgJD1BZU9Ag3BDV2iMhUEUOYJAYL4E6Ag7mxpEBzICvkbEk9lj6yXbDc3GkSGdUACuDdBn8CJ7vMKpgQj8KIiQsCl0nL33XebvwnWTiUCf8UrmS0BC98EGejdu7cFfrYFsJ1JkyaZvCFbfA7ZhlBQvSHA4e8gUzv/N8QBQYAcUimibI4fRIcgHugA5Ap8mRsEgYooWCJnfujH+FQsIA2sGSLy/vvvm19lngTqrNWLnJQDfoZ14qtp6DvbOegVFRzwhDygUxA2SCqfU32BEJCsIBvkx3rBhsoO+gbZwZ/t6xYD8yGg/7VaGrpAql9OalxeqlYq8v69g6RyhaXLD5Mu+DKsfmfs+vzAZ9Olx4dJRf4+n/DIsdIxdaTZa6Snh0tH1qBqIEFI0kPSBa1yEvHojZ1rBAFmiHGhCOyhdunSxbKiIAihACgtjBPnhkIFp1v5nc9gnYwDI8dZoSCQCRwQ5VtKdYyPMyW7ooIAW6WhbBgHjbGoVqBsBaFhgDgZsgWcJdssBBEwg1Dh0IOtBvAg0yXz8RYdBIJ9awI6jh3ccYxgDjFAD9FbnD8ywrnj9IL9WrbU2HILGvLD6fLKNWTA2BKyJHCh84wRNIgAfbEByDhEBBJCVYNMDbsMGtU95hjYCpk2c6IfW0/YIvPC1rAx3qc/4wdzx76wUfoFB/awSeZJUA3OtpAF50ZjbgTs4IAi86JSCU6QATCD9LBmcEY+kAj2yPmc9WWtpIE9QQq7QjbgAh5gDqYBdqyNPuAdZPRkwpAS7C9rvwAH5kkFgzljs+gIfSGVYIlPDGQLprxPdQF5ol/cH1JIP3QDwggB4hruy3y4hv65UR1E9/G1YABRgugwH/SsT58+VumFsEJc8eUkiZBKiDKxABIKFlTZsJVg+4fqFFUYto2p/KCnbAXt7RkEqgJfTJPaVotsLXCo8PvZUo3S0vz1UqFYqVbJsP5YHFKzytLyjVLv5pEzC0GbslJ6ZkRYs9dKwc5B4wrSHUeFVL+sdNuP0l9rI+SArYvTmzhB2KXdo7wIO+up3T05CJQEoeNUAsJAQMOoaSgcffg8MBwcFEae9TTxnu5zsH8OTgH+GBqOEDxz45DSwY7tvq4vqx7vagwCD/LZ+RsMgd6j54GTxwb42d2hUgID5e/AhjjzgL0Ehxn3dg3cCz3aOQPeeRz6oXvBGvgdMpSV8OztvaPRH1vAr+wK22D8IJju6n74MbAMrg/81K58Dp+B994GZLDiuqzJ0u7WDqbId08NnQm+FbCnvtH6PEjaeEWfwQ3dgfxAYKg6QV5J+mgQnIBs8jnr4jPsBYIFiQjO60DQqJqgy5CevSUIfOuAQ4R8g4FvK9CWbop8C4EDjOWKSiUSpDnrpLplpCUbpeqlIucIgrYhmXMG/0SrXtnImPPWSRtSIt+i5LKqJaRK27+4Ei2Yc2ScXKsg5MjsfdC9RmBfv2u81zfyCxwBR8ARyGUE9pYg5PL0DrjbOUE44ETmE3YEHAFHwBHYFQJOEKKrF04Qoounj+YIOAKOgCOQRwg4QYgu8E4Qoounj+YIOAKOgCOQRwg4QYgu8E4Qoounj+YIOAKOgCOQRwg4QYgu8E4Qoounj+YIOAKOgCOQRwg4QYgu8E4Qoounj+YIOAKOgCOQRwg4QYgu8E4Qoounj+YIOAKOgCOQRwg4QYgu8FEhCAiFB1/wHXtvjoAj4Ag4Ao5AXiAQxKLg4VQ8GIoHL+3pgV55MdcD4Z5RIwjBk9UOhEX7HB0BR8ARcAQOLAQI/ntqQQXBCcKekMre51EhCNm7lfdyBBwBR8ARcARyBoHgf4UMHr/PY6q9grB/WDtB2D/8/GpHwBFwBByBfIKAn0GIriCcIEQXTx/NEXAEHAFHII8QcIIQXeCdIEQXTx/NEXAEHAFHII8QcIIQXeCdIEQXTx/NEXAEHAFHII8QcIIQXeCdIEQXTx/NEXAEHAFHII8QcIIQXeCdIEQXTx/NEXAEHAFHII8QcIIQXeCdIEQXTx/NEXAEHAFHII8QcIIQXeCdIEQXTx/NEXAEHAFHIAsCPLQoFAopCN58FB8fb+9t27bNfqcFD9vL+tRDntDLswx45f2EhARt3rzZntrL9SVLlrTPkpKSVLx48cx7MG52n4OwLUNKSZMKx0k8iyk+dvvkN6ZIxeKluJhIn0JxuxZtcpqUzrUxUkwo0n/n9m/XZ+2bliHFhqRQKPIuc+I9flLTJeZbJE4qlpDzapZrBAGhIsTChQtr3bp1qlmzpjZs2GArRMAxMTEqUqSItmzZopSUFBM2f2/dutUEHTwuc+7cuXbtihUrVLVqVeuPMnB96dKlbezY2Fh7r0SJEnY991y9erVq1aplirVs2TLri0Ly6s0RyEkE0LmNGzea7qGLRYsW1YIFC1SjRg0tWbLE9BIniC7jLNF9+qPTvI8T5JqsbdGiRSpfvrzZSrFixbRp0ybTe5xwmTJldujLPei7Zs0aVa9e3Rxs4IzRf66jYStr1641W+Oe/I4NYlPYGvOhYVvr1683h816eMW2g2uxu8DhBzbOmljb0qVLbS6sr0qVKjkJe+bY+Jfly5cbLsydOYMrGBBwWCvY8Dt9WT+YMT+uw99kbawpeLQ8+IAfPirwU4wTNOTD2NwDjCpUqGCyCnwecg0CJHPivvXr1zddASMagRCMuRctMTHR1sF9wRrcgzGyyp77MQb3CHwic6Qv18XF7SbaRVkqM2fOtPsF82H4Ro0amd4OGDBA3bp1szVMnTpVixcvVq9evWy94AYmo0ePNlwOP/xwdenSRY8++qj1Y8wXXnhB2MKbb75p7+9LBWHicumTKdJJDSUIwWHVpJKFpCLx0t2DpYtaSA3KSn0nSJ3qSA3KbA/eAVTfzpIWbJTqlJQqFZdqlpZKMMbfEG9OlT6bInWsEyERdXYTdjYmS3PXSnXLSqUj4tbyRGnyCmn+emn0UunPtdK5jaXbjoqyoHYxXK4RhI8++siU9ZBDDlH//v31/PPP65tvvjGlQYGaN2+uunXrmjIQwI844ghzlPyOQeJE27Vrp2uvvVb/+9//dP/995tCoGA4Ocbp2LGjhg0bZkY4bdo0nXjiifrpp59MqT744APdfPPNZsT8fvTRR+uvv/7SNddck/Mo5/EdcEYYG0aI08P4IEw4/tq1a9v7gTNq2bKlJk+ebMGgadOmZojVqlUzp1SxYsU8XsmBeXuCBHoYEGQc4tlnn21O7d5779VTTz1lgXP8+PHmNHGEI0eOtN+HDh2qk046yXQ7aJALHOM555xj+t6zZ099//33FlgIeqecckpmX+TK+BdeeKGefPJJvf3223r99deNKEBImAsBkTZp0iQ988wz5qDPPPNMu0f79u01cOBAmye2Q6CDnH/77bcW6CE5hx12mMaMGaP/+7//U+/evdW1a1cLZtgyNhaQiBNOOEEPPvigrR1/gA/IjQYG+Az8AGvEt+AfCJr4GOb1+eefGybjxo0zH/PQQw+Zv7jrrrv07rvvZk6TwIzfCgI/9oJtBDYGnthL0EhokDPvT5kyRWeccYZ+//13IyNg1KZNm0y7mjVrlslp1KhRRtZ+/fVXkxGE4sgjj1SDBg3MLn/55RezX/BHL5grayLwn3zyySYn5gP+rBeCgwywZWwdu+Y6rs/pRsAGK165P2sJGvMAF3z5l19+aSRg5cqVuuiii8zff/jhh6Z/6GLlypVN11u1aqXhw4frtddes5iBfMBiXwkCWf3IxdKQeZFZUQmoWVI6uq5UpXiEJCxOlFLTpEdHSdNXS+MuDSuBFP/vtj5ZWgKXC0vfzJLKFJVWbQ6rd9OQDvnbZf48S3pkuFS6hBQXkr7qvSPyyzZHrp+yQlq9WTquvrQmWapXRnp9nDRsoZQWjlxLa11FuqdTTktPyjWC8MADD+jqq6/W7NmzLRjh1HBmEydO1B9//KHrr7/elJm/YbwozzvvvKPTTz9dHTp0sGB/xRVXmPNC2QYNGmSK//LLL9sPRvvDDz/oP//5j1q0aGG/N2vWTO+//76uuuoqM4abbrpJnTt3zqwk4BQee+yxnEc5j+8AEXjvvffMkR1zzDGWDRKAcEBXXnllpgxwWM8995xh3Lp1awsKXAeOBDecj7d9R4AAERBXgsDxxx9v5HfevHkWKCBxf/75p8kH/Z8zZ47hjw3gDGlkk9ddd51eeeUV609QPu+88yxo4FgJDuXKlTMbofE+ARz9x4liQ23btrUgFGSyZcuWzVwUBAG7wilDKM466ywbCyIwY8aMzHlQhWAMAl29evXMrr/++msLZI0bN7Y1XHzxxTZPfkeHyBAZC4Lz22+/6bLLLtt3MPfySnBhvuBPkCFYscavvvrK1nvooYdq/vz5+uyzzyxpgDgQyPFJ+CYCLo2EhbWTAUOkydhJVJAJOIApRDrIZLE9gj0BbtWqVUbksLPzzz/f5oCsIF00qgbc66WXXspcHQSLgHjJJZcYWaARRJEZ13PPCy64wJIe9AE5MQfu9eOPP+qGG24wX8k8WF+dOnWMTDBvCGhON9bEvcGfxBD8kT+JycMPP2yEEeIGOUaP0Xd8ELGBBsFinujQiBEjMgkC5BK93l+CsHKz9MMs6dSm0sw1Ehl8u+oRYjB6sVSvnPTq2EiZ/+rDpf5TpBu3c3Wb4/jlEeJwehNp6UbpqVFSp5rSmU2l+RukumWkaSulp0dJ754s/TJH6tFoR+S/mSOt2Syd0kjKCEe2D54eKV3VJqz7hoc0cNb2/myFnNFIevrYnJZeLhIEshgcBtkLzJYMBEX++eefzQHSBg8erE8//dQUiiyDrIRsCBZJcMIQevToYaUxlKVSpUrq27evnn76aXNO3333nZEQHAAOCEf1ySef2H0xxD59+pjT4z3YOAZUEAgCAYhsEEeGg8OR4GBwdAQO2DpY4/TIJnE24I4DIvMAX8hVw4YNc14jD9I7TJ8+3fQbvQbTCRMmWDClVA8RQB+pMlDdOfXUUy3AEEyQC8EEh4qzRfchwQR7skECMDZBYEP3kW9QvgVK7AtCQNBCrtgQf0PKqdyRtWatOGQlCAQXgiWZHYGFCh+Nsi9rgehDID7++GPL7pgzgZb5QvIJwDhyqlbYJOQHoknQpeqHfeZGI7gTaKh8gDnBiDWBM0kC+s8cqR4QrLABAtQTTzxhBAjMsBPWB74QbQgc2FHmJoMnsEMCqGheeumlRiiCqgIyw/8Q2L/44guTMQEfckf1AnIYNIhGQBDwj2PHjrWKBDKlQTawZ+519913m11SjbnnnnvMJ0IYkBVkAPJDFQSig54xf3wm82K99Au2l3JSDtyb6gbkgCoNSRu6gT6RvOGTIQ/oBnpJ0Gd9QfWJqglzZwxwR/cYg7XuL0EgGCcmR4jBnHWR3w+vJpUtKiVtiwR4XisWk0YslDrVlurvVHhhDAhESoRD6tk/pDaVpe4NpAd/k/q0lyoUk5YkSmOWS51rRMbfuQ2eJ5UtIrWsEiEJnEGgYDBkvnTLoO3bGhWKSNe0kXrlgvnkWgWBMh1Gh7FgZLfddpveeustc45kFxgpAidoYQAwXEpH/GCklKkotWKAODuM/bTTTjOnhzLRyAS4B9fAoOmP04WBYhQ4YVgnBAFGi3HkZhaTk0b4b2ODNyU5jAtnQyYHiwePTp06aeHChRoyZIgFIZwhJI1sBdaOUbLHR/n6uOOOy6slHND3hWgReHGOZHgEZAgb+OM8qaahpxACiDBla/SdoMYeOGVY8A8aDp8AgOMkiHTv3t0CHbIlkKHjBCQa15OB0sjyCSoENGRNNYJXdCBoWQkCFTz60Nj2gLhDLqg+vfHGG3ZfbJaARzWKwEsAZv5UPCAnkAnmiT1C0LF5AgW2m1v6RGAmGIM9gRZswJBX/AxEhWCKP4C4QOIItmBLQGZrM8AfuUDukA2fgx1VT/rhpyBGbCMEuLFugh+EnPshI4gIDaIOSQHDXREESAyVUYgf4zMW40PssEnkefnll5svRB+wWeTDPLg/BAZfiE9F1/CxBF2IJUSuSZMmmWcXctLAwBI9wA9RwWX++HB0hCoCv+O3WQPzg5hSZUFGVDNZN1ttbAsfddRRplesD71+5JFHbNx93WLIuu7pq6QNyVKHv4+ccG7gu78o20mtKkfK/LXLSF23i8suDwgCr7S3Jkg1SkrH1ZMeGixVKiVd0VqavFwatFg6vYHUeBe7tXPWSkXjpaolI4QjOKT43sQISTgmws+VniGVK3qQEQQUhH0m2DfnEDA6sv+gwWapFASHfQhMODu2CjAUjBZmzx4qJTnIAE4LQ6GMSnaLAlFGRAFxfDBzDAtFw7mReWHgOD6Mlb3SnQ905aSh5NXYrBknhgEGzghSgBHiUMhS2APH6CAIlPlwRAQADBanCmlDZt72HgHIGHrJdgKYk3UTZAkQNCoAOMBAJugte904eBwnThVykbVB+NDdY4891mRFdo6scPqUkLM27I7sDBvBZsj8+/XrZzbAmYGsjXliX5BJbAvdYJ5U4XD0bPehS1QBCKjoRkAwqAwSYBmf7BD7JbslcLG1gQ9At2gEa9adG435Q6Bo+AWCDNsDEBV0Gl9CxREiQWOrBvkQXJEDNpG1QbDBgPURaPFLVC8JZFwbHCbkGrCgxI8cuTf2Bk5cj1yRSXD4k/4QRaoKNGTGnLgODCEC3It5Q1CoyuBL8Y+MiW8FZz5DhsydKik2j9zRP+TGOGzZkgDkRqMKBklhrSRq+CN+0DHWSMJGZYM5Ihf8Mj4czCBvzBfyCU7ECOTCtWDFlilEgQoD1+3tIUUCMd8KoK3ZEjmDUL1U5FsEkAXOHnCIsWapsOqWC2nI/LC6NwxZZh80xoAcxMZEKhBz10UCOIH+9wXSjHXSiXXZfgjriFohzVgZVrPKoUwCwDgEfb6lsHNLiItUEW787v/bOw/oqKotDP8TQpDepYVeBUSk9wcIgoAiFgQbKmIDfdjxqSgi+mwoFopdVECxi6jIQ1BA6U1EqoD0QBKEJEAg89Z3hhuSCCLkJkPZZ61ZkJl7zz3nP3v/+9/73LkjDWkfUiA7EgNaFiN1qJr1q5dtFYSsn4pd4WgI4DwIMErVaUnsaOfZ54aAIWAIZAYBuIdkzfsGBn0hegn63rdMMgoW7zMSF+9GULbneCFOvW+SUIVGfHjf4oHf/unXHAm5hwvMCISUFIkv7vC1RS+jP1gkSC8QmMzBjD9hX0gocJ9A2habeGhb4eDtQekFAiLjMAIhMkdIIMzeINU7qOe4sZItEQRIVjcTCFmNsPVvCBgChoAhkC0IHGsFIVsGdRJfxATCSbx4NnRDwBAwBAyBQwiYQPDXGkwg+Iun9WYIGAKGgCEQJgRMIPgLvAkEf/G03gwBQ8AQMATChIAJBH+BN4HgL57WmyFgCBgChkCYEDCB4C/wJhD8xdN6MwQMAUPAEAgTAiYQ/AXeBIK/eFpvhoAhYAgYAmFCwASCv8CbQPAXT+vNEDAEDAFDIEwImEDwF3gTCP7iab0ZAoaAIWAIZAEC3g+Q/V3XHMMDlHgKIw+F4+mdPH2ShytZO3YEfBMI/2Txjn14doYhYAgYAoaAIcDTDL3nGB4ZDRMI/lqKbwLB32FZb4aAIWAIGAKGwLEhwGOWeWWsIPCDYtaOHQETCMeOmZ1hCBgChoAhcAIiYPcg+LsoJhD8xdN6MwQMAUPAEAgTAiYQ/AXeBIK/eFpvhoAhYAgYAmFCsm9YGgAAH01JREFUwASCv8CbQPAXT+vNEDAEDAFDIEwImEDwF3gTCP7iab0ZAoaAIWAIhAkBEwj+Am8CwV88rTdDwBAwBAyBMCFgAsFf4E0g+Iun9WYIGAKGgCEQJgRMIPgLvAkEf/G03gwBQ8AQMATChIDfAoFnMwUCYZrMCXDZbBUIQ4YM0dq1azVq1CglJyfriSeecBDkyJFDderUUbly5fT555+rVatW7pUzZ04NGzZMGzZs0IABA1S0aFGtXr1aDzzwgMaOHevOW7p0qUaMGKEuXbqoY8eO2rhxo1577TW1a9dOLVq0cP0nJibq119/VYMGDdx1ucbPP/+sZ5999gRYguwbAjhu2rRJjRo1UkxMjN544w01adJE//rXvxQIBPSf//xHZ555pu644w5FRERk38BOgyt9+umnzubuuusulShRwj0G9oorrtBLL72k6OhorVu3Tm+99ZZq166tyy67TLt373Z+gk9g27lz506H0ujRozVz5kyNHDnSvf/TTz/pww8/VK9evVS3bt10x/7222968skn3bUKFCjg/IE1Pvfcc9W3b990x3733XcqUqSI6tevr3feeUdr1qxxn995550qVKhQ6rGbN2/WDz/84ObgtcmTJzsfpV+vPffcc+JYz9cg8D/++EMLFy7URRddlC0rv3fvXufzcMWgQYPcNSdMmKC5c+fqmmuuUeXKlfXjjz/q448/1n333afSpUu7Y6688kr17t1b5513XrpxxsfHC/wrVKigCy+80PnO4MGD3ZoNHDhQefPmTT2eh/bMnj1bX3/9te69917ly5fP4fbZZ5+pR48ezhfTNnC65557FBcXpxdeeMF9VLJkSXXo0EGVKlVyf3/xxReaN2+e8uTJo+uvv16LFy92tsC1Hn300dTutmzZ4sbJut10003u/Zdfftk9dhgbS7ueWbkQL774oqpVq+a4hzWg3X777SpfvryICffff79WrFjhOAc/gYdo2Arv4xvMDe5u3bq1XnnlFVWtWtXhAPdv27bNcT59HY9AWBYjTVolta8sxe+RmpULoTFyljR2qVQ6rzSss7Rtt1S75OGRmrle2p4orYiT3l0oRUZII7pIg6dLv8RIz7aWlm6VBqY3pdTOxi6RXpsX1IGglHxAyhEhRQSkDy8PCJHy8VKpeB6pUC6pXlmpaO7sES7ZJhAgrscee8wZRbdu3Zwh0HAqjKZ69erauXOn+/vPP/90jjRp0iTnnIiHp556SjfffLNztIsvvlh33323I9vhw4dr6NChjnAwFJy7WLFiznC6du2qpKQk57DLly9Xz549tWTJEudYPKMbZ+G4U73hWDja9OnTHa5XXXWVw4ugg2OBE4ILRyVw4aiQpjV/ECB4IwLKlCnj8Ab/2267TW+++aYL6m3atHEBCtJeuXKls3/8ADudM2eOWrZsqXPOOSd1MATxevXqubXq37+/Czzvvfee+xe7LlWqlDuXRqBBICAaLrnkEk2cOFGXXnqp3n77bRHofv/9dycQvcBDgOrXr5+6d++eer1nnnnGETqN4ELAJShB2o0bN3bPvn/33XcdcSPeO3furMjISPcetsVT7BCj9IvguPXWW915BNWsbgSM2NhYh0NCQoILmMwXTBgH8+cYhHHx4sUdno8//rjD6ptvvtFXX33l+MprzBW+wkdY1xo1aujbb791x+AzU6dOdXNGNNAQQ19++aXatm3rfJC1gZPgtDFjxriAV7NmTXcsuCEI03IS40bYw49ckxf9sA5wXVRUlG655RYnDOC5/Pnzu6cI7tq1y82xVq1abh5bt25164So4dqsIYIjq58wCLZcC3vghc2S+Hn4IILAGHu99tprnXAjTiA0wYm5I6gRSfgIdgyPkTiS8GFvJDvHKxD2HZCWb5N+i5G2JkgJyVLVIlLd0lLxvNL+A9KiLVLCPunc0lL/r6UPuqcPzlt3SzsSpTPzSgs2SbFJUqn8Ut1SUlRkKOD/uFZ6/qegxl8hjZgd0AMhl0ttiIAxi6X8uYIqnT+gEbODGtAqoKpFQ8KEa4yaI/VrHDolby6pbMGs9h4p2wQCJINIIEBhMIULF3aGjLMRtK+++mpHHjt27HAZDgYCqUCazZs31/nnn+8U9w033ODOIxvDqcmgEAjjx493GQCiAVWOo+JUOCQNIr788sv10EMPOaVJVsMxiIbTpUHqYE2A8oIHjkV2QgBC4ZNhESQgGmv+IgDZQdTYJWvRrFkzR4KzZs1ygYKATQUM4sc/yAAJughixIXnNwhlBB2BD/snC0YoIy44lqwWgQEJf//9905kQ7Ccg71TXaN/+mS9+TEbr7H2BClPIDAmrzKBqCCjJqgS/CH0KlWqOPHN9bgWQQf/xAcJRtu3b3diBN/DXxkD837//fezRSB480IkgzkVSMYIzgRyxsHfTZs2dYGGKggYIp4JxARexk+gJrgxHxpVEgIwWThBDgwI3uBHQKMvGiKK4AefwTle5QcepPpywQUXpKsOIaJIXLxzqRRMmTLFCUr4kXXjXwQh60oVBnvAjhAN2APjQiAgYB588EEXWBk/5/KiSgW3durUKZUf/bX0Q73B5R999JGrIMAxJH1ULRFj2AljBBuEAf+H/8GFcSIcEAEIWmxyxowZqQKBahgiObMCYW289Pq8oPo1DmjldmnnXqlRtFQgl/TiLKl5WalK4aAGTZPuaxHQD2uka+ulR2t9vLR5l1QwlzRusdSwrDRvc1BdqgX0/RppcUxQLaMDTjjc1FBavEVqVTF9HwiQEXOCmrAiVDmgvdRJqlk8oLVxQc1cH1DjaClPVKjKwCHRBbN+7yPbBMIjjzziFPv69etdIP/vf/+rZcuWOaKh/Ekjq6UcB2GhFClx4gBkGxAbgY3SJxWCTz75xDmpJxAwJgiK43AA/saAKlYMrQQkB+nhfNddd50jV4wSxztdWlqBANFB1g0bNnQOu2rVKpUtW9YFJY4jyFjzDwECEmVubBDywx4RvJRPIW8y0QULFjiih/gheAIO5MoaERAQAPgAGRTZNxkxJXwIFX+ALMlY58+f78rYnH/22Werffv2rnJHIKPyxvYdnyNYyC5vvPHGIwoEMjUECNsOXjaIz5IxE/AgfvyYOeC7BFuyb67NWBA7zIktCkidCiDHIOiZQ3ZsZRGICC4EShIE/g/uJB9UVOAI1uT11193HEVSQZCljE1wRlyxXswHzgE/PsNPED3gSpAmWyf5AG/WBcxYE7BhznAfWwFcC8FExQ4cESdeSysQ4CjWkutRKaB5vzHgVQ5IiDgOH0akMW7+z1jhNwQda03gRZQQmL2qApUUuDSrG/OnakBChhjg/1wXm6TqRXUNUYVwRkA9//zzbisakYXogZOwI+wde0Y0jRs3TmeddZbbYslMBYG5r4lFJEixe6R9+0MVhC7VpWrFQgG/chGpUVmp7wS2DYKKzJE+MKcE2Q6R9h4gyIcqCZGSmpaT3pwv3d5ESkomoAc1fHZAfRsdfntg+BxpyuqQ0KC/R8+TyhWUZqyVHp4a1DvdQteNS5LWxUsX1sjqlcvGCgJZPooVI0VlP/30044kuG/AKz9BiihOiBJljmLHeHBQSq0QJ+eQnWAgffr0cUKAPVqM0CthkS1MmzbNZcYQL43MgMyJ4yBayA7FSknxdGmIAF5gzv4dJAOZsCasB2IMRwQXyp3W/EEAe+T+AjJnMiGqMwQHSsNUDwjwrAs2jjCj7EtGii/gEwherxLGiAg0BAMae9lkWAQ6slEaxOvds+BlaZxPNQI/xP+o5rGVgVDEBryGEMHf8BX8DwFBeRwbYTyMjQoC1QyqC5TVIXH6odROsGWeHM+cCZbMl+sSnBFKED6Bj/l7gc8fpA/fCwGUhIRsGo4gsCNquEeJ+5gITq+++qqbJ+PnPg3ueSJYM08CGpjS4A3OJeCyZpTr4RMCF4KAJAf/8krozBVhyBqyZgQ1Ah3HsmaMAbHhNSqtBE0aIoZzuV+ERjWCNWErFZuCA6m8kiQh8rAVqkIEYT4Ha9Yf0cC4eQ+8sQWSAcRNdgg07JUgjrCkSkk1GHFJckZFky0WtmFYC3j64YcfdsdzLOuBsKPyA88javAT8OVFwkhFBSFNtedY70EgcC8PFYX0e5y0a59UpwTBPHRPwQdLpXL5pcpFQ/cj9Kkb2jrwsny3LgcFwv4UafQiKXGvlKJQAH91TkggfLREalNZGjZf6l9fqlMyVAXwGlsU7y2UlsdI+aMkfrfy4ppSw2iJfm/7QmpSNnQ0n5UpcIoJBCaGY+EwKGIW17sBis8gFAwbJ8BQMGwcEzJiX5VMBePGCTAQDIXjIDn6IbBh8GQrkCskh+N7jspxOD794ziUeilfnU4NHCE8KjSQJi8a2BFQIDc+wyk93E4nfLJqrgQEAgrkToCCnCEyKl4EU4IuhMhxfE6GSdDlxlpsluDE+2kbpAvJUl2jcT4VAQI256Rt2D5ry7Fci71oiJnjvBvfUolqxw7nd3yGr1Eex89ong95wQofTRvgmSN/Yztch34o0xOYyFq9Bg7cb0Q2mx0NuwcbGvv0BEj+9jJ7xknQ5TiaV3Uk8yZ4wSNpG+NHFMBZCD7myzx5n4Qk7VqxzvRNRk+JnWuBE+uHHWTM4FlTxsd54EvjHO9njLkW6wKXIiw430t2SKYYD3gT+PmXTJz141iOQyx4god/s6MxVpIOsAdLxgNWbEEhSNmqQrRRGeB97BThxHgRkuCBQCAWUEHj3h0ENoIXkcG5iAkExLEKhJiE0N4/jQoAwT53pNSmorR4m9SojFShUGi7oW9DbiSUbm0UVM40CoFsn6DNW4s2y21VNC0fCuKj5gTVoYqUKzKg8b9IfRqGtjT6NgqkExncwLho019Xo2stKW+UNHJ2SHTQzsgREin1QvfSZmnLti2GLJ2FdW4IGAKGgCFw2iNwrALhtAfsKACYQDALMQQMAUPAEDglEDCB4O8ymkDwF0/rzRAwBAwBQyBMCJhA8Bd4Ewj+4mm9GQKGgCFgCIQJARMI/gJvAsFfPK03Q8AQMAQMgTAhYALBX+BNIPiLp/VmCBgChoAhECYETCD4C7wJBH/xtN4MAUPAEDAEwoSACQR/gTeB4C+e1pshYAgYAoZAmBAwgeAv8CYQ/MXTejMEDAFDwBAIEwLeA6V4SBQvHn7Fw9+y+kepwjTdLL+sLwKBReEJWDyhzZohYAgYAoaAIZCdCBCDaF4FwfvNChMImVsFXwRC5oZgZxsChoAhYAgYAplDAHGQcYvBe7S8VRCOD1sTCMeHm51lCBgChoAhcIIh4G0xWAXBn4UxgeAPjtaLIWAIGAKGQJgRsJsU/V0AEwj+4mm9GQKGgCFgCIQJARMI/gJvAsFfPK03Q8AQMAQMgTAhYALBX+BNIPiLp/VmCBgChoAhECYETCD4C7wJBH/xtN4MAUPAEDAEwoSACQR/gTeB4C+e1pshYAgYAoZAmBAwgeAv8CYQ/MXTejMEDAFDwBAIEwImEPwF3gSCv3hab4aAIWAIGAJpENi2bZt71DGPPk5KSnKflChRQlFRUfr9999VsWJF9xTejRs3KiYmRvXr13fHEOx3796tX3/9VbGxsapSpYo79vvvvxcPQMqRI4cuuOAC0f8333yja6+99i8PSvonT1LcultasV2qWFhKTJaqFTs0+GE/B9W1RkAVCkkz10nNyh9+aedulGKT5I7Lk1OKLvjX4zimQZmjm8aGeKlIHilPVOjYPful2IRQ/2vjpTVxUpUiUqfqR+8rs0dkm0D47bff9OGHH7rnYrNo/fv31zPPPOPGz2Oay5Urp9q1a+vLL7/Un3/+qYsuukj16tXTp59+quXLl6tfv37umMsuu0xXXXWVe48+Zs2apalTp6pSpUq6+uqr9d5772nz5s3Kly+fOnfurNWrV7u/v/rqK40dO9YZ3L///W+df/75zmgvvvjizGJo5xsCf4sAxPjWW29p06ZN6tatm7Pz+++/X82bN3fENnz4cEeC+Ef16tV1ySWX6Ouvv9aGDRsc+XXv3l3nnHNOumvgAx06dFCFChVUrVo1TZo0yfUfHR3t/CBtu+eee1SnTh1t2bJF9913n3755RfnZ9j/Lbfcojx58rjDIWvG2axZM3Xs2NG9t3jxYj311FN69dVXlTdvXkfA+NPbb7+tQoUKqU2bNo6858yZo/j4eLVs2VLnnXeeOxc/fu211xzpc92cOXPqgQceUKNGjVLHkh2mExcX567PWMuXL+8w+umnn7RkyRK3Bp06ddLzzz/v5lazZk21bdtWL7zwguMU1uGNN95IN0ywW7RokcOjdevWKl68uDsOroGTSpYsmXr8H3/8oZdfftkFtsjISN1www367LPP3HrXrVvXXb9w4cLueNavT58+jqvAErugwZngyhrSGA/YFihQQF27dtWECRNc31988YWzIa+xzqwTeBN0K1eu7OyJufbs2TO1v6xeA67J2sPJ3iOR+TsQCDguf/LJJx1+q1at0vr163XNNde4z9555x21atVKXbp0cba2dOlS5wfw/dq1a53d3XvvvW5Or7/+ugYPHnxcAmH5dmncIim6gJSAQCgq1Sohxe+RFm2WCueWWlYIauCUgHLnlAa3DSoyRyAdbGvjpI07pbmbpPKFpFVxQXWsGlDN4ggd6ec/pDfmSXtSgiqZTxraMf35O/dI8UnSlDWhftpXkUrkk6ILSStipF+2Scn7pT0HpOSU0DUuqJbVKycFUlJSQg+xzuJ255136uabb051znbt2mnXrl1at26dRo8erUcffVRbt27V9u3bHWHlz5/fkQvHnXvuubrrrrt02223OWfBIT/66CO1aNHCOTIENnPmTOd0kCYE8Pnnnzuig9j69u3rjBPngTwRK6hP+h8xYkQWzzz83SPAcCqIh4AAsUBSkBzCC2KZP3++GyiEwufW/EOAgIq9nXHGGY7cCQJjxoxxtgjRedlVqVKlXJAhyyJQpaSkaNy4cemCA6OC4Hv16uX857nnntPtt9+uKVOm6Morr3TX8QI+xy5cuNCRKz7z7LPP6pFHHnE+hfCm4ReQMS0xMdH1h0hBlNCGDRvmiHratGnONxHpEDXCJCIiwo19xYoVLqARfBk7T7HjOIIj1yV4Md+bbrrJZYkJCQkuIODT2dHAiaQEbOEAko+VK1e6OSJsCNDMh4yWAA9OiKmyZcs6XDnea8wTnuIcsGWecAwBF6EGnqyB1whiCBGy3x07djhMEIyIEK7HCxxp4Are9Mfak8wwZsbIepNl8z4v1gzhB6+OGjVKDz74oOtj7ty5TnQwBtYT7JnDzp07df311zv/xgZZZ4RDVjevCsBcuOaCBQtSL4ltw8F8RhyAp0niSBw5DzvBXqg2ILqmT5/uRBX/wtsIpgEDBji7pJ/HH3883W8xUGU4WgWB6sE3K6RLakmrY6WdewJqXDaonBHSnA1SmYLSU9ODKhgV0B1NpSenSS90To/azxtCQqJnnVBwf2We1KC01L1mqJpAm7QyoEFTUzS+R0CfLpX6Nknfx+TV0uodAbWtHHRC4IxI6cWfpQGtghq7OEIJ+6TPVgbVrWpACkiVi0g96mQ+dHu+fyQ7yDaBgGHiaIgBDOKhhx5yizd79mydddZZjkhYeIIVRkFmTwC78MIL1bhxYxf4Ucu33nqrc5Bly5Y54//ggw8c6eH4/P/uu+92woCAh/OirsnaEBZXXHGFU5qoVojtsccec9c+1Rskg3MyX7LSMmXKqEiRIo5McD6IEMwhUoIDuFrzDwHIDkdkDbBBgghBBqwh8R9++MHZN+tBMMDGOR7hy3FUvEqXLu3snrW59NJLncAjWBF4CQjvv/++I3yCCJ9zLA2/IBhxPlUGKmdk+IMGDXLZGucQvLxGcMRvCJ7YC6IDYY+g4NoEHkgcfyK40SBt/o8P488IErJvjmUe1113nQtK/E0gQKQi9vHt7GpwDtjWqFHDBWpwBQcqJsyfDB2uQJghFhg3PAK2BCxED+u4Zs0al72DG8EeHiED5lj4jP6pfHI8L/wNPHPnzu0qL6+88oq7PlzGZ4yB6gKN/hF7VBy8hoCEBzneW1P6IaFiXeFJ+AxhwTgRmVSnGD8vxktlCA6dPHmyihUrpvHjx7tzskMgMA8qOFQMEMjMmRiAGICD3n33XTcHEj6SQoTjww8/7PwCfLE58AFDqsWeQGC+DRo0OKJAQISRGB1NICTuC20vFM8jrYqV/twjNYiWCuWWlmyRKhSW5m0MvV+7pLQuLqBONdIH5uQD0oEUKWl/aNXGLZHOLiE1LycNnhpQmwpSlWJBVwloXkFaHhNQrRLp+yBNn7g8dD4VDKoOVA/YZuCzNm8GVaNIQBGB0Ni6nRVQ43KZFwhc7+9EQrYJhDvuuMOpc7J7FC+ZK4b+8ccfu8wCFU2JzVPNKHQclm0CDLl3797OeXBeDInzGjZsqKFDhzqHIkOeN2+eI0cymU8++cQ5xciRI911MUb+z/UhJowPkqVEdao3SIasBLUNOVFJQJ1DZrVq1XICAUcFFwSDNX8RgNixV/AmGEGUZOUEX4QZtg+RYcNUFfjcyxbJKlkfAgzv8S8VBEQD2SnBCbIl+BN4CcBcD0FAo6qGz2D/Tz/9tMs0CYb/+9//nA9MnDhR+ObhBMKQIUNcIEW4Dxw40JXiIXqyUcaBGOB8sluCJqKAz7gWAoJxPPHEE25c+DNkD/FTZSBwZVeAIlCQMECEBO8ZM2a4zBysEWcIZq/yQcIAvyCWmSN+whqQrTIf/mYOZ555puMbziVYwU+IC3BCWLGeXI81o8ICNqwXZX8avsZawFdNmzZNxR9e9AQCAo5gTtLj3Xzn/dYAfVNSpyoApzEuRNqPP/6o9u3bu2vj64wdPsSG2H5l7pTyEYreuvhr7X/tjQwfu2FeCB22BLAHtgsQSGwpcMx3333ncOdeArZuSPgQBNgN21RNmjRxVRpsl6oIfoIY4rOMFYR/KhDSjnbZNiluT0DNDgZewu+Dk6WeZ8ttFVz+QVDjugcUdahA5E4ngBPQ9x5ASAQ1cXnA3SPQpLw0ZGpAfRqGthXor+1oaWovKcMOhevn82XSzoP3MSDvESr5oqRuY4IqmCtCKQd/sZL3OlULqEsGoZKZdTySSMg2gYAKpuzvLTbkQ5bikQTkiVrH0BEOOClGTebClgCOg5KEpCBWjJyAx14iN62wv4bDo04hSbI0nA/nhAgxPrIpDBEnxjghBcTDqd6YM5km4qto0aIOG0qsGAX7ewQv9lMhdrI9iNGafwhgvwhW7I3smgoBwpTA8O233+qll15ya4BNk+ERwDkHOyZAsyZkS2lbjx49XAaJ3UOaiF2Il0BE0EjbEAAEPoiU7IzAjj8Q8ChTp92SQEgiLrALr+FvvE+2TTWBcVGJ47rcJIYtEXgIgGxfEJiYG/MhABMcCFJU8ghK7CuTDBDgsroRUBFhcAXj5UXiwLgI1gQisn9K1p4oICCzPgQk+IWs39sGYLysJdUI/IjKD2sKnvRHZZQs3mtgRVWG+eNX4EeV1NsKYK3TbumxPh4u+C1ZM0kS1SJwxn/hO7JyuPLGG2901SP4kn65P4JzOA7bIchSnmc7FnuhUX0gayf4ZkejKkC5H3Hs3ZyI3WMPCCmwBx9sFD+An0li8BeEFIIAvJkHMQM+R5ghEvgbEcy8ub/lWL/FQHDfezDzX7kjVCmoX0bKmYPtBmnxZmnsL0H1OiegvDklbjTs3ZCs+xBynkAIKqj18QFt2BlQwr6gC/BvzpfWx0vtKkl5IqUS+QNKPhBU/Wi5aoDXqEJwrTWxh95rUVFOWHCt3p8E9K8KoYoB1Yri+fwVCPR7OJEQOHDggD91iuywNLtGphDAeSBBshrvxqhMdWgnGwKGgCHwNwggQr1qGGIL0UhFh4bwRNiQ7fMZFRivIVoRYIgBkhfuXUAAU/FEUFEV4z4RPmP7iht7ERnHKhB27wttIWRsVYtKBG2+TZA7Mqi4pICK5pWSkqXIiKByRR6K7iT2BFHeWbBJKnCGVKVoqMcDKUFFRAQ0Y63cvQ2REQEnPKIiD92fwHGrd4S2OjK21pXkbowcOl1qd3AnEEGTknL8WwxHu+/AG4PbpjKBYP5tCBgChoAhcCogcKwC4VSYc2bmcDSxYAIhM+jauYaAIWAIGAInBAKIA08gcIMolQpvW4+bSa0dGYEj3oOwf/9+22IwyzEEDAFDwBA4qRE4nEA42rcYTuoJH8fgj1oxSHtzBdsmycnJJhCOA2g7xRAwBAwBQ+DEQsC2GP66HkesDmQQA96ZaY8P7Nu3zwTCiWXjNhpDwBAwBAyB40Ag7RbDP3lQ0nFc4qQ85bDfUEgjEI70eWDv3r0mEE7KJbdBGwKGgCFgCKRFIKNAQCTwrYfT/R6EjAIgXZXgoFA4rEjYs2ePCQTzMUPAEDAEDIGTHgETCIdfwsMJAo703j/i50lJSSYQTnq3sAkYAoaAIWAIZPwWAzcpWgUh/UOQMoqCvxMJgcTERBMI5leGgCFgCBgCJz0C3o9ZeV9ztC2G0JIeaUvhSGLBOyeQkJCQaYHgPR/c+zGRk97KbAKGgCFgCBgCJxQC3k9F/92gDldB4HdBTvd7EDKKhFQBkOb+g8OJhcDu3bszLRBOKCuywRgChoAhYAicdgh4z0Hg0c5UEHiEs1UQDpnB320teL/+mVE4/B+K7MlGifLOvQAAAABJRU5ErkJggg==;" vertex="1" parent="1">
          <mxGeometry x="509" y="110" width="183.54" height="90" as="geometry" />
        </mxCell>
        <mxCell id="HUmmBEnXE_2QKr82iRTp-32" value="规则Script" style="shape=document;whiteSpace=wrap;html=1;boundedLbl=1;fillColor=none;" vertex="1" parent="1">
          <mxGeometry x="540.77" y="250" width="120" height="80" as="geometry" />
        </mxCell>
        <mxCell id="HUmmBEnXE_2QKr82iRTp-33" value="" style="shape=flexArrow;endArrow=classic;html=1;rounded=0;endWidth=8;endSize=7.31;" edge="1" parent="1" target="HUmmBEnXE_2QKr82iRTp-32">
          <mxGeometry width="50" height="50" relative="1" as="geometry">
            <mxPoint x="600.27" y="202" as="sourcePoint" />
            <mxPoint x="600" y="230" as="targetPoint" />
            <Array as="points">
              <mxPoint x="600" y="210" />
            </Array>
          </mxGeometry>
        </mxCell>
        <mxCell id="HUmmBEnXE_2QKr82iRTp-35" value="规则库" style="shape=cylinder3;whiteSpace=wrap;html=1;boundedLbl=1;backgroundOutline=1;size=15;" vertex="1" parent="1">
          <mxGeometry x="729" y="250" width="100" height="80" as="geometry" />
        </mxCell>
        <mxCell id="HUmmBEnXE_2QKr82iRTp-36" value="" style="endArrow=classic;html=1;rounded=0;entryX=0;entryY=0.5;entryDx=0;entryDy=0;entryPerimeter=0;exitX=1;exitY=0.5;exitDx=0;exitDy=0;" edge="1" parent="1" source="HUmmBEnXE_2QKr82iRTp-32" target="HUmmBEnXE_2QKr82iRTp-35">
          <mxGeometry width="50" height="50" relative="1" as="geometry">
            <mxPoint x="509" y="260" as="sourcePoint" />
            <mxPoint x="559" y="210" as="targetPoint" />
          </mxGeometry>
        </mxCell>
        <mxCell id="HUmmBEnXE_2QKr82iRTp-38" style="edgeStyle=orthogonalEdgeStyle;rounded=0;orthogonalLoop=1;jettySize=auto;html=1;exitX=0.5;exitY=1;exitDx=0;exitDy=0;" edge="1" parent="1" source="HUmmBEnXE_2QKr82iRTp-37" target="HUmmBEnXE_2QKr82iRTp-37">
          <mxGeometry relative="1" as="geometry" />
        </mxCell>
        <mxCell id="HUmmBEnXE_2QKr82iRTp-39" value="云平台-规则配置中心" style="text;html=1;strokeColor=none;fillColor=none;align=center;verticalAlign=middle;whiteSpace=wrap;rounded=0;dashed=1;" vertex="1" parent="1">
          <mxGeometry x="629" y="50" width="131" height="40" as="geometry" />
        </mxCell>
        <mxCell id="HUmmBEnXE_2QKr82iRTp-42" value="数据统解析模块" style="shape=process;whiteSpace=wrap;html=1;backgroundOutline=1;fillColor=none;" vertex="1" parent="1">
          <mxGeometry x="240" y="601" width="120" height="60" as="geometry" />
        </mxCell>
        <mxCell id="HUmmBEnXE_2QKr82iRTp-44" value="规则Runer" style="rounded=0;whiteSpace=wrap;html=1;fillColor=default;" vertex="1" parent="1">
          <mxGeometry x="420" y="591" width="160" height="80" as="geometry" />
        </mxCell>
        <mxCell id="HUmmBEnXE_2QKr82iRTp-49" value="" style="endArrow=classic;html=1;rounded=0;exitX=1;exitY=0.5;exitDx=0;exitDy=0;entryX=0;entryY=0.5;entryDx=0;entryDy=0;" edge="1" parent="1" source="HUmmBEnXE_2QKr82iRTp-42" target="HUmmBEnXE_2QKr82iRTp-44">
          <mxGeometry width="50" height="50" relative="1" as="geometry">
            <mxPoint x="500" y="601" as="sourcePoint" />
            <mxPoint x="550" y="551" as="targetPoint" />
          </mxGeometry>
        </mxCell>
        <mxCell id="HUmmBEnXE_2QKr82iRTp-50" value="规则解析模块" style="shape=process;whiteSpace=wrap;html=1;backgroundOutline=1;fillColor=none;" vertex="1" parent="1">
          <mxGeometry x="540.77" y="460" width="120" height="60" as="geometry" />
        </mxCell>
        <mxCell id="HUmmBEnXE_2QKr82iRTp-51" value="规则变更监听" style="shape=process;whiteSpace=wrap;html=1;backgroundOutline=1;fillColor=default;" vertex="1" parent="1">
          <mxGeometry x="719" y="460" width="120" height="60" as="geometry" />
        </mxCell>
        <mxCell id="HUmmBEnXE_2QKr82iRTp-52" value="" style="endArrow=classic;html=1;rounded=0;exitX=0.5;exitY=1;exitDx=0;exitDy=0;exitPerimeter=0;entryX=0.5;entryY=0;entryDx=0;entryDy=0;" edge="1" parent="1" source="HUmmBEnXE_2QKr82iRTp-35" target="HUmmBEnXE_2QKr82iRTp-51">
          <mxGeometry width="50" height="50" relative="1" as="geometry">
            <mxPoint x="670" y="430" as="sourcePoint" />
            <mxPoint x="550" y="410" as="targetPoint" />
          </mxGeometry>
        </mxCell>
        <mxCell id="HUmmBEnXE_2QKr82iRTp-54" value="" style="endArrow=classic;html=1;rounded=0;exitX=0;exitY=0.5;exitDx=0;exitDy=0;entryX=1;entryY=0.5;entryDx=0;entryDy=0;" edge="1" parent="1" source="HUmmBEnXE_2QKr82iRTp-51" target="HUmmBEnXE_2QKr82iRTp-50">
          <mxGeometry width="50" height="50" relative="1" as="geometry">
            <mxPoint x="500" y="581" as="sourcePoint" />
            <mxPoint x="550" y="531" as="targetPoint" />
          </mxGeometry>
        </mxCell>
        <mxCell id="HUmmBEnXE_2QKr82iRTp-57" value="" style="endArrow=classic;html=1;rounded=0;exitX=0;exitY=0.5;exitDx=0;exitDy=0;" edge="1" parent="1" source="HUmmBEnXE_2QKr82iRTp-50">
          <mxGeometry width="50" height="50" relative="1" as="geometry">
            <mxPoint x="390" y="541" as="sourcePoint" />
            <mxPoint x="490" y="561" as="targetPoint" />
            <Array as="points">
              <mxPoint x="490" y="490" />
            </Array>
          </mxGeometry>
        </mxCell>
        <mxCell id="HUmmBEnXE_2QKr82iRTp-58" value="规则刷新加载" style="text;html=1;strokeColor=none;fillColor=none;align=center;verticalAlign=middle;whiteSpace=wrap;rounded=0;" vertex="1" parent="1">
          <mxGeometry x="427" y="511" width="50" height="30" as="geometry" />
        </mxCell>
        <mxCell id="HUmmBEnXE_2QKr82iRTp-59" value="" style="endArrow=classic;html=1;rounded=0;" edge="1" parent="1">
          <mxGeometry width="50" height="50" relative="1" as="geometry">
            <mxPoint x="600" y="631" as="sourcePoint" />
            <mxPoint x="660" y="631" as="targetPoint" />
          </mxGeometry>
        </mxCell>
        <mxCell id="HUmmBEnXE_2QKr82iRTp-60" value="生成告警数据" style="shape=process;whiteSpace=wrap;html=1;backgroundOutline=1;fillColor=default;" vertex="1" parent="1">
          <mxGeometry x="666" y="602" width="120" height="60" as="geometry" />
        </mxCell>
        <mxCell id="HUmmBEnXE_2QKr82iRTp-61" value="" style="rounded=0;whiteSpace=wrap;html=1;fillColor=none;dashed=1;strokeColor=#FF0000;" vertex="1" parent="1">
          <mxGeometry x="230" y="440" width="800" height="261" as="geometry" />
        </mxCell>
        <mxCell id="HUmmBEnXE_2QKr82iRTp-62" value="规则引擎" style="text;html=1;strokeColor=none;fillColor=none;align=center;verticalAlign=middle;whiteSpace=wrap;rounded=0;dashed=1;" vertex="1" parent="1">
          <mxGeometry x="463.5" y="720" width="91" height="30" as="geometry" />
        </mxCell>
        <mxCell id="HUmmBEnXE_2QKr82iRTp-64" value="" style="endArrow=classic;html=1;rounded=0;exitX=0.25;exitY=1;exitDx=0;exitDy=0;" edge="1" parent="1" source="HUmmBEnXE_2QKr82iRTp-5">
          <mxGeometry width="50" height="50" relative="1" as="geometry">
            <mxPoint x="120" y="520" as="sourcePoint" />
            <mxPoint x="286" y="590" as="targetPoint" />
          </mxGeometry>
        </mxCell>
        <mxCell id="HUmmBEnXE_2QKr82iRTp-66" value="告警数据" style="swimlane;strokeColor=#000000;fillColor=none;" vertex="1" parent="1">
          <mxGeometry x="839" y="550" width="170" height="140" as="geometry" />
        </mxCell>
        <mxCell id="HUmmBEnXE_2QKr82iRTp-68" value="事件开始时间" style="text;html=1;strokeColor=none;fillColor=none;align=center;verticalAlign=middle;whiteSpace=wrap;rounded=0;" vertex="1" parent="HUmmBEnXE_2QKr82iRTp-66">
          <mxGeometry x="11" y="58" width="89" height="30" as="geometry" />
        </mxCell>
        <mxCell id="HUmmBEnXE_2QKr82iRTp-69" value="时间code" style="text;html=1;strokeColor=none;fillColor=none;align=center;verticalAlign=middle;whiteSpace=wrap;rounded=0;" vertex="1" parent="HUmmBEnXE_2QKr82iRTp-66">
          <mxGeometry x="11" y="87" width="89" height="30" as="geometry" />
        </mxCell>
        <mxCell id="HUmmBEnXE_2QKr82iRTp-71" value="Meta数据" style="text;html=1;strokeColor=none;fillColor=none;align=center;verticalAlign=middle;whiteSpace=wrap;rounded=0;" vertex="1" parent="HUmmBEnXE_2QKr82iRTp-66">
          <mxGeometry x="100" y="62" width="60" height="30" as="geometry" />
        </mxCell>
        <mxCell id="HUmmBEnXE_2QKr82iRTp-70" value="机器人SN" style="text;html=1;strokeColor=none;fillColor=none;align=center;verticalAlign=middle;whiteSpace=wrap;rounded=0;" vertex="1" parent="1">
          <mxGeometry x="850" y="582" width="89" height="30" as="geometry" />
        </mxCell>
        <mxCell id="HUmmBEnXE_2QKr82iRTp-73" value="" style="endArrow=classic;html=1;rounded=0;exitX=0.7;exitY=0.766;exitDx=0;exitDy=0;exitPerimeter=0;" edge="1" parent="1">
          <mxGeometry width="50" height="50" relative="1" as="geometry">
            <mxPoint x="790" y="632.9259999999999" as="sourcePoint" />
            <mxPoint x="840" y="633" as="targetPoint" />
          </mxGeometry>
        </mxCell>
        <mxCell id="HUmmBEnXE_2QKr82iRTp-74" value="" style="shape=image;verticalLabelPosition=bottom;labelBackgroundColor=default;verticalAlign=top;aspect=fixed;imageAspect=0;image=data:image/png,iVBORw0KGgoAAAANSUhEUgAAAggAAAEMCAYAAAChhU7oAAAAAXNSR0IArs4c6QAAIABJREFUeF7snQd4VcXWhr9UEnrvvfeqiEoVBBUExYZ67V577+3asaK/Xa968VqwFyyICoIUkSZFeu899FBTzv+8c5zcAAkkITnJIWueJ0+Sc/beM/udNWt9s2bOPhGBQCAgK0bACBgBI2AEjIARSEcgwgSC2YMRMAJGwAgYASNwMAETCGYTRsAIGAEjYASMwCEETCCYURgBI2AEjIARMAJHFghsSYiIiEg7kP+3bt2qsmXLym9XOPh9Dk7/Gv/v2bNHcXFxh7ye3T5YuHChGjZseEB7fH1Lly5V3bp1D3mPuosUKaKoqCilpqZq8+bNqlChgjuO/2nrwe3NbrvseCNgBIyAETACxzIBl0FISUnR9u3b3X2mFwhlypRxAXXGjBkqXry46tSp446JjY1NY8L7lMjIyAM4JSYmatu2bapevXq2+RHgd+zYIdo1ePBgXXnllYqOjlapUqU0f/58F+xjYmL0xhtv6JFHHkm7/oIFC9zf69atU6tWrUT7k5KSNHr0aNWrV0+zZs3SSSedpPLlyx/S3mw30k4wAkbACBgBI3AME0gTCLt373azbgqz6507d7oAS3Bt3Lixpk6dmhbs69evr/Hjx6tHjx4ucCMqCMobN25U27ZtXXAne7BixQonKjjm4ELgJshnVBAGH3zwgfr376+HH35Yt99+u3777Tf94x//0IgRI1x9XPPjjz/W5ZdfrpYtW2rTpk2aO3euevbsqf379+vTTz/VFVdc4do1ZMgQtWnTxh1z0UUXHSBwjuG+tVszAkbACBgBI5BjAk4gJCcnKyEhwS0L+MJsvXTp0mJWzuybQlCnFC1a1AXd8847Ly3IL1++XKtXr1bVqlVdAK9du7abpfM3gZsgnr5s2bJFQ4cOVZ8+fVSxYsVDbmDmzJnu3H//+9+65pprnODgnJ9//lmVK1fWOeecowcffNBlEWj/uHHjNHbs2LTrIEzIFtSqVUvPPPOMazN/V6pUSTVq1Dhg2SLH9OxEI2AEjIARMALHKAEnEBAGCAECsl9iYN2+S5cuTjiQWfjxxx/dcgOlW7duLoOQfo/B3r17Va1aNbfuHx8fr+bNmzvxwD4BhEPnzp0PQEhQJ1NBwD/hhBNUrly5tPdZCmDmT1u++uor9erVS2vXrtWZZ57p2vn777+7tiBKEAINGjTQpZde6o6hIFLGjBnjBMJ//vMft3+iadOmWrZsmcseIBTIilgxAkbACBgBI2AEMibgBAIpeYItSwQUgmiJEiXUqFEjbdiwQVWqVHGv79u3z/32SxH8ffAeBPYdcBxLAAgAhMWAAQMOWWYYPny4C+wsV2RUWFJYtWqVEyLdu3d3YuPss892goLsBG27+uqr9e6777rTESh//vmnq5ONi7SLTANZj6+//lpdu3Z1GQ32U5hAsOFgBIyAETACRuDwBNI+5khARQyQAUif8ietzwyc4pcY0u8d8FmH9JsUeY2UP3sRmjVrlra5Mbud4UXCJZdcknbqtGnTXPvY/PjKK6/olltucZmGlStXuk2RtGPy5Mnq16+f24xIm9m3QHaDjYuICJYZcrJ5Mrvtt+ONgBEwAkbACIQrAXsOQrj2nLXbCBgBI2AEjEAeEjCBkIdw7dJGwAgYASNgBMKVgAmEcO05a7cRMAJGwAgYgTwkYAIhD+HapY2AETACRsAIhCsBEwjh2nPWbiNgBIyAETACeUggYs/e/YE8vL5d2ggYASNgBIyAEQhDAhHbduwygRCGHWdNNgJGwAgYASOQlwRMIOQlXbu2ETACRsAIGIEwJWACIUw7zpptBIyAETACRiAvCZhAyEu6dm0jYASMgBEwAmFKwARCmHacNdsIGAEjYASMQF4SMIGQl3Tt2kbACBgBI2AEwpSACYQw7ThrthEwAkbACBiBvCRgAiEv6dq1jYARMAJGwAiEKQETCGHacdZsI2AEjIARMAJ5SSBDgRAREaGIiLys1q5tBIyAETACRsAIFGQChwiEyMhIxcZEKzLSFEJB7jhrmxEwAkbACBiBvCRwiECIiopUfJFY8duKETACRsAIGAEjUDgJmEAonP1ud20EjIARMAJG4LAETCBkgmf37t3at2+foqKizITymEAgEBA/8fHxKlKkSB7XFp6X37t3r3bu3KnY2FixR8hK3hJITk529siPlYwJrFmzRsWLFzd7DIGBpKamulhUrFgxsQ0gVMUEwmEEAsHKnHFoTBGHjEgwgXAo75SUFCEQ4uLizB5DY47OFnfs2KEyZcqEqMbwqmbz5s0qUaKEoqOjw6vhYdpa7JFJK+IAkRCqYgIhVKStHiOQQwKIp127dqlUqVI5vIKdlhMCXpTl5Nxj/ZxVq1apWrVqIZ3NHutMj3R/CARK0aJFj3Rorr1vAiHXUNqFjEDeEDCBkDdcj3RVEwiZEzKBcCTryf33C4VA2Lhxo7Zs2eLo7d+/362pkjqtXbu2NmzYoKSkJFWpUkWsb1WvXt2lVHl9/fr17hycJWmWJk2apKVcWZ/h9ZiYGHfMihUrtG3bNncMKWsG+qZNm1SjRg13HVI0tIE9BpzbuHHjbPUmsznqK1mypGsfbfYzPP7nb9LCpOD4n/r5KV269CH1kMakDf491pkpB681cT2uS0ovKwoSY6LOsmXLuutxr/xPm+DHteDvU6i8xzH+nnxDSW35+/EzWNrM6wcf6+thrcynHr1R8x734BVwOO/twDZ9P9F38IQrM6q1a9c6jtjunj17HCNYcRz/w87vbeGYOXPmOFYVKlRw14QX10lvK4cTCDClHznGF9bN4YvtUbevz48PjktMTHQ2ZktomQ/9cBEI9O+yZcsOuZGGDRu6/sXnYncNGjQ44Bhsctq0ac4HYAuVK1fWypUrnQ3WqVNHCxYsUIsWLTK0kcwEgrdD71upEFvED1MfNsj1Oc77R+8bsGXigZWMCRQKgTBx4kT9+OOPzlgWLVokjBgH+a9//Uu//vqr5s6dq1q1aumHH35Qr1691L9/f02YMEHjxo1zzm7q1KnOkB999FHNnz/fGR4BnvN4nfLOO++439dff71YK0MUcI0rr7xSf/31lxo1aqTp06dr+/btTig88MADWbZJBtvWrVtd+ytVquQCAIMM4/YpN8QJg4JBxoCYPXu2c/4In3r16qXVRd0IF++sGTDLly93G39oI8KJwn1zDMKHgc57DGQGb0ZrgAw+RBXXp53UOWPGDOcEEGK0CS4EfoIJ9zFr1iwXaGgzgcsXBjpt4p4JYjgc2sx9161b94A9A3BeuHChE2YcO2XKFCdmCHZelHDdqlWrunrDNTiNHDlSv//+u2NLf3B/9MXpp58u3vvjjz/UrFkzZ3ew6Nixo7MRBjjcuXf65rLLLtOgQYMcK1jOnDnTOfOzzz5bHTp0SOuDwwkE+oe+4Ye/KVwL3rDHFukv/i5fvnyaqMZ+qNc24YW/QMDO3nrrrTSRiO/BF1511VWaPHmys9F3333X2Rulffv2zs4QBm+//babOOFf7rzzTn377bfOz2CDn3zyiW677TbnO7t27XoAqMwEAjbOuF69erWbkPjNx/gY/A2+DX/Ce/j5ihUruuvyHudik1YKsUDg1keNGuUC5vjx49W5c2c3A2/Xrp0LpARtgtukSZOck7z55ps1b948F4Axtg8//NA53/PPP1933323TjjhBLVu3Vpjx451CrlcuXL66KOPnGjo3bu3Ex04RwIkdeHMCZgE1tGjR7ugfuKJJ2bZJhkYBHIGIU6ZQInSxthx/gRfBh7X99kRhBDHci7t9oXBySBmMA0dOlSnnHKKu1cCeadOndy1KbBCADVv3twFINr/1Vdfufvn3nwmxl+X/2kfP9TBYIfnySefrISEBBcUcCC0kevBkMCO06D9PXr0SGvjN998o549ezoxx31yTwxmuHFe+mwGsxhEATxxOj///LPrD4QRbaGfKbwWzgKBe8B24OAzU9gkwRg7hSVZBn7oqzPOOMP1A4EeZtglPLFXXodP06ZNXfaBPkFAEeR9OZxAwKl6AYnTpeBkCRpePNIuP0vkNw6c17CF+vXrZ9n2C9uB4ZJBIDPFhIfxS6Hf8XX4qdtvv1233HKLhg0blrZfACHrAzxCFWHKpIDX8TWMU3wIghIbHzx4sLtO+pKZQPC+B1/I39gmPgNhgG+nrdge2UiOYTxQEDG0H7/EsVYOJVAoMgjcNo6JwffFF1+ob9+++uWXX3TOOec4ZUmwxFgI+AQqDB0w/GDwONSWLVu6oHfxxRc754sifuWVV9z7vE7wxPAIbN999526d+/u6iJAUrgWipkAdumll2ZLIHA+QQBxc9xxx7kBhVHjxPlh1s/7KHdED4ODmSaBE2XOQEQI9enTRw8//LBT9rz+5Zdfunb6YwgYn332mRusBGGucckll2jMmDHuGh988IHuvfded30GHIOcoJ1+uQSh1KVLFxeQ161b54IVKW3+p80wgTFBg+sjpnAutH/p0qUueCBcYEublyxZ4gY9AYb3GOTcF/WTmYD3n3/+6TISPgvB/2Ql0hfuJ9w/IeKXw7BXAjI25WdDsMLGsWeyPW3atHH9hYOkX0877TTHjPcQeWeddZYTf9gSxyAY0s+kDicQGEc4cRwxXHG69Av/k2Ejg4FY8Nk1Lzpx8IhBlqAsrZtxOAoXgeAzWX7plv5kDDKWX3jhBV144YUuC+ALfhBBQTaXTBIit1+/furWrZvzv/gDxrfPQP3222/OP2dFIGCr+AcmC97maJfPUmCLiARsFEHsJ2e85jOTGS3FmmAIxi1KVpaYc4tXyDcp4rgYeAShIUOGuIA+cOBAvfzyy04Y4Fg5hmUCAiKBBzAYOEb81FNPOUFAYCNt+/jjj7tUGM6QWTZBkllvq1atdOaZZ7pzuV56gYDxMrsj4F1++eXZEghci9kjThwHj3Nm+QMHj/EjGkgxM0CZBRJQcfw+YBAscOLc1/Dhw93Aw1nTZoIHg4sgj3onwDD4vQNnZslMgGUZxMNDDz3kZuLUweAi8+D3FKD6aQtiCnFApoCZK+2lbZzftm1bl43hNYQJs3zuj+vQFwxizuUYsgcwpt8IOqTUcSa0z+9dwAmkFwgcS7CkL9IXXicFHq5LDDhB7hlWOFg4wQcHS0E8wBTRRn8jHLA3sgbYDoX3cd6IWWwAkYz483aLiPPlcAKBNmBPFII/toQNYPfYD32Vfn8Mx/g28/fixYsPWZvOLecS7tcJJ4FAf+MHKPgLgghj7I033kjLUvr+IHDjj/C9TFAoBHHOQxgwyXn99dfdkgO+C5+Lf86KQOAYxga+GD/GGMcm8ZfYHe/RNsQL4+Skk05K2yPGMfgbxpMXsuFuQ7nZ/kIhEADmN2zhHMkCkH4nIBKUvKN75plndOutt7pZDk4VVXn88ccfIBDuv/9+3Xjjjc5BPvfcc86YERUYIukygjAGyvICM10CJoWgidMF+Ndff62bbropy/2I08XxY+AYMgbOsgAzbpYFMHD+Z4bMQMThs2+C9Bnvp/9cNQ6ITARZAq7DvZJ5oM2IoPTrwzDiOnCg/WRAmP1lFGR5D0FAGxj0ZBEYsCh2rosjQXBxfd6nXcwo4Miyjt/YCBSOZXkChe/VPm0kMLG27vdJeIB+CYZ2MvPgN6ItfSGFGM6f6fcPdoIzzBBG9KFn4fuEGRo8YfLpp5/qggsucBg4FhuF++eff66aNWs6cci1yHix3kv2KSsCgbGEzVE3toX4hbnfG8N1eY/+41jGCHbBeCOA8Dpt8RvasjwQCsGB4SIQ6Aq/78hvePUP00Eg3HDDDRn2Fv6UoExBxLJHAZukeDvievjlg8dwZksMfnMikwkmTdgcxzJZ4jrYKv4FW2WCRxsQzmQ38X+MDXwpYyqUM+VwMOdCIxB8Z+BoM5tFpn+Pvyl+V7b/2+8g9w7bv57+N3/783296es8XBsyM5r01/PX8tfJqK707T/4mge/l51jD2fUh2vjwUwO5no0bUx/7uHuJRwG5NG2Mb1teVs92Paz0v85/ZhjVm07q8cdLY9wOz+cBMLhfFVmPhabTF+C3+Kbtad0HuljjlmxqfQ+M6v1hpsN5WZ7C51AyE14di0jcKwSyKlAOFZ5hOq+jgWBkFesjiQQ8qrewnxdEwgFqPcPnvEVoKYdk03xWaBQPmc8XED65TBblw1tj+GQLc2dMXP21LA8YeM1dDZpAiF0rI9YExu7MH4bAEdElSsH+I2LB+9pyJWLh/lF/J4d0rDh/ICpcOoGv5nadtRn3Gt+v5h9d0porBp7ZD8Y+zRC+eySkH+KITQ4j74WNtuwYcYEwtGzzMoVGABsmEz/tL+snFdYjsE5sKHQ+ISmx/2nh+wjoJnz9g/9Ck2PFO5a8I/EolBv7jaBULjtzu7eCBgBI2AEjECGBEwgmGEYASNgBIyAETAChxAwgWBGYQSMgBEwAkbACJhAMBswAkbACBgBI2AEjkzAMghHZmRHGAEjYASMgBEodARMIBS6LrcbNgJGwAgYASNwZAImEI7MyI4wAkbACBgBI1DoCJhAKHRdbjdsBIyAETACRuDIBEwgHJmRHWEEjIARMAJGoNARMIFwmC7nccs8AthK3hLgEcI8IdAes5w5Z/+oVZ7waSXvCfDUumLFimX52w3zvkUFrwZ8Iz7SSt4TwB55qmeon+xpAiGTvl2/fr3Kly9vDiLvbd/VwDfn8Whre/Z9xsBhw+N/o6OjQ9QjVs3atWtVo0YNA5EBAcQBP/bdIKEzD//9QMWLFw9ZpSYQMkFt3+YYMht0FTFDptj3wh/K3b7uObS26Gvjuy9C+cU4+XOXOat19erVqlq1qn1XTc7w5egs+zbHHGGzk4zAsU3ABEL+9C9ZLVv2ypj9qlWrVK1aNRMIITRNEwiZwOab7CgoegqqnjVrZpsbN25UxYoV3Xusz/oU9c6dO0UqhkxA+jQY30DmvxHPp2yzmrI5eJbrHQiv+3r4m3awVuS/CZL/qdPvZ6A99i2RIRxZuVSVtz8uh02S7medmn7dvn17WjDBLkqVKpVmdxy7detWVapUKUctOZxA4D2/7IANUrxtYYuMEV5niSL9V/NaevjIXRGOAgEbxd7wafiZLVu2OHvA/+CHsAH8p7eRBQsWqFGjRgfASExMdLa8dOlSNWzYMENQmQkE/w243ud6G0zvO/kbu/V+mP/9txUeuVcK7xEmEDLoewxn3bp12rBhgxYuXOiOaN68uerVq+eM+KmnntJ1110nDHbRokU699xz3W/+79y5s0aPHq327ds7h821Ro4cqQoVKujPP/9U06ZNncDo169flqwOR8sgwyFzLdrDAGIw8P3oOGNeX7lypQsG/HD8mjVrnIjx36GOiCGwWAkfAgTU6dOnu2CbkJCgEiVKOLs8//zzXfAfNWqU2rZt6/p406ZNOvHEE9P6ePny5frss8907733pt3w5MmTVbRoUScu6tatq8WLF6tNmzbOdrh2mTJl0o49nEDwNoXT9wKG4IBgIVBwHcQy75UrV84FB2yU9xkTtqSTuQ2Gi0DAhuhjAi62hy326dPH+ZzHH39c3bt3d/4TOz3++OOd78T/jB07Vp9++qkefvhhZwf4K+wbv1a9enX17dtX9913nxMbJ5100gGgMhMI27ZtczbtN3j6wM9rvIfNIU4IdtgiP9SJKMGPml/M3B5NIGTCBqP/6quvnIFTMPyzzjpLc+fO1bx589xrxx13nPv74osv1rhx4zRnzhxn8K+88or+8Y9/6OSTT3aGyzGdOnXSbbfdprfeekvvvfee+zsrBYdBBoLsAIbPIGEg4YRxxgQOn9UoWbKkGjRo4BwzAqFy5cpukDI4aD9BoLAUZhUEJDZ9Ipj8jCac7p8gjbikn6dMmaIrrrhCL730krMvNg+xJksApo+xj5o1a6bN2HG477zzjp5//nl3y9jz0KFDXYqWAN+uXTsNHDjQCYhp06apcePG7jVfDicQsDnvbLFPCpypE6fLtTgfe6MfcNAUZpY4Zo61kjGBcBEIfhLChIn+JKhfe+21LjOAjV544YXOz/EeIrRJkybOJ3333XfCTzHJYUziF2fMmOHEKsF62bJlTnjMnDlTX3/9dZYEAmOBc3zBT/psKterUqWKExxkMvCN3h7x7QiIWrVqWXY1kwFpAiEDMBgYQf3ll192zpmCs7vnnns0e/Zs1a9f3xkyztkLBGZ6CAqcL46STAEComXLls7J9+rVyzlrBs8333yjyy67LEs+EodBxgHj5toEPYydGSBtY3D4LAMiwM8QaQNigSCCgEBUFKbdvwQmhBXOAKcAv3CcKYwYMULM/MkI3H///c5+sEtEAalafnx2iFmad7y8/8svv7hZHWKSoI7IwE6ZpcHi6aef1nnnnedsGXGQVYFAoMemsEfvmNl5v2LFCmefCISyZcs6YcZxftMd9SCYGT9WwlsgYF/YJn6NMZZeIMyfP99lS7Exv7TZtWtX8SkthCN+9NVXX3XvEbwHDx6sL774QgMGDHA/jFcyDUzI0pfMMggEMTKsCBCf0UKE4CexOewP/+eX3RgnFOzXT6TSZ8/MNv9HwARCBtZAUH7ggQecqk2/Bnz33XerY8eOztBRnwRhnCJGDUjEAk4RB4oyRR1jlN9++61T1ATyMWPGuFnWM888k2U7JK1MgKNe2oaTJW1HPRg5StwrecQN1+dY1Dwfm6Kw+7ewFfqE+8dRIZ7CTSAtWbLEzfoRgzjj22+/3TlWnDFiFLGK48UBkr3CaT/77LOum19//XWdcsopLnOAE8cOcbAsJ0ycONHZ7AcffODSuAjWq666KssCARvztsc4QIwhRuFLOxApOGcvEHDW2C1iFgGLbdapU6ewmWOW7jdcMgj0O/bEJIllBvyZzyCQ6WJihBDEJhG3LMNiN4jbK6+80tkdEx+uw/n8zW+WzHiN7NeDDz6YJYHAQVwb2/MTOkQLopXrMlHA/+HLmTBRN8fxOr6Bc/ltH+c91ERNIGQwbAnAzL4++ugjF2wppOvvuusuZ/SIAgYGaTBEwkUXXeSM68svv9Spp57qjmcfQu/evd2M6ocffnCD6ZprrnGOuEuXLm42mNXCAMOxci2cLoaOQGBWyHsMBBQwddSuXdsJCDb7+Jkj9aCgyYIUpo2KCDIcAYHLb07KKvOCcBz9TPaAfmTmj23hiLmvq6++2tkoNkXAxS5wcogJZmg333yzE0WIUzIMCFucM/aLnT733HP65JNPdNNNN2nQoEHq1q2b+/HlcEsM2BfOmMDP+MCJ+P05iBbSyX6jGNdDwPi1YFK/iFquT5bByoEEwkUg+M2pCFjK+PHjnU2SOb3++ut16623OnsjfY8fJFPAJAcbmzp1qjsHH8UMnqVYMk133HGHnnzySeffvv/+e7eklr4c7lMMiGnEAMKUa1EXYwFbQ6Tg+/ABHHfCCSc434n9MrHiGHwEPtb2xxxojyYQMvFQOEH2FUyaNMkpXgwMo8OAUKEEXJwkRn7mmWe6qzCTAijLBzjMF154Ie11Avn777/v9h5gjDgCBk1WCoOR9hDcqYPMBo6ewICTxdh5nWMQCAwC3qe9qGSKPYApK6QL3jEsIRCEyQbhwMgcsOEV5/fuu++6zBSzeZxgjx49nDBFSHCst8nffvvNzdjZf4DtEZxxjP5TBogLXk8/gzrSxxw5B1sn4GN/CGYECuvJ2D5iljFD1gAb5fr+iWwH7ygveNTzr0XhIhD8pwDoewr/Y3v9+/fXY489pg4dOmjYsGHOJi699FKXYcIm2Zz9+eefu3MQB/gnJjsUhAHiguwB5WBRfziBgI8kg0s9LHEwPhALPovIGGIMkI1lCSz9J2p81pX2hVuWMa8t1QRCXhO26xuBMCRwJIEQhrcUFk0OF4GQHzDtOQihp24CIfTMrUYjUOAJmEDIny4ygZA5dxMIobdJEwihZ55pjaTYSP3aOlhoOoUgSKox/cN8QlNzwa8FLtgjadfCtG8lv3uGvRr23SAZ9wIbbv1yVX73U2Gp338xVig/AWbfxZCJdeEc7DGroRt6/imToTT+0N3d0deEgOLHSmgIMDHgY6P2nIiMefu9WPZtt6GxR2rxT00NZVwygXCY/mXzl39EaOjMoHDWFK6fbghlb5lICB1tv/s+dDWGX03+k0nh1/LwbDEbRUO9cdMEQnjairXaCBgBI2AEjECeEjCBkKd47eJGwAgYASNgBMKTgAmE8Ow3a7URMAJGwAgYgTwlYAIhT/HaxY2AETACRsAIhCcBEwjh2W/WaiNgBIyAETACeUrABEKe4rWLGwEjYASMgBEITwImEMKz36zVRsAIGAEjYATylIAJhDzFaxc3AkbACBgBIxCeBEwghGe/WauNgBEwAkbACOQpARMImeDludf+q3fztAfs4u5plfzEx8fb460zsQe+i4FH/9p3VYRmwPDUSr77Apu0kjGB1atXu69xtu+ryXsL4amVPEUR3qH8PhYTCJn0Ld+chTM2489746cGnunOILAAeChv2PDNghasQmOLvpbt27erTJkyoa00TGrbvHmzSpYsGfJH/4YJnjxpJpNWxEEov6/GBEKedKVd1AjkHgH7uufcY5mdK9nXPWdOy77uOTuWlDvH2tc95w5Hu4oROKYImEDIn+40gWACIX8sL+NaTSAcpjf4+uV169apatWqLrVF6n/RokUHLAGQiuXrWRnY69evd2lr/xWZpAobNGjg9hXs379frJ9xLb+uk1VD4NpJSUluzZzrR0dHu3Uh6iH9Q7voyNjYWPfDcawfcxznUkgV881cVsKTALaFDW7cuFHYJf1etmxZVa9ePW3fyqZNm5SYmOhsLn3B9rA5/61sc+fOPcQWqlSp4mzKl8MJBGwQm+YY/82jpCD5H/vDVmkfx/G//5vlHM7jf47lfqwcSCBcBALtXLx4cVr/+2XRJk2auP7Fb2KnTZs2PeD4VQX1AAAgAElEQVQG//jjD5144onuNWwBW8EW2OvCj99fgN1UqlTpgHMzyyD4rySnTdgYNomts3To36NNvEY7+c0x/psh/d/s/wjlWns42L4JhEx6CeP+8ccfnTHVrl3brQvy+4knnnDrMWvWrHFn4uT69++vhQsXasWKFfrll19Urlw593r37t110UUXCccN6EmTJql9+/bumGuuuSZL9oHxbt26VawFMYBoV+nSpdW4cWMnAhgUtHHt2rXCydNO6ktISFC1atW0YcMGV8/BASBLlYfxQTgeihdFBE5EUqi/ujS3EE6bNs3156xZs7Rs2TJ3H40aNVKtWrWcaMDmfvvtNydgr7zyStWsWVOs2VKwGZwl91+xYkXdfPPN6tChgxOQO3bscMf07dtXlStXzpJAQHBgk/zg5Cl16tRxDtePDUQzzPnNMbShRIkSLnD4rzWm7YWlHGyPBC5eO3iPR7gIBPzK22+/nRaAsUcmP5deeql+//131+dvvfWWLrzwQtfFHTt2dILi1ltv1ZgxY9Ls0otJ/On333/vfNr555/vhEKbNm2yJBA4B5tiAgY/v/mY9vAerPEDcXFxbtwgPvCPiAH8Kvs+qA+xXVgmUV6swwR2iHn64uA9cCYQMvBQGBRBfOnSpS6gY3g4OoLyK6+84pzpiBEjnIHVqFFD3bp1c0aGw3zmmWd08cUXO0M955xznFOcN2+eM0hvfPfff79Gjx6dJd9IpyEM6ESuidNF6SIEuCb/UzgO4UB7CBi852eXvI8h0JbCopAxbLgRELds2eL40IcExXAsv/76q+u/du3a6euvv9a5557rbGLs2LHup0KFCs5OcdzYKSIAocj/s2fPdjM5RCIi4I477tCDDz7ogjU2jvBt3br1AVgOl0GALQ7Gf+qGE2ELb5wvQhmHyzHMAnHK9AH2j7jgNz+ImsJij9w3fYHIozAbhtnBm7/CRSAQeGfMmJE2AaE/O3Xq5GwU+8L+Ro4cmZZt7dmzp3744Qe9+eabTsjio7AN/BJ+k6wWryMayYwhYPFl6UtmGQTYYkfYGH8jELBDJmnwJPhhq/ymPsYBfeEzrdgpx/N6YREIsIA7PoRxCA/Y+Ey5524CIYNogcFMnjxZ3377bdoMCRFw8skn68UXX9Tjjz/uHCuqF+d71llnuRnSRx995K527bXXOnXdtm1bMTCAjIDwzhAH2qNHjyzFKToSR44B+xQwgwtjJu3MQPU78REN/DDDZGDggMgsMBAQC/xfWD4hATcCJI4BJwyXcP60AnaGzZ1++un64IMPXGaK/se2pk6dqvr16zsb5Bhma372NXz4cI0aNcplrPzSw+23367nnntOEydO1E8//aR+/fo5IZy+HE4gYFtwxa4Qq353OecjWHE0tAPmzOI41i+BYbs+i9OsWbNCY4+wwQfgiBnLpUqVyvDTCuEiEPA5CEKCDIV7QqQiwPGRAwYMcMLVF8QD/d6nTx+NGzfOiQh8IEIX+8GXEtyx2ylTpjhbJXBlRSBgq/g1bA6/yN9MkPiba/I/mTL8LuPE+0j8qfet+FFENPZcWAps8JHcOz7S91/6+zeBkIk1EFiHDh2qU0891R1B0MWJvvDCC272NXDgQOcMUcwIAn5fddVVTkUzS2Dg9OrVyxkcgwaHkNOCERPcvECgLaSXUcwECWbJfo8BCpiBS/sRBJxLQZnTxsIiELhnHAdOmYAVyo/p5LSfj3Qegf67775zzg8HSv+SzSI7Qv+yvDBnzhxnd9gKtkH2ipnYsGHDXEYLoXjjjTe6GRo25DNR9erVc3bky+EEAsLAL18w42Bmx3WY+WF3tIfXGR/+mogEronDYWzwOuKhMNkjbBFxiNeDg5/nHk4Cgb70S0z4J7+G/8Ybb+jqq69O8z3cG8GHJYbLLrvMLbV+/PHHbhnslFNOcYKXZYdHH33UZVbZo4AdM/HKikDgGNpBFoLsGYVsGmMEW8UmGf8ICOwSW/dZWXwo/YEd4rcROoWpIA7oR7hklD0xgZCJNbCngIDvA3vnzp31z3/+My2DwEBnMDOzI23bokULtxehZcuWzshIn3E+6WAK7+W0YOAEOZYQKDh9lLCfjTAIeN//xuAJIgQNLxAKozOGld9EF+6B6Nlnn3VBGNVPvzKY+Z/+RThcd911+u9//6v58+c7QcD/EyZMcHaHc2YGdd9997nMwd133+0cJk6d6xDQyUgwo8+KQGD2SL3YnJ+NYZvMRhCh2J9fYuAY6sCBI2LJojGTY1mjsCwvHDzuscnM7DFcBIIX4PggJkDYmO9PBMINN9xwiLvDdk866STnL/GL48ePd/7zkksucRlX7JZrkfU67bTTdMEFF2RJIGBb2CS2jx/G/hCttAlbw9b9hljY8zoTB3w75/FDf4Tr8mNO44o/73D2aALhaOna+UbgGCRgH3PMn04NJ4EQakL2HIRQE5fLLlBCufRiD0oKfT9bjUYgWwRMIGQLV64dbAIhc5QmEHLNzLJ8IRMIWUaV9weSGgvXj+HlPZ3cr8F/H0NhTXUfjqjfL2DPKsh9uzvcFXHIoZythfbujq42NjKy8dDG69FxzM7ZJhCyQyuPj/XPvbYBkMeg/96b4AUZ6+RWDiTAuiwbmCj+ATPGKG8J+Af3HM2G5rxtYf5enY2F/hNb4b6nKH9JZq12JlDsG2FPXSh9pC0xZNI//ul0JhCyZsBHc5TfvOg/k3801zpWz2XzIiKhsHw2PL/70T95srDtpM8Odz4BY19olx1iOT8WMUYs8g9TyvmVsnemCYTs8bKjjYARMAJGwAgUCgImEApFN9tNGgEjYASMgBHIHgETCNnjZUcbASNgBIyAESgUBEwgFIputps0AkbACBgBI5A9AiYQssfLjjYCRsAIGAEjUCgImEAoFN1sN2kEjIARMAJGIHsETCBkj5cdbQSMgBEwAkagUBAwgVAoutlu0ggYASNQcAnw3AkeBOSfiZJXLeVZAjzb4nDPt9mfIi1MkPYk5VUrsn7d1lWkmKisH5/bR5pAyG2idj0jYASMgBHIMgEeJc43nIbia+B56iOPLOYbTjP6xkjEwTvTpZ+XSvyd36VFJWlgFyk2n0SCCYT8tgCr3wgYASNQiAmQPeDJtaH63gu+Cp1HaGf0lMwRi6VHxktLdxSMDikaIw3pLZ1YM3/aYwIhf7hbrUbACBgBI5Duu1gymtHnBaCEhAQnEDJ6bPmQmdKzk6SNe/Oi5uxfMz5aeu0UqXfj7J+bG2eYQMgNinYNI2AEjIARyBEB9h3wXQOh+vZcEwhZ7yYTCFlnZUcaASNgBIxALhM4kkDgmyPnzZunzZs3i+WBdevW6aKLLlKNGjVcS3h//PjxboMjIoM9DZ06dVJmX49+NAKhZKx0SnWpbSVpyFxp4XYpkAGP0pGp2iepWXSCEmPKqaj2KjlCmrM5oMh9iYqNDChVUnKqlBpbVClxpTKkahmEXDY2u5wRMAJGwAiED4HDCQQyC3PnztWYMWO0fv16d1OVK1fWcccd537YdLhw4UJ9//337ttOy5cvLwTAZZddplq1amUI4WgEwo1tpL82SuPWSM90ll6eIq0LfhP7AaVN8V2KUYoe6h6nc75IVteaEapdPkYjFyWpWGCvKhaL0PpEKSVVKlY0StN2ljCBED4may01AkbACBiBUBA4UgZhzZo1evHFF93HICl8xfTtt9+uatWquWzBDz/8oFmzZqls2bLufV4744wzVL9+fScgDi5HIxDOrict3i7NSpDKxkonV5G+X3EopWKpe9S2RhGdWWOvXvljr5qWj1RciWLavD9aHSqmqH3VgCauidLoRXvUrl5R/WfWoe3kqpZBCIUFWh1GwAgYASNQIAkcSSCsXr1aL7zwgvi0A4XNjHfeeacTCBTeHzJkiE499VT3//Lly9W1a9c0wZCbAqFPHaleWWntTqlqvDQ3QRqx5lCsZQOJ6tk4XhWj9mvN1mRVKBGltftjNG5ttF7qIcWkJqtYkWgNm7dLnyyO087UaMsgFEjrtEYZASNgBIxAvhE4kkDYuHGjPvzwQ7d0QGEZYcCAAQcIhHfeeUctWrRw77PU0Lt37zwRCKVjpTaVpei/J/xNSkqjVkuztx6Ir0xksralRqtH1X06v1FAiSlR+mBuhJYkJOnRjpEaty5a+5Oky1uk6vKhu7UrxvYg5JsBWsVGwAgYASNQMAkcTiCQNZg6daoWLVrknpVAYYmBfQhkCSgjR47UkiVLFB8f7/5nWaFZs2Zq165dhp+MOJolhoMJNi4jnVhJem/+ge/c2iZVb8+K1JVNUjQzIVKl4wLasU9asS1V5YtG6OwmURo0KaCaJQMqEZGi3zfFWAahYJqntcoIGAEjYATyi8DhBALvkRHwywu+jYgA/+TFxMTEQx7RzDIEgiG39yAczIgtDqVipW1B7ZJWKhaVEvZI5eKkzXuCj0vmaYj7kqWUgFSxmLRhlxQISMVipMRMHutsexDyyyqtXiNgBIyAEch3AkdaYsjtBuZmBiG323bw9Uwg5DVhu74RMAJGwAgUWAJ8lJFPHmT06OO8aDQCgWckZFTf13OkgROlNbvyoubsXxOB8E5PqUf97J+bG2fYg5Jyg6JdwwgYASNgBHJEgI8vbtu2zW0qzOtvc2TJYfv27U4gZPSo5V17UzRwgjRyRaR7RkF+l1qlAvqob0BF8+nbmkwg5LcFWP1GwAgYgUJOAJHAJsRQCIS4uLgMxYHvgp17kvTn6oB2JWX8bIJQdRX7GzrVTFXxorEZ7qUIRTtMIISCstVhBIyAETAChyWQ1+LAV57RxsWDG3bwpsj86rpQfT9FZvdnAiG/et7qNQJGwAgYASNQgAmYQCjAnWNNMwJGwAgYASOQXwRMIOQXeavXCBgBI2AEjEABJmACoQB3jjXNCBgBI2AEjEB+ETCBkF/krV4jYASMgBEwAgWYgAmEAtw51jQjYASMgBEwAvlFwARCfpG3eo2AETACRsAIFGACJhAKcOdY04yAETACRsAI5BeBkAmE1IC0Zru0fFt+3WrW642MkFpXkYrFZv0cO9IIGAEjYASOfQL7k6VZG6TdmXwDY24SOKFG8Fsg86uERCDwlZaT1gb01IQIbdubX7ea9Xp5wGaVEtLg3lLRjL+mO+sXsyONgBEwAkbgmCCAOHhpivTzUikpBN/V0LCc9Eav/BMJIREIifukN/6UXpwaXjay4FqpVJHwarO11ggYASNgBPKGwIjF0iO/S0u35831D75q0WjpvdOlLnVCU9/BtYREIGzfK700SXpzZv7cZE5rNYGQU3J2nhEwAkbg2CPw1RzpqRB+HTRf9/zaKVLvxvnDMuwEQnREQCxZpChC/BEXHaF9KVJUREDscwjAMRAI/o6IlAKpwd85KCYQcgDNTjECRsAIHKMEjiQQiDTRkQGiU1rZl3rot0LyiotRRygmEI5EKN37kUpVu1J7FEhO0qzEYqoVv0tnNy6mV/6KVLti27UzWVq7I0V79yWpfMkorUitqMqBrdqoUu4qyRHZ2+1hAiEbnWOHGgEjYASOcQJHEghVY5PVsuRuFYtKdiRioyP1yZrSaVSKKUlJilRURKSb0O5XhOIikrUnEJ0hORMI2TCoGnH71LpsihqWj9XMjUl6pFusfl2cquenR6tn9STt3bNH01fv1d6kVL15Thld82ucHusQ0NMTpfJxAZUqKi3fGaHYiFTVKxup6av3a1tq5psMTCBko3PsUCNgBIzAMU7gSAKhVZlUbdqyTWt37BNphJblY5UQVUpr9wQFQIeKqUpITFJCYqrY45gSEaGm5WM1ZXPGWW4TCJLKxUv9Gx1qWe/Pkvan/O/1EyoFVL9EslKTUxQbX0TXtE3ViIWpeu2vSPWtvlOz16dq8+5U7U9O0ZnNimrwouL6tHeqrh0eoROrpKpHPenNv6JULLBHnWukKjI1oOdmlcjUpE0gHOOj3W7PCBgBI5ANAkcSCNXiU1U5dp/kwr9UJDJFFYvFaOjqePd/7fh9Stq7T/uSWRIPKFkRKlM0Viv2B98/uJhAyIZAaFBKKhkdUNtKqRq2PEJD+gY0ZkmqXp8dpbva7NPmxBT9OHeP9iVLe5MDWhNdQSPOl/4xNKBO1VJVtUykXp4WqTNqJWlFQpKGnB+nVu9lvj/BBEI2Ro4dagSMgBE4xgkcSSB0rBZQ/3rJKl2EuBKhCkWTNGFtjJ6eEowzZ9Tar2U7orRyW3CJIRAlXdFkr96cbQLhqD/FgECIV7JSA8k6q0mMpq0PqH2FFL06K1rXNNytNbsCGr00WXtSo7UnOaDdsSU10gkEqWP1VFUrHamXpkVoUNdU7dmVpHNbxarJu4duIPE2bgLhGB/tdntGwAgYgWwQOJJAqFtKuqxpQIs37dPKPUX0WKdU3T4qStM3Bit5rFNAExfv1G9L9ivAJvvYSH12SVn1+jTjOGQZhGx0TpkY6YzaATUuH9CyrZFqUzUgdNlD46UTKqRoVWKEWpWXKhSPcLtIB0/dqY8vKKWzvwk+FTEmStq0W6peXGLDY/EikZq7OfMGmEDIRufYoUbACBiBY5zAkQQCt18uTkpOStW/e0dq0oqA/m/m/4L/re2kOeuTNWFVcAmiWEyEnu8Zo8uHZwzOBEI2DArMPHYyOlJKSmGHqPtEo3YnS9ERUkpAiomUeFQyxyYnB1QkNkI792ejknSHmkDIGTc7ywgYASNwLBLIikDw981D9vYmy30M35e4qGCcSv77KYzEqfgYaVcmj202gVCArcgEQgHuHGuaETACRiDEBLIjEHKjaYVCILhHLU+VXvwzN5CF7homEELH2moyAkbACBR0AiMWB/TI+Agt3RGalrpHLZ8WUJe6me+Vy8uWhORJiuzW/GNVip6eEKHt+7L2BKm8vOkjXZuuqFw8oPf7RtmXNR0Jlr1vBIyAESgkBPbsT9H/TQ5oxLLIPP+yJuJQ/bIB92VN8fn0lY4hEQjYTnJKqpZvTtbKbRFZesRkftpb8OueAypT3L7vOT/7weo2AkbACBQ0Arv2JuuvdananZS3s/qICKl9tYCKF82/OBQygUAn87GO1NQQfEdmLlhUZGSkIughK0bACBgBI2AE0hEgjhHP8rpERWXv6wFyuz0hFQi53Xi7nhEwAkbACBgBI5A3BEwg5A1Xu6oRMAJGwAiEgEAoZvIhuI1cqSK3s94hFQihSsvkCmm7iBEwAkbACBRoAiYODuyejATC0SxThEwgIA5SUtI9MaJAm501zggYASNgBAoyAcQBMYXfMTExBbmp+dq2o2ETMoFAR4bLBsV87U2r3AgYASNgBA5LwG94T0pKcnGlaNGiRiwTAiYQzDSMgBEwAkag0BDw2YN9+/YpOTlZpUqVKjT3nt0bNYGQXWJ2vBEwAkbACIQtAQQCwmDv3r3ud5kyZcL2XvK64SYQ8pqwXd8IGAEjYAQKDAEvEPbs2eMEQtmyZQtM2wpaQ0wgFLQesfYYASNgBIxAnhHwm94RCOxDKFeuXJ7VFe4XNoEQ7j1o7TcCRsAIGIEsEzCBkGVUR/UJD/sUQ9Y525FGwAgYASNQAAiYQMh6JxwTGQQ6nFTRjh07VKxYMcXFxYnvQ9i/f79Gjhypnj17uvd4rXTp0u7zr2xQ4ea3b9/udrHyQAje51rpHxjB/9HR0VknetCRnM8P9XOd4sWLu3ooH3/8sc4//3wlJiZq165dqlatmjs2/QM8+JvjWSujxMbGumP9PfIa7/n2c/zcuXPVuHFjd59TpkzRSSedlPZdFlzL15/jmwrxif4jrvQn9+nvlT4fO3asunbtKnYkU/xHljjn66+/Vt++fd39ck76zz5///33Ouuss9w5R/MwkBCjsOpymYC3rTVr1rgrMwb9+Pjmm2/Ur18/bdq0SVu2bFGTJk3cmJo/f74aNGjgfEeJEiXcmOScpUuXqmTJkmn+hGOPxsFi78OHD9eZZ57p/AJ2im/ydsy45/rUw+vp6xo9erS6deuWRssHRXyQ92/+OQC85n1Obj9NL5e7K1culx2BQB/T3+3atXN+Fk5FihRx/Q2/FStWuN81a9Z0/v1Y+x6eo7HfApFB2LlzpyZPnuwEwtatW90ApZN69OihlStX6tVXX3UDmGDAAGvdurWGDh2q9u3bu4HnBcM555yj448/XgsWLHABde3ate5a7733nv7973/nyDAxKAIYBomDwYAI7CeffLIL8o899pi77tVXX60NGzaoe/fuGj9+vKZPn+521nJPOKl77rlHVatWdUKiefPmuv322925nMP1br75Zt1yyy3unjHWN998UzfddJP++OMP/fDDD7rsssu0ePFi/fLLL06QUE+4FO6Z/qUgArw4QBQsX77c9S/9/c9//tMdU69ePWcHEyZMcO/Rh/Hx8brzzjtFEPj5559166236oEHHlDbtm3dYL/77rvDBYe1MxcJ+PFJIF61apW7coUKFZzgZBxdd911OvXUU1W3bl0tWrRIl19+uRCWX3zxhQsYjK1GjRq5MYUt/fnnn6pSpYqeeOIJ3XXXXe64F154IcctXrdune644w5df/31+u2333TllVeqevXq2rZtm9avX69rr71Wzz33nGsbIga/QMHfPPjgg3r66afd//gaxPJPP/2kq666Sp07d3a+ZciQIW6ccA38A6VDhw45bm+4nJgdgQCXDz/8UG3atHG+B7ug7+kH+p8JH36mVatWThgSU/BBx0oJe4FAJoBAgcEnJCS4gL9x40annhlABNLXX3/dZRYIJBdffLG+/PJLzZs3TzNmzNBtt93mBhwdTrAgmBDACboE5g8++ECPP/54jvobQyQoEeQYwAgV2ogAuf/++/Xiiy+63xUrVnTHXHTRRa4Nc+bMUaVKlVyW45VXXnEDmEwAg/zSSy91apXjMEycwpNPPumuw6YbFC4CiAB4yimnOCeFI2AjztSpU8NOIOC8V69e7cQBfexnTMzmED6PPvqoE0Twopx33nn6/PPP3UBFXJ144olO9OFkf/zxRyf4EIM4yXHjxrnZwSOPPJKj/rWTwpsAY4VA+9dff7mxRsHWzj77bL3zzjvq3bu3sy2CPuP3xhtvVI0aNZxgZawhFvr376+GDRtq2bJlTpBjdwTm1157zfmXXr165RgS4512UAcF30WGDCGCX2JMMNFhEkJbsX0KmQzEDRMCCu3ib97H73Xp0sX9T1vxkwMGDHATDyYbiKNjvWRVIGAfs2bNcj4YVogBmGMzTMbg9q9//ctlEZhQ0k+IA7JKx0oJe4FABoF0GqKAND6dSMcSPAgQzABGjRrlBjgCgZQhqpkgzGzy+eefdwobJzBx4kQ3+0Rlcw4ff2HgM8PPSWGG8uuvv4qZACLEp/KYcRCsmcl/9913LrtAKovAhRDwipX7IKNAcONaOCsEAU4KRzFt2jSn+JllMGOBAc4Kh4E4YvBTP4EVp4GhX3LJJWGVQYDLiBEjtHv37rQMAhxhCDucHfdLH1JgStDH4c+ePds58tNOO80JROzjq6++ctkGBBMszzjjDMfESuEjwJhCJJI9INtIwU4QCARVRCi/sSHGMHaCmPePfR8zZowT/Ywz3n/jjTfUp08fd01sDqHK5CSn5T//+Y+zcTIX2DcBiHFPdhDbRhwwoVmyZIlatGjhsmSMjYceesgJaZbXmPniX/B13Ac+jfYS8IYNG+aCHOf5pToTCP/rLfwvPvbtt9/W6aef7sQVEzOyChdccIGeffZZXXHFFW5ygm/u2LGjY45/PlZK2AsEjP+TTz5xg5wgggpmlo6CZy2+du3abubNawiECy+80AVhRAVqkAHCe6TwCSoMfgYV1yOwEnT9WnV2O53ZL7N3UoC0jfpRmgMHDnQDuXLlym4msHnzZiF0aBtKHvU/aNAgJ3QQBx999JGbNSBmaG+tWrXc/goCHDNifjPIyZ7gwAiCXiB8+umnGjx4sFuymDlzZtgJBITdf//7XyewcOgwpN9I43I/derUcak+MjAUBiiDmiyRT7myZIPQwDEiAnGUpGvJEhEEHn744bDbl5FdW7TjDyXgl/CwI3wAhfFOVgonj2jAV5AFxA7/8Y9/qGnTpu51liLwF2QLyPCRefAz9k6dOumll15yY/m+++7LMXoEAnuoCERMXNj3QFvIiOEv8FF+KZUJDxlPhIAXM2QY8RfcJ+dg67QVgUEWhAkJ4oNMJgGObBsTqGO9ZCeDAKdvv/3WTSTef/99JwiZnCAG+I2vRUQiCvHf2AUx6FgpYS8Q/OyYgUFwP+GEE5x6Zk2QwHDccce5NbmFCxe6NSQGGQ6B/+vXr++CDTNOOp7OJQAhEAjaBHICLoMqJ4UAzyBmpkEaitkum4DYB8H1CfQcwwyAtBVGh2BApTJbwAF5gYARMmsgNU57cRDMWFhOwEh5nXuAA2thOAYcFZucyELAiUCKk2PpIVwK/QMfBiCiiP4kS4SjnjRpklsPhBf7MSh+qYGlI2ZYFPqaQXvvvfe6rBJ2QGYI0UCmiX4oDJuzwqXPQ9VOxh7CgCwbtsT4REjjOxCjjEmCKuKc2SNjBxtEIHAeY43XEeAICOyJ1zgP22MSwIw8p5+zZ4wz06defpjxY8cEcsQDEyMmAixlIJQZE/gVMiDsvcFfkDn0GyoRPfgjXieY4S/wK/gOjmMMcJ1jvWRVIMCB/kVowRn+ZJqJL4gDGHqBwMSDPsL3wvVYKWEvEOgIP9D5u3z58mnOnlklwYTCDJ4BQEoONY6RkG5jwDMQERd+dyprSBzL+hOdzUakoyk4DuonePkd0gQ+6qMgBGgHg5pgiBGSSqRNpLOo389wyBIwQyDg025mKVyL40mhk6FA6HBvCCHECIVZM7Mc3uMa4VbIFNFnOFsfzP2Skv/ECvfkB6d3eLwGW/jgIHGgnjODGdZWCjcBxhH2xfj0sz8Egrcb/Ajjl8kCBTvkHMYhvgcRwbdxFGkAACAASURBVBIAfzPWEQu8hp9BcPhxnl3KjH/2R2CvbJRk/LIEgt0SuPABjGds2osQ/J0f37TT78vyy5uMFQQCYqKwfnonOwKBfoU7kwj6Fj9Cv7JnzWdlsAWOIyN8rJVjQiAca51i92MEjIARyCsCBMhw+6hzbrLIjkDIzXrD8VomEMKx16zNRsAIGAEjkCMCJhCyjs0EQtZZ2ZFGwAgYASMQ5gRMIGS9A00gZJ2VHWkEjIARMAJhTsAEQtY70ARC1lnZkUbACBgBIxDmBEwgZL0DTSBknZUdaQSMgBEwAmFOwARC1jvQBELWWdmRRsAIGAEjEOYETCBkvQNNIGSdlR1pBIyAETACYU7ABELWO7DACwQePsIDS/zXHWf91uxII2AEjIARMAIHEvACgQfUEVd4mJWVQwnwQDoeDJXTErKve85pA+08I2AEjIARMALpCVgGITT2YAIhNJytFiNgBIyAEcglAiYQcgnkES5jAiE0nK0WI2AEjIARyCUCJhByCaQJhNCAtFqMgBEwAkYgNARMIISGs2UQQsPZajECRsAIGIFcImACIZdAWgYhNCCtFiNgBIyAEQgNARMIoeFsGYTQcLZajIARMAJGIJcImEDIJZCWQQgNSKvFCBgBI2AEQkPABEJoOFsGITScrRZJu3fvdhzSP7gjJSVFS5YsUcOGDd17y5YtU6lSpVS6dGlFRkZq4sSJatmypdauXav69esfwHHfvn0qUqRIlthu2rRJW7dudfWsW7dOZcuWPeBc2rFixQr3WrVq1Q64Jg/6wiHRHh48kr5wTq1atbLUBjvICBiB3CGQE4GwZHOw7nrlMm7DnqTg6/Ex0rQ1UssqUnRkztu7a3/wWgm7pIrFpZTU4LVWbpMqlwi+l7hfKh6b8zry+swCIRCSkpI0YcIEjR49WmeddZZatGihL7/8Ur///rvuvvtuVapUSWPHjnXH9O/f3zn5d999V0uXLtWDDz6o+Ph4jRw5UlOmTNG5557rzs+tQnCYPXu2Pv30U/Xs2VOdOnVydY0YMUJXX321GjRooFmzZunzzz/Xaaedpo4dO+rbb7/VuHHjdOONN6pu3bppTeGpX998843++usvXXXVVapXr577f+rUqTr//PPVunXrA5pNQB04cKD7Ibh999137jfHVq1a1R1LYJs5c6YLsuedd56o4+OPP9bpp5+uKlWqpF1vx44d7jhY0uYhQ4Y4Xvfff78qV67sjmPQrVy5Uhs2bHAMCeQJCQl67733XD/ktOzatUvTpk3TwoUL3SW8GDjxxBO1ceNGF5jpa/r+559/VocOHUTw37Ztm/uhnbT5iiuuUGxsrNavX6/y5ctrz549LmDzm+Pef/99d33um5958+a59/v16+eOmTFjhmrXru1sqUKFCrrwwgsdE+4VW0IAUNq3b6+oqCjX757LmjVr3PvwHTNmjLO5e+65x9nCmWeeKR5nerB4yCkvOy/rBOjXV155Rffee682bw5GgHLlygl75/WHHnoo6xfLgyPP/1xKDkhFIqVT60pJAenXZVLRaOm13tKDI6TFidITnaT1u6S3pgSDEkFjUE/pzp+k1Cjp9dOlvcnS8xOl1BTpgY5ShWL/a/D8TdLTE6QWlaRr2kh7kqX+X0ldq0qPdpMWbpaeGi+dUEO6qrW0ebc04Fupb23p3k5Set07bIH0wlTpzuOk0xtKU9ZKD42Wzmsc0KWtI/TTQunladKTnaST02nj3UnS4OnSz4sDeryb1LpyhF6bKA1fKT3VWWpYXnptivT7ioCeOCVCLSpKa3dKz42XXj4je/CzIxCWbpVuGhZQhCKUQl9ESdWKSS+cIb00QZq1WfrobGn19mAbapSWfl4oLUqQNuyS7uwo7dwnJaVITA/2pki79klVSwX76uUJ0lM9D2x/ICAt3SIhOmqWloYvkOJjpT6NpS9nS62qSDv3SpsSpXLFpDLxUoPyGTOg38csk1ID0qn1peRUKTYq+Jt6ikRnj112ji4QAoEgQfA//vjjXdsJgjVq1HAzSQTA7bffrsmTJ6tx48bufWaTTZs2dbPA66+/Xs8++6wL0jxus0SJEu7c3CoEKsQBQSYxMdEFAYIDdT366KN64IEHnDjo06ePc0o+cG/ZskWDBw92AdiXn376yf3Zq1cvvfjii7ryyiu1YMECVaxY0d1zu3bt0o5FmMyZM0evvfaa3nrrLTez5r4JhHXq1HH3T6F9BFj4XX755Ro/frxjgVggiBJMCYY4UkREdHS0m/HyOy4uzomcN998Uzt37hR1IjgQCNRRvHhxJzYI7Nzr0RTqnz9/vhMdMCLQM1un3XPnzlXz5s2dCKC+k046ybVx8eLF7t6wD/qac3r06OHEI6z4H/YIMYQP2QYKAmPYsGHuN8fwM2rUKMcP4UAmgmt369bNBfbhw4e7tnmmp5xyiuvjP/74w10Xe1q9erV7DTFF351zzjkuICEw2rZt63iVLFnyaBDZuTkggIh+5JFHdNddd7n+YPxjX6tWrXICgb7Kz8KskUCB89+bJG3bG3TsUZFSXLS0ZJtUIlraskc6sab07TypXlmpeSXptuHSS6dLcxOklyZJFzQJBqj21aRdSUGBEBkRFA4bEqXqJaX3ZkjNK0qDJknvnRkMhl/NlZpXkFpUll6cJLWrLP33L+nVXsE2LEyQmlYMUiLI794vlY6Xnh8vXd9eunCoNHyA9N38YDv7Ngq+f/33Ab3Vl7AbLD8sklbtkHrXlyaskLrXk7bvlUoUkcatkHYkS1ER0mUtpZt+lJ7tIT07LjizHnhq9nopOwJhf4o0frm0Zoe0aKvUtY4UFym1r4FYCTJ7rGtwNk9ByGzaJT3zu1QyWnqgS1BwbdsTDMz/nhpQq8oRmrdRurGD9ML4QwUCfbLs734ft1wim1CuqFShqPTHKmlegnTD8UE+ZBdKFAkoLubA7KQngsiYvUEqXzQoIrfuljrVlpZulri3RhWkknHZ45fVowuEQKCxBF9m0gTLRYsWidklfxOcBwwY4IIvDpvBjyPGQAhwOIe3335bpJA5nyDDzDw3Z3MEYWafzCD5mxQ0AYEg1Lt3bzerZJbLrJPgRkaEWSrBloC2fPlyFStWzGUOKKeeeqoefvhh/fOf/3QigO+pIDh37drVOTkCOsGZe7juuuucQKAQ7BEABEfq94XA98svvziBQEGIHHfccU4g8DqZDwp1URBazIi5/ksvveQYIgI4h8LMmZk2bcABP/fcc0clELg/+HFvfpkANvTV9u3b9cUXX+iiiy5yfYhAQEBVr17dBW9EFlzIMJBhQSgQ3GGOqIEVyxHdu3c/RCBwD1wDUfDjjz+6bAh2RcCnXoI/ggXxScaHfqPQFvh6u7rpppuciKDfySARdM4++2wnYhAwNWvWdJwITlZCSwDuZA/ILOIjsCkv9BANgwYNCm2DDqrtYIHw13pp9U4pPlrqUU+641fplOpS/XLB2X96gdDw39LCa4MC4f8mSo91DigqMkIViwX044IIN9NFaCA8mCWf11yasS4oHF6bJP2rq9yMudv7zP6DmYLhC6XaZaQZa6X+zYLvPz1GurhVMFATyOqWlcoXk9bvlKKiAhrwbYR+vVB6e4ZEsHu0UzBN/+tiqVOdgBYlRDgRwDnfzJdiIqWisVK5IlLbqsE2b9sT0CfzItxs95rWUvdPpK/7B4998jfpqTwUCIiyr2YHsyRLtv4twCpK7aoGMwjj10h3nhAUbvRDqTjpi1lSlzrShzOks5tIlUsGhRMZg42J0ujl0pwNQfHw3rRDBYITTPOkUxtIL/8RFBiVi0mNy0uLNktnNpF+WRR8LTpKqlM22C8ZFQTC2GVSTLT0x9qgQOxcI6CRSyNUtXhwCYN68qIUCIGAsyd4MaNs1KiRS/cy8JlVMsBvvfVWl6ImYPEaAccfT3Ah/U3QQFAgHAgAuSUQuB6paurE8TCbZYbdpEkTvfrqq65uZpEEPAIYgR5HRfaDmS2z8+nTp7sgRoDii0WaNWvmUtMEQoITa+wEQMQFMx+CE4EwvUDwWRaWLDgfMZIVgYAo4frpBQLnM3OH52effebSsKzL++WQ3BYIZA8QfQRqAjqF+yWVz7IJwoAMDKlhMgJwhiccuG/OpZxwwgkuSNP3zOR5j36gwH3SpEnub59BQIiRPaA/EB7wZOkFW4GBz9xgWwgm3zYyC/Q37f7hhx/c0tH333/vlq+wTYQqGQSyDhyLcOR4BKuV0BLATzzxxBN6+umnnT1Q6FdKQRQIzPgI6gSr1FRp1fZggPjPdOmZHgcKhKcmSBc1CQaX92ZKPesGz4uLkkrFSgl7gilmgvO+5GCaeso6qWkF6YUJ0jt9pbkbggEJ0dCgnDRskdSmivTxbOm5HtKkVcFZPYFvf6pUtUQwC3BcVenlydIdHaS7RkiDekjjVgVT5tTdvrp098jg0gfZAWa3rNAhMgiCZ38pvXWaNGZFUAiNXCoVjQmmybvWkgbPlG5pH2x/XgsEZumjlkpzN0l/rpW61pZqlJL6NJL+7w9pxibpmVOkqauD94V4m58QzMjADjFwen2pVumgbcdGSxNXSlNWSw90k54cnblASMFvVQ8uUZQtKhWLkb6fL3WuI13zrXRKnaBIYskh/XIN9RD4KSwHJeyW9qVIszcG1KZKhGqWkr6dH1BsRIQqFZfObpY3465ACARm5QQJAgQzPhwuKXXS+MxsCbwEMAIM7+OMyTgQJJk9M1P0AsGn/3MLFwKBOmgbaXnqZJ2emSdtI6gzi6RtvE+gYmbL3wiDLl26pDWF5QGCDvfAD5kQBAJZEZYYfCBP33YyEZ07d3azb5YtmK16Rv441vhJgSOuKIgMgh0BC3Hjgyh1UOBKm6mf5QiWdnCufrMd9TAbph4EDbN/n13IKVfaSHD168T0Oal8hBIi5oYbbnDtRSD4DAd9DBt44vRhTBaFgE8mADsgi8N9sA/ABwgyA/QRWQi/r4DsEiy5VwQpdSGIyLacccYZbi8IGRdKq1atXEYIYeCFKXUiNhB6/OZ8MkMwIhuBwPF15ZSRnZd9Atjnn3/+6cQjY4uCD6Ag5LCT/CwEwB37grNSgicCwRfeI+2NQFibKJ1cQ1q+NZguLhsfPHb9zoCiIyOcGIiJCqbBU1KkZhWDwsAXUuLM+Lfvl2qXDqaw21SSNu4KLh+QHufvTXukWqWkmRuDSw1smCMopi+T1wRT4ZPWSec2lmatDwZUCvdBoC0TJ/2+RrowXWBavCW43FGndFBMdK8t/bxEalJeWpMoNSobnIWzOY9UPYKGDMY0ZsUHteFIfZadJQbue/giqW6ZIL+afwf+MxpJX84NqGR8hFpXlL6aI7WpKnWu9b9Nim9OkUoWCQqMs5pIsZHSrA3Smu3B5ZYONaR1OzMWCF/NkkoVlVpV+p9A4N6/m/c/gXB3x6Aw6Vxbanvg3mht2R20Ab/kg1CkTifGImAY0M59Ec6uyEDkRSkQAiGzGyMA4IwzKgRinIP/rmsMhh8CcyjK4dpG/aSrM/oebtpI8cGE+yBY5tXsk+tnlk1J/ymAwx2XGzzJCBBICfoU7hcRQx8iVvzSA2KMzAaFv8nEsDwDL/oW8cL/vO73aZB5IrV8uELdiFCOJTtDOxB5CCuEAhkEbzvUj5DhddrHuQQdziFzAU9EC9dCsMDxSPXnBkO7xrFHAJHAzJC9ABn7uWDqG3FAcRmIiGAW4uDCcRS/856sQvoNbAe/TzDPrF6WLYrEBPc80EYCuct8/F0p53Ltg1fNyRAEFGwjhb/3JUlxMcH//U7+jNqfnd7NjkBgvwb7QOqUCW7+JOCu3hFcJqGZBFtm+CzTMBuvXFza8ffeiRnrg3sSZq6XqhQPMkCMpb9vrskxBxeEQ5USQX7p+xAhV6ZocImidRVp7Q6pdJxUPIMPZMGLrBFtPLjAOqPXs8PxSMcWaIFwpMbb+0bACBgBI1D4CGRHIBQ+Orl3xyYQco+lXckIGAEjYARCQMAEQgggSzKBEBrOVosRMAJGwAjkEgETCLkE8giXMYEQGs5WixEwAkbACOQSARMIuQTSBEJoQFotRsAIGAEjEBoCJhBCw9kyCKHhbLUYASNgBIxALhEwgZBLIC2DEBqQVosRMAJGwAiEhoAJhNBwtgxCaDhbLUbACBgBI5BLBEwg5BLIgpBB4IE2PDiIh85YMQJGwAgYASNwNAS8QOCpqMQVng5r5VAC/ssFc8ompBkEhIIVI2AEjIARMAJHQ8B/8yyP12byydNRrWRM4Gi+lyikAsE60AgYASNgBIzA0RKwJYajJZi1800gZI2THWUEjIARMAIFhIAJhNB0hAmE0HC2WoyAETACRiCXCJhAyCWQR7iMCYTQcLZajIARMAJGIJcImEDIJZAmEEID0moxAkbACBiB0BAwgRAazpZBCA1nq8UIGAEjYARyiYAJhFwCaRmE0IC0WoyAETACRiA0BEwghIazZRBCw9lqOYgAn12OiYkRn2fesWOHSpYs6f7mM7tH87ldquF6RYsWVXR0dLa4JyYmuuOLFy+edt706dPVpk2bbF3HDjYCRiBvCeREICzbEmxTnUwembAnKfh+fIw0Y63UvLIUHZnz+9i1P3itLbul8sWklNTgtVZvlyoWD77HMcVic15HXp9ZIAQCgWHTpk1auHCh6tatqypVquj999/X5MmT9a9//UvlypXTmDFj3M/555+vFi1a6NVXX9XatWvVoEEDXXLJJRo9erQmTJigCy64QE2bNs01brRt/vz5Gjx4sE4//XR169ZNP/30k4YPH67bbrtNderU0dy5c/Xf//5Xffr0UZcuXfTll1+6tt57772qXr16WlsIirw3depU3XzzzapVq5a++uorTZw4URdffPEhgYinhD355JPuZ/v27frmm2+0ZcsWDRgwQFWrVnXXTUlJ0YwZM7Rs2TKde+657qEhH330kXr16pV2jA+aHFe5cmXHjPZOmjRJTz31VNpDRvbv36/PPvtMixcv1vXXX++Ove+++1w9zZo1c5xzUnbv3q1p06a5/qxYsaJOPfVUlS9fXlFRUSIor1+/Xi+88IIY9JGRkbruuuvUqFEjPfLII+Jc7n/lypWuzdjGOeec4/heeOGFKlKkiGPAA1N8YJ81a5ZKlCihuLg4d288aW3JkiXOvijNmzdXzZo1FR8frwceeEB33HGHu8aaNWsUGxurrVu3as6cOe41X0qXLq2TTz5ZtWvXzgkCOyePCNDv+IJ77rlHmzdvdrXgL7Crl19+WQ8++GAe1Zy1y/b9WEoNSDGR0mn1paSA9MsSqWi09G4/6a6fpEU7pUHdpFU7pTenSFERUtEY6a0zpWu/lRQtfXCWlLhPGjhBSkqSHukiVSz2vzbM2yQ9NlY6rpp0XdtgMOr2sdS9qvRMT4n3Hxkjda0r/bO1tH2vdNrnUv860kPdpIh0t/PdPOnpydKjJ0k9G0gz1ks3D5f+0Tygq9tFaOhcadBU6dUe0vH/c2/anyL9e6r03YKAXugltagUoZcnSN8tk17uLjWqIP3fJGnU4oBeOj1CjStIm3dLT/wmvXxG1nj6o7IjEJZska77IaDIiAjXFwT9msWkl/pIg8ZL87ZIQ/pLq7YHr16ztDRsvrRim7R2p3TnydKOfVLy3wGea2zfI9UoI/Hov1cmSE/1PLD9vL50c1AA1C4rDZsnxcdK/ZpIX84OctuUKG1MlMoVlcoWlRpWyJjB3mTpt6VSckA6o2HQnqIipdTUYP1HI2KORL1ACASCwOrVq92MkqDBAGf2x0zwtddec8Fq1KhRLjAgCpgd+mBSqlQp5wwIdgQ+SsOGDY9031l+nyD94YcfOuGxa9cudx6Bh4Dx0EMPOQEzZMgQF5x37tzpAiAzYP7GcRHkfEFYUAje//d//6crr7xSixYtcoEY59a6deu0YxEmBLo33nhDb731lgtwBDDuFVHSpEkTdyztI3giji6//HL99ttvLrjRXoIw16WtOFKuAVeCI4GQ4Hr11Ve769MHMKQQwH///Xe1b9/eXRvGxYoVcwE1pwWR9euvv7q+bdy4sRMc9PfAgQPVoUMHJwzhS120F8GA00cwwBc28+bNc6KAe/rggw904403ujYhAGg//QKPFStWuH7gPTITBHzsB34UhBlCjvvnPY6F67Zt29z7iACO533qxyYRel6U5ZSBnZf7BOj3Rx991AlZ7ALfwHjCBvAdL774Yu5Xmo0rEqiXbpEalJf2Jkk790s8UDYyUoqMkDbskmIjpHU7pY61pW/nSfXKSs0rSXf/JD1/mjQ3QXppknRuI7lIfmJ1aV+KVC5eioiQ9iVLCbulSsWld6dJLStJz02SPugrxUdJPyyUmpSXC8jP/yEdV1X6zwzpzdOl+Ghp2VapQbngTRGMECKl46Unf5NuO1m68Btp+ADp+wXSjr3BIFUqTrpqaECDz45IExdDFwTvp19DaeTi4HEJu6SS8cEAt4f7jpAuayndMlx6urv0+OhggBt4ajagiuCYmjYxYFKEX8msIFzGLw8KgMXbpG51pBhJHWpKU9ZI70yTHu8aFE0UAjV/PzRKqhAnPdhF2p0sbdsjxUZJr08O6ITqEZq7Ubr+BGnQuEMFAtmIlduk+uWkSaukxP1/C4F46fcV0vT10h0nBXmSTSgeG1CRmPQy7X93w7XmbJAqFJM27g4Ki061pcUJQTtoUTnvshAFQiB4FAQjCgEMhz1y5Ej3jO1WrVpp9uzZ6tixo8aOHeuc/vLly13QwyH069fPiYnx48e7GWZup4SZWc+cOdMZJMGoWrVqLkj/+OOPOuOMM7Rv3z6XFcBoO3XqJI4no0GA6dy5sxM/BCuuQenRo4cTFtdcc417jeMJRN27d3cBC2MnIFOYTRPAKWRZEABt27ZVvXr10iwI0fTLL784gUBBiBx33HFOIAwbNky9e/d2ryMcKARoziHwPf/8887BEnx9IWDzGgGarAWBnJk47c5J8csIiA6ECUGcth1//PEuq7Bq1Sp3ffjCgrZ/8sknThh6UfLnn386xmRpEDmIhhtuuMGJAi8QNm7c6AIDhfPIhFx66aVOrLFUQJbFOYCGDV0WasOGDU6AMcukH+hTCgIBsQBv+pQ2Iw7oTysFiwACATvt27ev8xlknhCflLvuukuDBg3K1wYfLBCmr5NWbg9mCE5rIF33k3R6raAgIICnFwgN/y0tvDYoEP5vovR4l4CiIiJUoVhAwxZEqG7ZYHDdnSQtTJDObyHNXC9VKEoQCwY26u/yvnReY+n+ztJPC6XaZaSZ66SzmkopAempMdIVf2cdCIx1ygRT4hsSETIBDfg2Qr9eKL09Qxq7THq0czDwjV4inVw7oOVbI1yavEy89NkcKTZSqlhCKhYptasWUFRkhLbvDejjuREqEi1d01rq/on0df9gZgUh8lQeCgTuiawHYmrRFqlhOallZal5Ren58dLEtdJdHYJmAhvu45OZ0in1pPenS+c1CwZxsgHwRsyNWiYnEB7qIv13+qECgWv9ME/q0UB6flxQYFQpLjWrIC3dKvVtEuRXvqgUHSXXl2QuMioIBLjHREsT1konVJM61who3IoId03a06N+3ph5gRQIzOgI+AQRgsRjjz3mAi4zW4RBjRo13CydoHL33Xe7WSiBBrHQrl07F/hyqxAgFixY4Ga3LVu21Lp161yaH0fEDOXOO+904gWxQmAjGBKQEDEEMAIQgQ2hw3kEM67jxQVpf7IBLDMQMAlwBH/unXv0AiEhIcHN6pn9cj6CwpfDCQQCv882eIGAA/3jjz9cwEMAECAJlgRU2s/7LAn07NnTiRt4Dh06VLfcckuOsMLwr7/+chkRln9YLoEFwu6LL75wbBB/ZBi475NOOskJFzIsLBUQ3AnSiEPOIViPGzfO2UH9+vWFeEBEenFA31DI3mA71IX9eIGAwCOLg/0QXJ599lknzJYuXeoEJu/DgTbDmywPfXu0eyNyBM9OOiwBBMITTzyhp59+WghECv6joAoEZrMEBOaKpIrX7ghmBQZPl57ucaBA+NeYYDBl9vmfmVJv5gQRUvEYKS5KWpcYzEaUKhJMP7PkMHltMFvw/ATpnb7Sok3StHVS1ZJSs4rBbEKrysFA/kx3adpaiQBEoN6XKtUo+f/tnQd4VVXa/X83jRBa6L2E3qRIBwWkK11Hscw4fs4Mos7/P6OfOtZRmjqOfQSFmbHgWBlxEESkS++d0ENv6QRICO1+z9rbE0IIhBQuGd3v89wnyT1l7732uWetd737nkB8GrSoBGNXwkNt/Dw6w8ebvWDuHusuVC4m4oenZ8Prvf3MifGZtiPC7JjqloGBE+G9PrD8AHSuCXN3/2iL+6FHFIxZBY+3txb51RYISWnw/XbYlmAFVMfqFo/bmsB7K2D5IRjZFZbvg041MSJmW5zdZ0scLD0AN9eFqiXtpajtcgWW74enusKouZcWCCL1lpXhWLotI0gYqoTTOQqGToYetS32cgHUdubQ2gVFYhocPganzsHGWD8tK/uIioTPNviJCPaZfg62mrjAo1AJBBGrwisvKAuU7a2MVkQn69Cz93XTF2morizCFDkoA9SxuV2cdjlURW7KcMuXL59xbhGJBICEgaxqEY9IRe16AkFZt/ouUeOF+iwhoX5rX1npcj2UsermJnGTNeSiKHNXNiuRoDF6pRhvX2VOGr+XOUlEVaxY0WTRImVly4rMNVqNQcQs8SJylvDReZXdSzhovF4Wrp8SEHIu8hISVxIcwkbukP7WXEsQiXwlAtS+QvPZtWtXM1aNQfOtMah8JPw8sSPXRmMWhhqLrhGJLa1nUBuKDz74wKyxkLDQ2hGVDTQOjUfzJuEngpFoU3s6v8SZziUXR2UR4b1ixQqDlYdvXjBwx1wdBGQvS1zLudNcKpQoKLRORfN8LUMEnnzSZqWqYUsg8/G9fQAAIABJREFUeKFt+5IhLAT2pMBNtUD1ctn3yixVOjiY4icsxGeyeZGNstjTZ20ZQft5oe3KJJPSoXZpWH8EOlS1AqRZZbtQLvYEHE7FkMvKQ3BDNdiRcDExLdwLVUvAvL3wq+usiJCroP6q9LD+sBUjs/bA/c3P92FLvC1RSCDM2gW31NV6BGhZCWKOQtNykHrKkmRosLXcJWxEtjdkIcec5iw3JYa4VJi9EyqXsGRbr4xdX9CrLkxY76dUUR8dq1pxJmehUw1YfcDi9v5q6zyojwMaQpFg6xyofKDzdq4Fu5OyFwhfbYTwUFvSyRAIYTAlk0D4QwdYd9AKBomuzJFwwl4vEoi6fuRCqJQk7JUehof4ST7pMy6QVyLKCbfcbi9UAiFr50UCnq0r+1kXhUhMIbLRdhHItQi1LaK/VFbprdLP2jdv4ZvncmgcIuX81PcvN37vmwHZ7aN2Pfy8/USWcic8h6IgcFbZQOTrrR3ROgMJAgk+CR/9rZ8ie+99CTDv34NfTvCJFDxCUBtynrxrRmJA4khrL1RWkAiTMNG4RfwSE3IIJAQ0Lxqz2pIz4ZV4hJvmWuLKrUG4Fp+0n3abIl2Rqla0ZxfafvqcrX2ba/GMzcSzW5gm4aAQ+Sq05kEE5YW3yM47VqUJkXV2oW3qk5wO9UHH6jiRpUKug86dtWouB8FbY2GO/XFfrx1vJb/GkJ/IjUAQwWqRZsNyUKKIdUF2J0Oj8nY8WhehMoQEjlyCaiVBrkNkOCzZr8WWsGw/VC8FIT6bzXs4aAwli9gSUdbQmgcdI0zOnLVCUKFvMaiEI+HVvjrsSbJiqWQ2VCbchWN2eAnL/OKY0xwUaoGQU+fddoeAQ8Ah4BD4+SGQG4Hw80On4EbsBELBYenO5BBwCDgEHAIBQMAJhACArCUvySkn5AJlRHBwEEWLhKGfLhwCDgGHgEPAIVDYEHACITAz4gRCYHB2rTgEHAIOAYdAASHgBEIBAZnDaZxACAzOrhWHgEPAIeAQKCAEnEAoICCdQAgMkK4Vh4BDwCHgEAgMAk4gBAZn5yAEBmfXikPAIeAQcAgUEAJOIBQQkM5BCAyQrhWHgEPAIeAQCAwCTiAEBueAOAh62I4eHJT5v+MFZniuFYeAQ8Ah4BD4qSHgCQQ99Ezcosemu8gegfw8hC8gAkHdlkhw4RBwCDgEHAIOgfwi4ByEK0cwP/9DJmAC4cqH4/Z0CDgEHAIOAYfApRFwAiEwV4cTCIHB2bXiEHAIOAQcAgWEgBMIBQRkDqdxAiEwOLtWHAIOAYeAQ6CAEHACoYCAdAIhMEC6VhwCDgGHgEMgMAg4gRAYnJ2DEBicXSsOAYeAQ8AhUEAIOIFQQEA6ByEwQLpWHAIOAYeAQyAwCDiBEBicnYMQGJxdKw4Bh4BDwCFQQAg4gVBAQDoHITBAulauDAE9DyPz93L18Kzg4GBzsD70iqCgnP/VeEJCgnk4Snbf8c3ahh6mEh8fT7Vq1cz5U1NTKVKkiPlZokSJK+u428sh4BAoNAjkRSDsTrLdr1U6+2GknbbvFw2F9YegcUUIyflWdElMUk9BeCgkpkK5YnDW3t44kAIVikN4CJw4BcXCCg2sF3Wk0DgIuoFv3ryZOnXqUKVKFT788EMWLFjA22+/zfHjx3nvvfc4evQogwYNonPnzowfP54VK1YwduxYQkNDOXPmDHPnzjU3fm0vqBDZ7Nixg3feeYd+/frRs2dPpk6dypQpU3j22WcN6Wzbto0xY8YwePBgbrrpJj7//HNmz57N6NGjqVChQkZXdFFr2+LFi3nyySfNsV9++aUZ5/3330/Lli0v6LaeEDZixAhGjhxJSkoKX331lSG6X/7yl1SuXDmDVNesWcPu3bu57bbbzAOpPvroI3r16mVw9ELHr1271hxXr149pk+fzhdffMGwYcNo166d2W3Dhg385z//ISkpiUceeYTq1avzxhtvcOTIEZ577jmKFSuWJ1g1fxrziRMnTP9E6hprzZo1WblyJWlpaaxevZqHH37YjFPthIeHG8GQVSx8//33LF261PRD+ISEhJgx3XHHHeYcOt5ro0WLFkRFRSEx8emnnxrstG3IkCE0adIECQfhv3PnTjOX27dvN2KlQYMGeRqnOyjwCOja0Wfz8ccfN/OsKFu2rLnW3nrrLZ5++unAdypTiz0n2D+CfdCvPpw+B9O2Q7FQ+OQ2eHgqbD8GY3pBTDKMXQE+kVQwfHo73PUlBIXC13dAcho8vwDS0mF0N6hY/HxD0bHw1Fy4sSY83AqCg6D5P6FnVXirL2w8DE/OgZvrwwPXg8ir3Ufwi9owqueFEP0nGl5YDK/dBN3rQHQc/PJr+F0LP8Pa+vhyPYxeBv/qB83sbciEnoX3t+XwxUY/4/tDkwo+XlsIX8XAP/pAo/Lwl8Xw7VY/7w/0Ua8sHEuHZ2bB231zN025EQjbE+G3k/2E+IQsBuBaxeGdAfDSD7D9KHx2G+w7ajdXLwWTo+HIcdh7FB7tBCnp5wleoiHuBESVgdNn4e0l8GKvi/u/Ix6On4I6ZeGbaCsWbmsKEzdAp5qwLxnijkOZCPtqeJ4qLjjZyTMwJwbOnIUBjUCPHNRIvEcP/jiq3AF4hXsXCoGgTG7v3r2G3HWDjoyMJCwszLz0AX/wwQcNmf32t781xKEPf6lSpQw5vPzyy4Zs161bx/vvv0/fvn3p06fPFQ4/591EIjrvvffeazJOEYz6qfbV7vDhw42Yufvuu02/dHMSqWnfV155hVGjRmU0IlJW9O7d2xCvREFMTIwh8tjYWJo1a5bpw+Y3hD5u3DgjjiRShFF6erohvYYNG5p91b89e/awZMkS7rvvPiNMoqOjueuuuyhXrpwRVcWLFzf9UVvCTAR48OBBSpYsybJly+jRo4c5j0hc+3Xs2JHSpUsb0SESl0CYNm0aQ4cOzRmwbPY4fPgwM2fOzBAw2kXn1LklrvQo0Ndee82MPy4uzsxh8+bNeeGFF8wraxw4cMA8tlvHffLJJ/z+9783GKi/HTp0MMJCImTjxo1GiHz33XfUrVvXjF+EonZbt25t3u/atSuvvvoqAwYMMFhJFGlfF/8dCOh61WfwmWeeMQJQ94eKFSuya9cukzy8/vrr13QgyhpjEqFeOTh5GlJPg3gqyGcJJ0VZ6znYkwxdomDyZqhTBppWhKdmwEu9IDoe3lwGg+tbYuhY3RxCqXD796mz57PUcaugeUX4yzL4ZIDNhmftgPplLVG9vBjaVoFxa+AffSEiBPYfhZo/ZtU6V8pJKFUUnp8NT3SGu7+GaXfC1K024+1dF0qEw71f+fnXL3ymD4qvNkPiSbitIXyzGQY1hiPHoGQ4zNoJZ3127L9uBn/8DkZ3t+JAYml0FpGS06TlRiCIxBfstmS/Iwm61QbfObihFqw7DO+uhBFdITHNttqgvJ2nP06HasXg2a5w4rQVaGHB8PYyPzfW9CFRNqwtvDL/YoEgN0K41i4Daw5a3CQCIsPhh92wbD881RlS0qBCCbkIfoqEZE/1OpfaqlAM4tPgUIrt+/Y4kHhoVdWKj6sRhUIgeAMTASpq1KhhiFjkcezYMfO3Mj0JhqZNm9K+fXuznzI+EZ5IWdmvskcRw80335yt9ZxXAJWpSoCIRNWvqlWrUrt2bZOFS4ycOnXKZMLa3q1bN/P3jBkzjAWuvooMdeNatWqV6YIIWRm5CFfvifTlgkg4aAwSSN7zs5XhSyAoEhMTmTVrFsqM69evnzEckb3ak0BQqF8iQAkEOQJyXRSbNm0yP+VqKAsXyYpYf/3rXxsylfCRG6Gb7sCBA43b8dRTTxlHQeMXmeYlJBA+++yzC/osIlYWr7GLuDUuOQjffPONET9ehi/csoaIXWJAx8n96NKli8Ft4cKFZsxeCEeJneTkZLO/2tAcaV7uueceg7OwmzdvnhlzRESE2b9WrVp5GaY75hogoHmTeyBRKaeqUaNGXHfddaYnjz32mBF/1zKyCoQVB2B3MkSEQv+G8OspMKg2tKlmySSzQKg/DrY9YAXCG8tgZGc/wUE+ykX4mbrFR6MK1gJXlropFoZcBxsOWzv73eXwZGcrQm78CO5oAE93gRnbrRiQhT6gsd0++gcY1hrO+iEhFWpEQnmR0Qnw+/zcOdnH7Ltg/Fr4YRcM7wx1y9rfO9bwcyDFZ4RI8TD4eAMUCbLbg/zQpqqfoCAfKSf9fBLto0gIDG0B3T+DSbdCaBCMmgcvXkWBoOx/ymYrTrYlQoNy0LIS1C9n2155GJ7oAKHBULUklI2ACWugV134cDXc2cy+J5zVX5UIZsXA5lh4ritMWJu9gzB1M/SoByPmWiKvXByuq2CFysDGsGi3FXk6Z+2yUK1U9leqBML8XRAaAosOQrsq0KWGnxUHfFQsBnuToftVymkKrUAQIcn6la0vwhWR6eavDFAZ95YtW8zNXZa+tm/dupX9+/cbB+KWW27JqGvn9+YgpSohouxSxKzsVWQkglZZ4dFHHzXEKyHTtm1bIyDkJChrl/Px7rvvGjIWKYmoVArReSZPnkz//v1NWUUZ6/Lly022K9LTucuXL29EjicQJA5UihCx6vjM1vvlBIL6rpJCZoEgAhZ++vnSSy+ZG6myL6+eL7EiIlUWVqlSJVOnlwMgIZGXkCsg0SKHwLP/hYfmUfMmkSfSf+ihh8z4Nc8SfZpPb91A5nY1B+qTsP3Tn/5k5l8iRCJR+3ulCZUqJOQ0LuGs60muiRwY7afzSHTKHdEcimDkBBVkiSoveLljrhwBCQSV4HQdy4XzBHBhFQgqMYjURVbn/DbDPuOHD0Qy3S8UCI/NhkfbQHI6/GMtDKxnjysZBiqN70uxtr7nJFQpCUsPQMNy8Moi+PsAiEmABXugZiS0rAzfbLMOw8RoW6bYeATiUy1JpZ+14kDZctMK8I818JsWfv4ww8eYPjBzl82ia0fC9VXg2bnwSg8/32/3mXKHMmSNKSoSBkyEsb1hwxFoXx0W7LXlFUXv2vDaMni6k/37agsEOQNTtkBMkh1vm6qWrO9qDh+sgYX74YXOsGQvdI2yLsG2eLvPpjjrMsg1qfzjciWtHVi+H5btgye7wqi5lxYIxcMtliqlCB8dK3elcxQMnQy96tjrQY6Ryg6ZIynNOkT6uT/F4rcx1k/Lyj7qlPbz/hooFeozwmJwkyv/zORmz0IlEETCCtn3ixYtMoQislKWqZu/yFFZrixEZezKFkQuXpYpG15RkBaxyMYjSvVF7Yl0ZcEr+1etX3/L5dB2EaDGoX7Onz/fCBwvRMIiXpGSzqNzzJkzxxC4SN5zRjJP4LfffmuyI7kQugFqbDreW9infSVORH4SDgr9rrq8MmI5At7aBhG1QuJDpQWt91Bponv37hniSmQr90Iug45XXV/nkkDLrn9XcrFpzOq7MBJRa6x6T+s5VCcWKU+YMMFkfnI12rRpY8SDhFbWdQ86XuNo1aqVIXYJDYmuTp06GfGosenakIjT356bJDdK86RryMNaroYcA2Gg7WpP6xMkOq9koeSVjN3tc3URkLunz5muYc2fwrtmJGp1jV3LEIGLoJSBnjkH6WfO90bbtHAuIgy2JUGfOrA1HkoXtXay9lVdXKQigggLtdb3qdOWoGVXe3HomM1sE9OhTmlYfQi61bLnlwUtN0A19YMnoHZpWHIAekVZwpTlnjnm7LIkPy0GHmhpiVDrBUT+IrlVB6FqCfhmB/y+9fkjN8baMooEytQdMLghfLkROlSHLQnQooLtv0oKytblUgiT+Xuge5Y+5DRnuSkxJKTB/N0Wr8PHbBZ/+Lgt6agkUyoCetWyJZTGFWx/Vx+w6ys+XW/XH8ihGdDA9lviQWWj2OPQoy5sicteIEzaKAfGloSOp0PpCLsgceqW8wLhwTa2fCDB0LrqhaPW+gSVfLxjJdxiT1jhohJV0VA/iak+4/w0LJ8TYnnbXqgEwuWGIOLQRSESLgwhgpMIuNR/yhLRisizhvcvrz2Cl6AQkYmMr0ZkXdGfuQ1lzHI6FN5+IluNKXP/JNCys/rz0l+VkbSYTPiI5JW5yzGRo6F2NMdaIyEHIbvQ8cJK2+Wq6G/11xNHOkZCQGSh83kLMCUYNGcifokduSdyLyRGJV40L8JA5QW5C/n5D2h5wcUd8/NEQCLBkOYlVrKLlJU5FrFf9DFWtTLO7FbXi0wUyoAVsqZl/XuhWrxCJKe43Ap6bZNwMYvh/JbIPefDO9bbnnnm1F+9tEjSW0inBZHe+HQeRX6+HaDjcyMQRPByMpTJy23R3zsSoFkl68hoAamydO0jp0UvlVrKFIV5u6FVFbtuIKq0dVq0tiDTekdzTgm2rLEryR5j5vAspryikGiT47JknxUpcnkkliKLXnwO4SUchWfWUHkou/cv3jPv7/zXCIS8D9Ed6RBwCDgEHAI/JQRyIxB+SuMO9FicQAg04q49h4BDwCHgEMgXAk4g5Au+Kz7YCYQrhsrt6BBwCDgEHAKFAQEnEAIzC04gBAZn14pDwCHgEHAIFBACTiAUEJA5nMYJhMDg7FpxCDgEHAIOgQJCwAmEAgLSCYTAAOlacQg4BBwCDoHAIOAEQmBwdg5CYHB2rTgEHAIOAYdAASHgBEIBAekchMAA6VpxCDgEHAIOgcAg4ARCYHAOiIOgB9DoATx6uXAIOAQcAg4Bh0B+EPA4RQ8/E6/oqbQuLkZAD3zLz0PuAiIQ1G1NqF4uHAIOAYeAQ8AhkB8EMgsEPW5bj1x3kT0C+XlsfMAEgps8h4BDwCHgEHAIFAQCrsRQECjmfA4nEHLGyO3hEHAIOAQcAoUIAScQAjMZTiAEBmfXikPAIeAQcAgUEAJOIBQQkDmcxgmEwODsWnEIOAQcAg6BAkLACYQCAtIJhMAA6VpxCDgEHAIOgcAg4ARCYHB2DkJgcHatOAQcAg4Bh0ABIeAEQgEB6RyEwADpWnEIOAQcAg6BwCDgBEJgcHYOQmBwdq1kQUDfXQ4NDTXPxjh27BglSpQwv+vBHnrlJ3S+iIgIgoODc3WaEydOmP2LFSuWcdzGjRtp2rRprs7jdnYIOASuLgJ5EQh7k22fakRm37eTPz7HLzwENh2BhuUhOCjv40g7BeGhkJgGZSPg7Dl7rkPHoFwxUDuppyAiLO9tXO0jC41ASEhIYPPmzdSpU4fKlSvz/vvvs2TJEv76179SvHhx5s+fz4wZM7jnnnu47rrreOONNzhw4AD169fnf/7nf/jhhx/MPnfddReNGjUqUNx27tzJmDFj6Nu3L927d+fbb781r2effdb0dceOHYwdO5aBAwfStWtXvvzyS+bMmcOoUaMoV65cRl9EgNq2ePFinnjiCapWrcq///1vFi5cyH333UeLFi0u6LdI9MUXX+T55583JPr1118jnDTGSpUqmX31QVm7di179uxh8ODB5r2PP/6YHj16mL55kZKSwrp168x7devWzcCvaNGijBw50ux29uxZPv/8c9avX88jjzxi2njrrbeIjY01Y9W+eYnU1FTWrFnDqlWrKF++vOmbHmwiAtdT0Pbu3cvLL7+c8SCthx9+2GDx2GOPoWNff/11g/GHH35ojh8yZIjB7Pbbb6dIkSKm32lpaeY6UWzYsMH8rieIlS1bNqONrVu3mu26fqpUqWK2ax4ef/xxg6Oup7CwMIPxli1bzHGeaClVqhSdOnUiKioqLxC4Y64SApr39957z1yviYmJphVdW7pu3nnnHTO/1zJu/pdtPdgHfevB6XPw3Q6ICIUJt8IfvoXtx+BvPSEmGcattPsXDYaPb4N7/g3BofDV7ZCUBiMWQmo6jOgKFe3lbmJzLDz7A9xYE4ZdDyFB0PJ96FEF3rgFNh6Bp+fCzfXhdy0g7TR0+Bhui4Lh3S9EaPJmGLkEXr0JukbB1gS492v4TQs/Q1v7mLgBXloOH/eDJhUvPHbsCvhio59x/USwPt5cDJNiYHxvS7h/XQLTtvr55wAftcvAiVPw3Bx4vU/uZik3AmFHIjwwxU/Ij4mHftQsAW/2hVcWwM4UmDAI9h+1fahWCiZHQ0Iq7D0Kf+gAKelwVs/580NoMMSdgKgykH4Wxi6FET0u7v/OBDh+CjPOqZutWBjcBP69EW6oCRIsccehTIR9NSifPQYSLvN2wZmz0K9h7nDK796FQiAocxPBiYBEGnpspm78ukH/+c9/5tFHH2XWrFnccccdhqyU4YWEhJh9dZPXDV2E0bJlS4NH7dq184tLxvG6AY0bN47f/e536LGeujBFIiVLljQENnr0aP7+978bkaJ9RSR6cpXIXcT+yiuvZJxr+vTp5vfevXvz5ptvcv/997N7924jFI4cOUKTJk0y9hUxrV692pxbN8Bt27YZjESGtWrVomFDe6WoTb2/dOlSIzK+//57Q24SUhInulEKS2G8a9cug5vakRirVq2ayeI1HvVXbeinRJf2U59EpIcPH2bq1Kk8+OCDecZVmfjs2bNNn5o3b25EnObvqaeeomfPnjRo0ICjR48aQpeb8NJLL5ltwnL8+PGGnNXnu+++28z3Rx99hISErhldJxqnrgv9LkwrVqxotmnsIg5hr3GYG0C1aqZNtSP8dNypU6cytgtf4aj31b76qTnScS4KFwKa9+HDh/PCCy8QFxdnrucKFSogUf/uu+8aIXwtQ1ljTCLUKwcnT1tCEXmLpETS5/yQfga2xUO3OiByrlMGmlaEP8+yxBMdD28ugwH1QN7ajTUgKAiKhdm/T5+FoychsqifMSt8tKwELy+FzwdZIbJgtz2nMufRi6BdFRi7Gj7qDxEhcOQ4VClpUTpzDpLToFQ4PDkTnrsJ7v4apt0J07ZB2hnoURuKh8GdE/1MHHLe7fsi2hLikMbw2Tq4s5klXZ3r+x3gC4YgH9zbDP53OozoBo9NhzJFYXTP3M1SbgSC8BEGu5NhZzJ0rw3nzkCX2hAdC+8sh+E3Qbw1EGlYweLwm8lQpxQ81xWOn7a4hAXD60v89KztM8cObQsv/wAv9rqw/6mn4VAK1CoD0UcsLhpniSIwNwbm74EXboKUk1CxhObJT1hI9s6prhMJQAnCpJNWWEhgbI2z11D7mrZfVyMKhUDwBqZMUlGjRg2U8U6ZMsUQoVyF6OhoOnbsaJwC3dhFgiI93cx1s9eNQtskLtq3b1+gWIl0lH0rixdhiCgkQkQiInuRqrJjbVdfRDbTpk0z+7Vq1Yr4+HhDVMuXLzf9Ugb93HPPMXToUJYtW0Z6errZLofi+PHjZnze87OHDRtmBIJCBCqiE8F6AkHvHzx40LgrEggK7dO6dWtDxhMnTjSZtmLTpk3mpwSC+pecnGwI8tZbbzWuQZcuXRCRq5+9evViwoQJPP300yQlJWVszwuwEjuaH4k4CQ/hJPxk3atPEiYic93ctd/111/PpEmTDD6eayF85UL079/fZPWffvopDz30kMHJEwgSjzExMQZ/lRgkCCQohKmuF7kQisaNGxsXZd++fUb8aYwrVqzIcJ50TUlU6HxqS/2qXr26mSMXhQsBXS8S6voc6n6ga6pZs2amk3r/1VdfvaYdzioQlu6DmCRL7oMbw+1fw5B6cGMtqK7MNZNAqD8Otj1wXiCM7OIn2OejbISfbzb7aFEFQoOsOFh32BKynIJyEfDeCnjiRkt0N3wIQxrCM11g5g6oGQkbDkP/Rnb76Hnw/9rbDPnIMageCeWL2Qz6HH7unOxj9l0wfi3Mi4Hhna3gWbgb2lX3E3vCZ+xyvf65ForIvagCp05B22p+goN8pKT7+dcmH0VCYGgL6P4ZTLrV9n/UPHjxKgqEY+nw7VYryuSGNCoPratYHJ6fDWti4U8drZgSCcv+/2AV3FIf/rkKftkcSheFY6dsf+UqzNxpCVri4V/rLhYIuujkGnSvB8/OhJNnoXJxaFERDqTAoCawYp9tU45EnbLnRVrWC1YiYP4uCA2BhQegfVXoUsPP+iM+ykdYASpxeTXiYoEQFETR8DCC81N8yWNPPYGg7E8ffGXjylqVIah8IPLVTV7EK2JQFi9rUVn6ypXWm+vQoUOua8+X666UqrIRkbzIXqSivtWrV8+UFf74xz8a8tF2CRiFblTKPtV3ZTELFiwwZC2ClwMgAhRxDxo0yBCaCEkEpZubxqfsWhioFu8JBJG5MFCJQP3I/HxtWeMzZ87MViDINfBs8cwCQcfoXDr/3/72N0OIXu1ffdd41BeJM2Gt7P9Xv/pVnmZWY5btLxEi3CSolOWrVPDBBx+YsXbr1s20oRKC3AKVHB544AFTKpCAkIiaN2+eEQgSkBqv8NLvwl+Cw7t+PPEk92nEiBFmLHJA9u/fb/qv9lSO0ZzIgv7LX/5i5kZ90nu6viQMdF6VWXSc2srv2og8gecOuiwC+qyplCfHSYJOIQehMAkEWc31y9tsT4QsQlDoGos/4TPk8eFaGN39QoHw0HR4/gZISIPxa/z8ooFIzkdkuJ/TZ3zsStY5oHQ4BAf7qRXpY8l+aFAWXl4Ef+9vs83vtkPdstCuGkzeAs0qwlebYcRNsDUe9iTZPsnJiCotUWDLARPWwd3X+fn9dB/jb4HvdkJ8KjQr76dZJR/D58HIbn6mbvFRuYSfKqXUHx/VSkL/L2Fsb9iZ6KdFZR9L9/s5dlqj9tG3LoxcZIWGLPvRysCvokBQn7/aBPuOwpY4aF4JKhSD+65XOQRm74ZnboBFe6BHHevw7EiwYmHDEdiWAL3qQPni1rGREFp5ACT2nuhsBVZWB8EIhGgoVwLqlYVjJ20ZQcdKBHauBUO/gZvr2nUOjStAp5oXXuoSfmpPpaU9yfba2Rjrp2Vle84xy6FsER81S9vSxdUIX9LR4xf8ByUJg6JFro1AEAkqZHkra5VAUGYs8lAGLzJQFicbWnaiyEOZZbt27di+fbuxqXWsstSCCpGbBIL93CaNAAAFZklEQVSsdmWSOrdq2SISrZHo16+fsb5FUNqmD73GoQxWJKbs3Av1WRm7xiDbWuOQC6GMVuR2ww03XNRtrTsQmR06dMhkxBqjd7y3s9wWkahcA4X6J5IT0Ut4tGnTxryvkoFHkBILGpPWSvTp08cIH4kOZd8iaU+A6XidS0Imu/5dCc4as8olOrcEgtcPrTNQecQrA3jlEjkZEjaabzkIcllE0CIAr4ykco/mXCJHwkPXiH5KDNSsaT9pKk2oBKQxtG3blrlz55ryhK4rXTNqWy/Ng86tfglfCbjIyEiztkNiY9GiReacch1cFC4EdE1517CcIoW3FkXrhOTKXctQCSEx1WalqiGrxODdcHWviEnwUTwcouOgfwNreYtIKhW3JQkRfNEwSxBFQkHWtd5vU9Va1l4oK5Wdn3DSksfy/dCnLmyP99G+hrJ8uQM+9h/3U7cMzN9rSxarD0LvehcipHJA/bIwaSv8/7aweI/NukVQWmy3bD/UioSJm+F/O5w/du1h27emFWDSFhjSBD5e56drlI/1sdC6kl2UV7yIFSQiaa3JmBMDfbL0Iac5y02JQQS7dL+14fclQ6sqduGgCPnNpRAZAQPrwffboX45uR6w+gA0qwyTom3GvzsJ+jWwDsLOROEKh47DLQ1gwyEfo3pd/I8IJ220zoHWccjFkAuhEsO3W+DGKBg2GX7Tyse2OOgc5ad1lgqm3BzhozKErgmt1zh8AqqUsKWaYqF+4lODOHvOf9FaEA+//CY1hUogZL0oRBiexSyi1ksCQKEPl7aLiK9FqG2R6KUmQBmv+pp1u8agvnsiRr8rC/JuagU9Fm+RXXbn9b494OGpviq79+ru3vsaS37+ZajIXASsMWr8ImQRswSAnAyJLf2UMNH7svO10Ex9UUiYXSoyj0EELyfEu2YkeuQoyb2QsFAb2i4HSGUWOQZyayQyVabQuDVnEgJyp7zQXOvccnpcOAQKEgE5ACdO25p+diGBoRq6rHmFFqwp4xRRZY1TWoXvO1+PFqGolOHFqbP2N69efTzdknW29wZt0xoHn3UpRFRq0/uCkWrqxULP/+2dQ2UK7a8+KvvV79pXxKiQyFAoS89P5EYgJJ+0QkiZt0hamfnmOGhd1fZRfVU5ZdVBu1ZDLy1ClBiasQPaV7c/JbyEgcRa5i9alS2qUsvFo5GIUClGc6i50SJFhRylyiXhh13Qq651cSQIJQKyhuZeYiA7Q19YXimOeRUKhVog5OcCcsc6BBwCDgGHwE8TgdwIhJ8mArkfVV5Egi8x+dgF3khIcBDhWoOgZbIuHAIOAYeAQ8AhUMgQkDMq10/upMpMciVdWASuVAhcyX4XCYRruQbBTbBDwCHgEHAIOARyQsA5CDkhdOVi4XJCwQmEK8PZ7eUQcAg4BBwChQQBJxByNxE5uQWX2u5LSEopNN9iyN2Q3d4OAYeAQ8Ah8HNEwAmES8/6ZR2ByzzGPrvjfPGJR90ahJ/jJ8yN2SHgEHAI/JcikFkgaC2CvvX0c45syf0SYiA3AuIigaDFidfqQUk/5wl2Y3cIOAQcAg6BK0PAOQiXxymrCMirgPDFxidd6CCEBJsHJQXpy5cuHAIOAYeAQ8AhUMgQ0LcYvH/SpuelOAfhYr72REHWn5mnMifh4DsSl5ilxBBM0fDQCx7lWxDXhmwgTagLh4BDwCHgEHAI5AcBV2K4GL1LkX3WB/rlxl3wHY5NCMgaBCk+vVw4BBwCDgGHgEMgPwhkfg6CcxAsktk5BXpPT4jVz8zCICeRkHGuw0fiL/4WQ7hKDO5BSfm5gN2xDgGHgEPAIXB1EHAOwqUdhEuVFi4nEi4lGP4Pz3w8jUiypK0AAAAASUVORK5CYII=;" vertex="1" parent="1">
          <mxGeometry x="1129" y="499" width="270" height="139.15" as="geometry" />
        </mxCell>
        <mxCell id="HUmmBEnXE_2QKr82iRTp-75" value="" style="rounded=0;whiteSpace=wrap;html=1;strokeColor=#000000;fillColor=none;dashed=1;" vertex="1" parent="1">
          <mxGeometry x="1119" y="479" width="291" height="181" as="geometry" />
        </mxCell>
        <mxCell id="HUmmBEnXE_2QKr82iRTp-76" value="云平台-事件中心" style="text;html=1;strokeColor=none;fillColor=none;align=center;verticalAlign=middle;whiteSpace=wrap;rounded=0;dashed=1;" vertex="1" parent="1">
          <mxGeometry x="1228" y="439" width="90" height="30" as="geometry" />
        </mxCell>
        <mxCell id="HUmmBEnXE_2QKr82iRTp-77" value="" style="endArrow=classic;html=1;rounded=0;" edge="1" parent="1">
          <mxGeometry width="50" height="50" relative="1" as="geometry">
            <mxPoint x="1032" y="570" as="sourcePoint" />
            <mxPoint x="1112" y="570" as="targetPoint" />
          </mxGeometry>
        </mxCell>
      </root>
    </mxGraphModel>
  </diagram>
</mxfile>
